<?xml version="1.0" encoding="utf-8" standalone="no"?>
<!DOCTYPE svg PUBLIC "-//W3C//DTD SVG 1.1//EN"
  "http://www.w3.org/Graphics/SVG/1.1/DTD/svg11.dtd">
<svg xmlns:xlink="http://www.w3.org/1999/xlink" width="864pt" height="576pt" viewBox="0 0 864 576" xmlns="http://www.w3.org/2000/svg" version="1.1">
 <metadata>
  <rdf:RDF xmlns:dc="http://purl.org/dc/elements/1.1/" xmlns:cc="http://creativecommons.org/ns#" xmlns:rdf="http://www.w3.org/1999/02/22-rdf-syntax-ns#">
   <cc:Work>
    <dc:type rdf:resource="http://purl.org/dc/dcmitype/StillImage"/>
    <dc:date>2025-02-07T22:19:41.638490</dc:date>
    <dc:format>image/svg+xml</dc:format>
    <dc:creator>
     <cc:Agent>
      <dc:title>Matplotlib v3.9.4, https://matplotlib.org/</dc:title>
     </cc:Agent>
    </dc:creator>
   </cc:Work>
  </rdf:RDF>
 </metadata>
 <defs>
  <style type="text/css">*{stroke-linejoin: round; stroke-linecap: butt}</style>
 </defs>
 <g id="figure_1">
  <g id="patch_1">
   <path d="M 0 576 
L 864 576 
L 864 0 
L 0 0 
z
" style="fill: #ffffff"/>
  </g>
  <g id="axes_1">
   <g id="patch_2">
    <path d="M 108 512.64 
L 777.6 512.64 
L 777.6 69.12 
L 108 69.12 
z
" style="fill: #ffffff"/>
   </g>
   <g id="PathCollection_1">
    <path d="M 120.358059 253.982034 
C 120.654565 253.982034 120.938967 253.864231 121.148628 253.654569 
C 121.35829 253.444908 121.476093 253.160506 121.476093 252.864 
C 121.476093 252.567494 121.35829 252.283092 121.148628 252.073431 
C 120.938967 251.863769 120.654565 251.745966 120.358059 251.745966 
C 120.061553 251.745966 119.777151 251.863769 119.567489 252.073431 
C 119.357828 252.283092 119.240025 252.567494 119.240025 252.864 
C 119.240025 253.160506 119.357828 253.444908 119.567489 253.654569 
C 119.777151 253.864231 120.061553 253.982034 120.358059 253.982034 
z
" clip-path="url(#p8e2af15f99)" style="fill: #add8e6; fill-opacity: 0.5; stroke: #add8e6; stroke-opacity: 0.5"/>
    <path d="M 227.037155 307.301253 
C 231.22409 307.301253 235.240102 305.637767 238.200712 302.677157 
C 241.161322 299.716547 242.824809 295.700535 242.824809 291.5136 
C 242.824809 287.326665 241.161322 283.310653 238.200712 280.350043 
C 235.240102 277.389433 231.22409 275.725947 227.037155 275.725947 
C 222.850221 275.725947 218.834208 277.389433 215.873599 280.350043 
C 212.912989 283.310653 211.249502 287.326665 211.249502 291.5136 
C 211.249502 295.700535 212.912989 299.716547 215.873599 302.677157 
C 218.834208 305.637767 222.850221 307.301253 227.037155 307.301253 
z
" clip-path="url(#p8e2af15f99)" style="fill: #add8e6; fill-opacity: 0.5; stroke: #add8e6; stroke-opacity: 0.5"/>
    <path d="M 265.074374 373.929774 
C 267.775673 373.929774 270.366697 372.856537 272.276804 370.94643 
C 274.186911 369.036323 275.260149 366.445299 275.260149 363.744 
C 275.260149 361.042701 274.186911 358.451677 272.276804 356.54157 
C 270.366697 354.631463 267.775673 353.558226 265.074374 353.558226 
C 262.373075 353.558226 259.782051 354.631463 257.871944 356.54157 
C 255.961837 358.451677 254.8886 361.042701 254.8886 363.744 
C 254.8886 366.445299 255.961837 369.036323 257.871944 370.94643 
C 259.782051 372.856537 262.373075 373.929774 265.074374 373.929774 
z
" clip-path="url(#p8e2af15f99)" style="fill: #add8e6; fill-opacity: 0.5; stroke: #add8e6; stroke-opacity: 0.5"/>
    <path d="M 291.525544 337.188476 
C 291.876374 337.188476 292.212883 337.049089 292.460958 336.801014 
C 292.709033 336.55294 292.848419 336.216431 292.848419 335.8656 
C 292.848419 335.514769 292.709033 335.17826 292.460958 334.930186 
C 292.212883 334.682111 291.876374 334.542724 291.525544 334.542724 
C 291.174713 334.542724 290.838204 334.682111 290.590129 334.930186 
C 290.342054 335.17826 290.202668 335.514769 290.202668 335.8656 
C 290.202668 336.216431 290.342054 336.55294 290.590129 336.801014 
C 290.838204 337.049089 291.174713 337.188476 291.525544 337.188476 
z
" clip-path="url(#p8e2af15f99)" style="fill: #add8e6; fill-opacity: 0.5; stroke: #add8e6; stroke-opacity: 0.5"/>
    <path d="M 291.962753 323.267107 
C 292.15028 323.267107 292.330151 323.192602 292.462753 323.06 
C 292.595354 322.927398 292.66986 322.747527 292.66986 322.56 
C 292.66986 322.372473 292.595354 322.192602 292.462753 322.06 
C 292.330151 321.927398 292.15028 321.852893 291.962753 321.852893 
C 291.775226 321.852893 291.595354 321.927398 291.462753 322.06 
C 291.330151 322.192602 291.255646 322.372473 291.255646 322.56 
C 291.255646 322.747527 291.330151 322.927398 291.462753 323.06 
C 291.595354 323.192602 291.775226 323.267107 291.962753 323.267107 
z
" clip-path="url(#p8e2af15f99)" style="fill: #add8e6; fill-opacity: 0.5; stroke: #add8e6; stroke-opacity: 0.5"/>
    <path d="M 303.767407 291.88 
C 304.03261 291.88 304.286987 291.774634 304.474514 291.587107 
C 304.662041 291.39958 304.767407 291.145203 304.767407 290.88 
C 304.767407 290.614797 304.662041 290.36042 304.474514 290.172893 
C 304.286987 289.985366 304.03261 289.88 303.767407 289.88 
C 303.502204 289.88 303.247827 289.985366 303.0603 290.172893 
C 302.872773 290.36042 302.767407 290.614797 302.767407 290.88 
C 302.767407 291.145203 302.872773 291.39958 303.0603 291.587107 
C 303.247827 291.774634 303.502204 291.88 303.767407 291.88 
z
" clip-path="url(#p8e2af15f99)" style="fill: #add8e6; fill-opacity: 0.5; stroke: #add8e6; stroke-opacity: 0.5"/>
    <path d="M 309.232525 354.74 
C 309.365126 354.74 309.492315 354.687317 309.586078 354.593553 
C 309.679842 354.49979 309.732525 354.372602 309.732525 354.24 
C 309.732525 354.107398 309.679842 353.98021 309.586078 353.886447 
C 309.492315 353.792683 309.365126 353.74 309.232525 353.74 
C 309.099923 353.74 308.972735 353.792683 308.878971 353.886447 
C 308.785208 353.98021 308.732525 354.107398 308.732525 354.24 
C 308.732525 354.372602 308.785208 354.49979 308.878971 354.593553 
C 308.972735 354.687317 309.099923 354.74 309.232525 354.74 
z
" clip-path="url(#p8e2af15f99)" style="fill: #add8e6; fill-opacity: 0.5; stroke: #add8e6; stroke-opacity: 0.5"/>
    <path d="M 338.525555 332.867317 
C 342.939415 332.867317 347.173088 331.113672 350.294158 327.992602 
C 353.415227 324.871532 355.168872 320.637859 355.168872 316.224 
C 355.168872 311.810141 353.415227 307.576468 350.294158 304.455398 
C 347.173088 301.334328 342.939415 299.580683 338.525555 299.580683 
C 334.111696 299.580683 329.878023 301.334328 326.756953 304.455398 
C 323.635883 307.576468 321.882238 311.810141 321.882238 316.224 
C 321.882238 320.637859 323.635883 324.871532 326.756953 327.992602 
C 329.878023 331.113672 334.111696 332.867317 338.525555 332.867317 
z
" clip-path="url(#p8e2af15f99)" style="fill: #add8e6; fill-opacity: 0.5; stroke: #add8e6; stroke-opacity: 0.5"/>
    <path d="M 362.790678 307.217116 
C 363.426612 307.217116 364.036586 306.964456 364.48626 306.514782 
C 364.935934 306.065109 365.188593 305.455135 365.188593 304.8192 
C 365.188593 304.183265 364.935934 303.573291 364.48626 303.123618 
C 364.036586 302.673944 363.426612 302.421284 362.790678 302.421284 
C 362.154743 302.421284 361.544769 302.673944 361.095095 303.123618 
C 360.645421 303.573291 360.392762 304.183265 360.392762 304.8192 
C 360.392762 305.455135 360.645421 306.065109 361.095095 306.514782 
C 361.544769 306.964456 362.154743 307.217116 362.790678 307.217116 
z
" clip-path="url(#p8e2af15f99)" style="fill: #add8e6; fill-opacity: 0.5; stroke: #add8e6; stroke-opacity: 0.5"/>
    <path d="M 369.567424 369.996722 
C 372.065828 369.996722 374.462241 369.004095 376.22888 367.237456 
C 377.995519 365.470817 378.988145 363.074405 378.988145 360.576 
C 378.988145 358.077595 377.995519 355.681183 376.22888 353.914544 
C 374.462241 352.147905 372.065828 351.155278 369.567424 351.155278 
C 367.069019 351.155278 364.672606 352.147905 362.905967 353.914544 
C 361.139328 355.681183 360.146702 358.077595 360.146702 360.576 
C 360.146702 363.074405 361.139328 365.470817 362.905967 367.237456 
C 364.672606 369.004095 367.069019 369.996722 369.567424 369.996722 
z
" clip-path="url(#p8e2af15f99)" style="fill: #add8e6; fill-opacity: 0.5; stroke: #add8e6; stroke-opacity: 0.5"/>
    <path d="M 389.897661 400.555345 
C 392.938837 400.555345 395.855863 399.347073 398.006299 397.196637 
C 400.156734 395.046202 401.365006 392.129175 401.365006 389.088 
C 401.365006 386.046825 400.156734 383.129798 398.006299 380.979363 
C 395.855863 378.828927 392.938837 377.620655 389.897661 377.620655 
C 386.856486 377.620655 383.93946 378.828927 381.789024 380.979363 
C 379.638588 383.129798 378.430316 386.046825 378.430316 389.088 
C 378.430316 392.129175 379.638588 395.046202 381.789024 397.196637 
C 383.93946 399.347073 386.856486 400.555345 389.897661 400.555345 
z
" clip-path="url(#p8e2af15f99)" style="fill: #add8e6; fill-opacity: 0.5; stroke: #add8e6; stroke-opacity: 0.5"/>
    <path d="M 404.106967 317.129378 
C 410.22822 317.129378 416.099586 314.697378 420.427966 310.368999 
C 424.756345 306.040619 427.188345 300.169253 427.188345 294.048 
C 427.188345 287.926747 424.756345 282.055381 420.427966 277.727001 
C 416.099586 273.398622 410.22822 270.966622 404.106967 270.966622 
C 397.985714 270.966622 392.114348 273.398622 387.785968 277.727001 
C 383.457589 282.055381 381.025589 287.926747 381.025589 294.048 
C 381.025589 300.169253 383.457589 306.040619 387.785968 310.368999 
C 392.114348 314.697378 397.985714 317.129378 404.106967 317.129378 
z
" clip-path="url(#p8e2af15f99)" style="fill: #add8e6; fill-opacity: 0.5; stroke: #add8e6; stroke-opacity: 0.5"/>
    <path d="M 416.130226 274.704 
C 417.721444 274.704 419.247705 274.071802 420.372867 272.946641 
C 421.498028 271.821479 422.130226 270.295219 422.130226 268.704 
C 422.130226 267.112781 421.498028 265.586521 420.372867 264.461359 
C 419.247705 263.336198 417.721444 262.704 416.130226 262.704 
C 414.539007 262.704 413.012747 263.336198 411.887585 264.461359 
C 410.762424 265.586521 410.130226 267.112781 410.130226 268.704 
C 410.130226 270.295219 410.762424 271.821479 411.887585 272.946641 
C 413.012747 274.071802 414.539007 274.704 416.130226 274.704 
z
" clip-path="url(#p8e2af15f99)" style="fill: #add8e6; fill-opacity: 0.5; stroke: #add8e6; stroke-opacity: 0.5"/>
    <path d="M 442.581395 324.77909 
C 444.682199 324.77909 446.697242 323.944432 448.182734 322.458939 
C 449.668227 320.973447 450.502885 318.958404 450.502885 316.8576 
C 450.502885 314.756796 449.668227 312.741753 448.182734 311.256261 
C 446.697242 309.770768 444.682199 308.93611 442.581395 308.93611 
C 440.480592 308.93611 438.465549 309.770768 436.980056 311.256261 
C 435.494564 312.741753 434.659906 314.756796 434.659906 316.8576 
C 434.659906 318.958404 435.494564 320.973447 436.980056 322.458939 
C 438.465549 323.944432 440.480592 324.77909 442.581395 324.77909 
z
" clip-path="url(#p8e2af15f99)" style="fill: #add8e6; fill-opacity: 0.5; stroke: #add8e6; stroke-opacity: 0.5"/>
   </g>
   <g id="PathCollection_2">
    <path d="M 458.976748 342.686034 
C 459.273254 342.686034 459.557656 342.568231 459.767318 342.358569 
C 459.976979 342.148908 460.094782 341.864506 460.094782 341.568 
C 460.094782 341.271494 459.976979 340.987092 459.767318 340.777431 
C 459.557656 340.567769 459.273254 340.449966 458.976748 340.449966 
C 458.680242 340.449966 458.39584 340.567769 458.186179 340.777431 
C 457.976517 340.987092 457.858714 341.271494 457.858714 341.568 
C 457.858714 341.864506 457.976517 342.148908 458.186179 342.358569 
C 458.39584 342.568231 458.680242 342.686034 458.976748 342.686034 
z
" clip-path="url(#p8e2af15f99)" style="fill: #f08080; fill-opacity: 0.5; stroke: #ff0000; stroke-opacity: 0.5"/>
    <path d="M 470.344193 278.463265 
C 475.788936 278.463265 481.011409 276.300046 484.861424 272.450031 
C 488.711439 268.600016 490.874658 263.377543 490.874658 257.9328 
C 490.874658 252.488057 488.711439 247.265584 484.861424 243.415569 
C 481.011409 239.565554 475.788936 237.402335 470.344193 237.402335 
C 464.89945 237.402335 459.676977 239.565554 455.826962 243.415569 
C 451.976947 247.265584 449.813728 252.488057 449.813728 257.9328 
C 449.813728 263.377543 451.976947 268.600016 455.826962 272.450031 
C 459.676977 276.300046 464.89945 278.463265 470.344193 278.463265 
z
" clip-path="url(#p8e2af15f99)" style="fill: #f08080; fill-opacity: 0.5; stroke: #ff0000; stroke-opacity: 0.5"/>
    <path d="M 478.213962 305.638902 
C 479.103481 305.638902 479.956686 305.285493 480.585671 304.656508 
C 481.214655 304.027524 481.568064 303.174318 481.568064 302.2848 
C 481.568064 301.395282 481.214655 300.542076 480.585671 299.913092 
C 479.956686 299.284107 479.103481 298.930698 478.213962 298.930698 
C 477.324444 298.930698 476.471238 299.284107 475.842254 299.913092 
C 475.21327 300.542076 474.85986 301.395282 474.85986 302.2848 
C 474.85986 303.174318 475.21327 304.027524 475.842254 304.656508 
C 476.471238 305.285493 477.324444 305.638902 478.213962 305.638902 
z
" clip-path="url(#p8e2af15f99)" style="fill: #f08080; fill-opacity: 0.5; stroke: #ff0000; stroke-opacity: 0.5"/>
    <path d="M 481.055824 253.961379 
C 482.355048 253.961379 483.601235 253.445192 484.519925 252.526502 
C 485.438616 251.607811 485.954803 250.361625 485.954803 249.0624 
C 485.954803 247.763175 485.438616 246.516989 484.519925 245.598298 
C 483.601235 244.679608 482.355048 244.163421 481.055824 244.163421 
C 479.756599 244.163421 478.510412 244.679608 477.591722 245.598298 
C 476.673031 246.516989 476.156844 247.763175 476.156844 249.0624 
C 476.156844 250.361625 476.673031 251.607811 477.591722 252.526502 
C 478.510412 253.445192 479.756599 253.961379 481.055824 253.961379 
z
" clip-path="url(#p8e2af15f99)" style="fill: #f08080; fill-opacity: 0.5; stroke: #ff0000; stroke-opacity: 0.5"/>
    <path d="M 481.930242 291.38 
C 482.062844 291.38 482.190032 291.327317 482.283796 291.233553 
C 482.377559 291.13979 482.430242 291.012602 482.430242 290.88 
C 482.430242 290.747398 482.377559 290.62021 482.283796 290.526447 
C 482.190032 290.432683 482.062844 290.38 481.930242 290.38 
C 481.797641 290.38 481.670452 290.432683 481.576689 290.526447 
C 481.482926 290.62021 481.430242 290.747398 481.430242 290.88 
C 481.430242 291.012602 481.482926 291.13979 481.576689 291.233553 
C 481.670452 291.327317 481.797641 291.38 481.930242 291.38 
z
" clip-path="url(#p8e2af15f99)" style="fill: #f08080; fill-opacity: 0.5; stroke: #ff0000; stroke-opacity: 0.5"/>
    <path d="M 491.767454 322.253264 
C 495.718891 322.253264 499.50902 320.683342 502.303108 317.889254 
C 505.097196 315.095166 506.667119 311.305037 506.667119 307.3536 
C 506.667119 303.402163 505.097196 299.612034 502.303108 296.817946 
C 499.50902 294.023858 495.718891 292.453936 491.767454 292.453936 
C 487.816017 292.453936 484.025888 294.023858 481.2318 296.817946 
C 478.437712 299.612034 476.86779 303.402163 476.86779 307.3536 
C 476.86779 311.305037 478.437712 315.095166 481.2318 317.889254 
C 484.025888 320.683342 487.816017 322.253264 491.767454 322.253264 
z
" clip-path="url(#p8e2af15f99)" style="fill: #f08080; fill-opacity: 0.5; stroke: #ff0000; stroke-opacity: 0.5"/>
    <path d="M 506.195365 270.837225 
C 506.425037 270.837225 506.645334 270.745976 506.807737 270.583572 
C 506.97014 270.421169 507.06139 270.200873 507.06139 269.9712 
C 507.06139 269.741527 506.97014 269.521231 506.807737 269.358828 
C 506.645334 269.196424 506.425037 269.105175 506.195365 269.105175 
C 505.965692 269.105175 505.745395 269.196424 505.582992 269.358828 
C 505.420589 269.521231 505.329339 269.741527 505.329339 269.9712 
C 505.329339 270.200873 505.420589 270.421169 505.582992 270.583572 
C 505.745395 270.745976 505.965692 270.837225 506.195365 270.837225 
z
" clip-path="url(#p8e2af15f99)" style="fill: #f08080; fill-opacity: 0.5; stroke: #ff0000; stroke-opacity: 0.5"/>
    <path d="M 509.911645 228.02 
C 510.044246 228.02 510.171435 227.967317 510.265198 227.873553 
C 510.358962 227.77979 510.411645 227.652602 510.411645 227.52 
C 510.411645 227.387398 510.358962 227.26021 510.265198 227.166447 
C 510.171435 227.072683 510.044246 227.02 509.911645 227.02 
C 509.779043 227.02 509.651855 227.072683 509.558091 227.166447 
C 509.464328 227.26021 509.411645 227.387398 509.411645 227.52 
C 509.411645 227.652602 509.464328 227.77979 509.558091 227.873553 
C 509.651855 227.967317 509.779043 228.02 509.911645 228.02 
z
" clip-path="url(#p8e2af15f99)" style="fill: #f08080; fill-opacity: 0.5; stroke: #ff0000; stroke-opacity: 0.5"/>
    <path d="M 521.934904 317.50631 
C 522.611041 317.50631 523.259577 317.237677 523.737679 316.759576 
C 524.215781 316.281474 524.484413 315.632938 524.484413 314.9568 
C 524.484413 314.280662 524.215781 313.632126 523.737679 313.154024 
C 523.259577 312.675923 522.611041 312.40729 521.934904 312.40729 
C 521.258766 312.40729 520.61023 312.675923 520.132128 313.154024 
C 519.654026 313.632126 519.385394 314.280662 519.385394 314.9568 
C 519.385394 315.632938 519.654026 316.281474 520.132128 316.759576 
C 520.61023 317.237677 521.258766 317.50631 521.934904 317.50631 
z
" clip-path="url(#p8e2af15f99)" style="fill: #f08080; fill-opacity: 0.5; stroke: #ff0000; stroke-opacity: 0.5"/>
    <path d="M 541.390722 306.3192 
C 541.788527 306.3192 542.170092 306.161151 542.451383 305.87986 
C 542.732673 305.59857 542.890722 305.217005 542.890722 304.8192 
C 542.890722 304.421395 542.732673 304.03983 542.451383 303.75854 
C 542.170092 303.477249 541.788527 303.3192 541.390722 303.3192 
C 540.992918 303.3192 540.611353 303.477249 540.330062 303.75854 
C 540.048772 304.03983 539.890722 304.421395 539.890722 304.8192 
C 539.890722 305.217005 540.048772 305.59857 540.330062 305.87986 
C 540.611353 306.161151 540.992918 306.3192 541.390722 306.3192 
z
" clip-path="url(#p8e2af15f99)" style="fill: #f08080; fill-opacity: 0.5; stroke: #ff0000; stroke-opacity: 0.5"/>
    <path d="M 541.827932 237.713276 
C 542.178762 237.713276 542.515271 237.573889 542.763346 237.325814 
C 543.011421 237.07774 543.150807 236.741231 543.150807 236.3904 
C 543.150807 236.039569 543.011421 235.70306 542.763346 235.454986 
C 542.515271 235.206911 542.178762 235.067524 541.827932 235.067524 
C 541.477101 235.067524 541.140592 235.206911 540.892517 235.454986 
C 540.644443 235.70306 540.505056 236.039569 540.505056 236.3904 
C 540.505056 236.741231 540.644443 237.07774 540.892517 237.325814 
C 541.140592 237.573889 541.477101 237.713276 541.827932 237.713276 
z
" clip-path="url(#p8e2af15f99)" style="fill: #f08080; fill-opacity: 0.5; stroke: #ff0000; stroke-opacity: 0.5"/>
    <path d="M 572.213986 293.13931 
C 577.68611 293.13931 582.934846 290.965212 586.804222 287.095836 
C 590.673598 283.226461 592.847696 277.977724 592.847696 272.5056 
C 592.847696 267.033476 590.673598 261.784739 586.804222 257.915364 
C 582.934846 254.045988 577.68611 251.87189 572.213986 251.87189 
C 566.741862 251.87189 561.493125 254.045988 557.623749 257.915364 
C 553.754373 261.784739 551.580276 267.033476 551.580276 272.5056 
C 551.580276 277.977724 553.754373 283.226461 557.623749 287.095836 
C 561.493125 290.965212 566.741862 293.13931 572.213986 293.13931 
z
" clip-path="url(#p8e2af15f99)" style="fill: #f08080; fill-opacity: 0.5; stroke: #ff0000; stroke-opacity: 0.5"/>
    <path d="M 576.58608 290.450056 
C 580.168777 290.450056 583.605218 289.026636 586.138567 286.493287 
C 588.671916 283.959938 590.095336 280.523497 590.095336 276.9408 
C 590.095336 273.358103 588.671916 269.921662 586.138567 267.388313 
C 583.605218 264.854964 580.168777 263.431544 576.58608 263.431544 
C 573.003383 263.431544 569.566942 264.854964 567.033593 267.388313 
C 564.500244 269.921662 563.076824 273.358103 563.076824 276.9408 
C 563.076824 280.523497 564.500244 283.959938 567.033593 286.493287 
C 569.566942 289.026636 573.003383 290.450056 576.58608 290.450056 
z
" clip-path="url(#p8e2af15f99)" style="fill: #f08080; fill-opacity: 0.5; stroke: #ff0000; stroke-opacity: 0.5"/>
    <path d="M 593.637247 305.538151 
C 597.020536 305.538151 600.26571 304.193956 602.658056 301.801609 
C 605.050403 299.409263 606.394598 296.164089 606.394598 292.7808 
C 606.394598 289.397511 605.050403 286.152337 602.658056 283.759991 
C 600.26571 281.367644 597.020536 280.023449 593.637247 280.023449 
C 590.253958 280.023449 587.008784 281.367644 584.616438 283.759991 
C 582.224091 286.152337 580.879896 289.397511 580.879896 292.7808 
C 580.879896 296.164089 582.224091 299.409263 584.616438 301.801609 
C 587.008784 304.193956 590.253958 305.538151 593.637247 305.538151 
z
" clip-path="url(#p8e2af15f99)" style="fill: #f08080; fill-opacity: 0.5; stroke: #ff0000; stroke-opacity: 0.5"/>
    <path d="M 610.0326 298.316248 
C 612.340781 298.316248 614.554736 297.399197 616.186867 295.767067 
C 617.818997 294.134936 618.736048 291.920981 618.736048 289.6128 
C 618.736048 287.304619 617.818997 285.090664 616.186867 283.458533 
C 614.554736 281.826403 612.340781 280.909352 610.0326 280.909352 
C 607.724419 280.909352 605.510464 281.826403 603.878333 283.458533 
C 602.246203 285.090664 601.329152 287.304619 601.329152 289.6128 
C 601.329152 291.920981 602.246203 294.134936 603.878333 295.767067 
C 605.510464 297.399197 607.724419 298.316248 610.0326 298.316248 
z
" clip-path="url(#p8e2af15f99)" style="fill: #f08080; fill-opacity: 0.5; stroke: #ff0000; stroke-opacity: 0.5"/>
    <path d="M 613.74888 313.520851 
C 614.208225 313.520851 614.648819 313.338351 614.973625 313.013545 
C 615.298431 312.688739 615.480931 312.248145 615.480931 311.7888 
C 615.480931 311.329455 615.298431 310.888861 614.973625 310.564055 
C 614.648819 310.239249 614.208225 310.056749 613.74888 310.056749 
C 613.289535 310.056749 612.848941 310.239249 612.524135 310.564055 
C 612.199329 310.888861 612.016829 311.329455 612.016829 311.7888 
C 612.016829 312.248145 612.199329 312.688739 612.524135 313.013545 
C 612.848941 313.338351 613.289535 313.520851 613.74888 313.520851 
z
" clip-path="url(#p8e2af15f99)" style="fill: #f08080; fill-opacity: 0.5; stroke: #ff0000; stroke-opacity: 0.5"/>
    <path d="M 624.023301 302.095608 
C 624.645258 302.095608 625.241824 301.848502 625.681614 301.408712 
C 626.121403 300.968923 626.368509 300.372356 626.368509 299.7504 
C 626.368509 299.128444 626.121403 298.531877 625.681614 298.092088 
C 625.241824 297.652298 624.645258 297.405192 624.023301 297.405192 
C 623.401345 297.405192 622.804778 297.652298 622.364989 298.092088 
C 621.925199 298.531877 621.678093 299.128444 621.678093 299.7504 
C 621.678093 300.372356 621.925199 300.968923 622.364989 301.408712 
C 622.804778 301.848502 623.401345 302.095608 624.023301 302.095608 
z
" clip-path="url(#p8e2af15f99)" style="fill: #f08080; fill-opacity: 0.5; stroke: #ff0000; stroke-opacity: 0.5"/>
    <path d="M 660.093078 301.192102 
C 662.323781 301.192102 664.463421 300.305834 666.040766 298.728489 
C 667.618112 297.151143 668.50438 295.011503 668.50438 292.7808 
C 668.50438 290.550097 667.618112 288.410457 666.040766 286.833111 
C 664.463421 285.255766 662.323781 284.369498 660.093078 284.369498 
C 657.862374 284.369498 655.722734 285.255766 654.145389 286.833111 
C 652.568044 288.410457 651.681776 290.550097 651.681776 292.7808 
C 651.681776 295.011503 652.568044 297.151143 654.145389 298.728489 
C 655.722734 300.305834 657.862374 301.192102 660.093078 301.192102 
z
" clip-path="url(#p8e2af15f99)" style="fill: #f08080; fill-opacity: 0.5; stroke: #ff0000; stroke-opacity: 0.5"/>
    <path d="M 721.521 302.304929 
C 729.423874 302.304929 737.004131 299.165084 742.592308 293.576908 
C 748.180484 287.988731 751.320329 280.408474 751.320329 272.5056 
C 751.320329 264.602726 748.180484 257.022469 742.592308 251.434292 
C 737.004131 245.846116 729.423874 242.706271 721.521 242.706271 
C 713.618126 242.706271 706.037869 245.846116 700.449692 251.434292 
C 694.861516 257.022469 691.721671 264.602726 691.721671 272.5056 
C 691.721671 280.408474 694.861516 287.988731 700.449692 293.576908 
C 706.037869 299.165084 713.618126 302.304929 721.521 302.304929 
z
" clip-path="url(#p8e2af15f99)" style="fill: #f08080; fill-opacity: 0.5; stroke: #ff0000; stroke-opacity: 0.5"/>
   </g>
   <g id="matplotlib.axis_1">
    <g id="xtick_1">
     <g id="line2d_1">
      <defs>
       <path id="m51fd986563" d="M 0 0 
L 0 3.5 
" style="stroke: #000000; stroke-width: 0.8"/>
      </defs>
      <g>
       <use xlink:href="#m51fd986563" x="147.388235" y="512.64" style="stroke: #000000; stroke-width: 0.8"/>
      </g>
     </g>
     <g id="text_1">
      <!-- −1500 -->
      <g transform="translate(113.558548 534.836875) scale(0.2 -0.2)">
       <defs>
        <path id="DejaVuSans-2212" d="M 678 2272 
L 4684 2272 
L 4684 1741 
L 678 1741 
L 678 2272 
z
" transform="scale(0.015625)"/>
        <path id="DejaVuSans-31" d="M 794 531 
L 1825 531 
L 1825 4091 
L 703 3866 
L 703 4441 
L 1819 4666 
L 2450 4666 
L 2450 531 
L 3481 531 
L 3481 0 
L 794 0 
L 794 531 
z
" transform="scale(0.015625)"/>
        <path id="DejaVuSans-35" d="M 691 4666 
L 3169 4666 
L 3169 4134 
L 1269 4134 
L 1269 2991 
Q 1406 3038 1543 3061 
Q 1681 3084 1819 3084 
Q 2600 3084 3056 2656 
Q 3513 2228 3513 1497 
Q 3513 744 3044 326 
Q 2575 -91 1722 -91 
Q 1428 -91 1123 -41 
Q 819 9 494 109 
L 494 744 
Q 775 591 1075 516 
Q 1375 441 1709 441 
Q 2250 441 2565 725 
Q 2881 1009 2881 1497 
Q 2881 1984 2565 2268 
Q 2250 2553 1709 2553 
Q 1456 2553 1204 2497 
Q 953 2441 691 2322 
L 691 4666 
z
" transform="scale(0.015625)"/>
        <path id="DejaVuSans-30" d="M 2034 4250 
Q 1547 4250 1301 3770 
Q 1056 3291 1056 2328 
Q 1056 1369 1301 889 
Q 1547 409 2034 409 
Q 2525 409 2770 889 
Q 3016 1369 3016 2328 
Q 3016 3291 2770 3770 
Q 2525 4250 2034 4250 
z
M 2034 4750 
Q 2819 4750 3233 4129 
Q 3647 3509 3647 2328 
Q 3647 1150 3233 529 
Q 2819 -91 2034 -91 
Q 1250 -91 836 529 
Q 422 1150 422 2328 
Q 422 3509 836 4129 
Q 1250 4750 2034 4750 
z
" transform="scale(0.015625)"/>
       </defs>
       <use xlink:href="#DejaVuSans-2212"/>
       <use xlink:href="#DejaVuSans-31" x="83.789062"/>
       <use xlink:href="#DejaVuSans-35" x="147.412109"/>
       <use xlink:href="#DejaVuSans-30" x="211.035156"/>
       <use xlink:href="#DejaVuSans-30" x="274.658203"/>
      </g>
     </g>
    </g>
    <g id="xtick_2">
     <g id="line2d_2">
      <g>
       <use xlink:href="#m51fd986563" x="245.858824" y="512.64" style="stroke: #000000; stroke-width: 0.8"/>
      </g>
     </g>
     <g id="text_2">
      <!-- −1000 -->
      <g transform="translate(212.029136 534.836875) scale(0.2 -0.2)">
       <use xlink:href="#DejaVuSans-2212"/>
       <use xlink:href="#DejaVuSans-31" x="83.789062"/>
       <use xlink:href="#DejaVuSans-30" x="147.412109"/>
       <use xlink:href="#DejaVuSans-30" x="211.035156"/>
       <use xlink:href="#DejaVuSans-30" x="274.658203"/>
      </g>
     </g>
    </g>
    <g id="xtick_3">
     <g id="line2d_3">
      <g>
       <use xlink:href="#m51fd986563" x="344.329412" y="512.64" style="stroke: #000000; stroke-width: 0.8"/>
      </g>
     </g>
     <g id="text_3">
      <!-- −500 -->
      <g transform="translate(316.862224 534.836875) scale(0.2 -0.2)">
       <use xlink:href="#DejaVuSans-2212"/>
       <use xlink:href="#DejaVuSans-35" x="83.789062"/>
       <use xlink:href="#DejaVuSans-30" x="147.412109"/>
       <use xlink:href="#DejaVuSans-30" x="211.035156"/>
      </g>
     </g>
    </g>
    <g id="xtick_4">
     <g id="line2d_4">
      <g>
       <use xlink:href="#m51fd986563" x="442.8" y="512.64" style="stroke: #000000; stroke-width: 0.8"/>
      </g>
     </g>
     <g id="text_4">
      <!-- 0 -->
      <g transform="translate(436.4375 534.836875) scale(0.2 -0.2)">
       <use xlink:href="#DejaVuSans-30"/>
      </g>
     </g>
    </g>
    <g id="xtick_5">
     <g id="line2d_5">
      <g>
       <use xlink:href="#m51fd986563" x="541.270588" y="512.64" style="stroke: #000000; stroke-width: 0.8"/>
      </g>
     </g>
     <g id="text_5">
      <!-- 500 -->
      <g transform="translate(522.183088 534.836875) scale(0.2 -0.2)">
       <use xlink:href="#DejaVuSans-35"/>
       <use xlink:href="#DejaVuSans-30" x="63.623047"/>
       <use xlink:href="#DejaVuSans-30" x="127.246094"/>
      </g>
     </g>
    </g>
    <g id="xtick_6">
     <g id="line2d_6">
      <g>
       <use xlink:href="#m51fd986563" x="639.741176" y="512.64" style="stroke: #000000; stroke-width: 0.8"/>
      </g>
     </g>
     <g id="text_6">
      <!-- 1000 -->
      <g transform="translate(614.291176 534.836875) scale(0.2 -0.2)">
       <use xlink:href="#DejaVuSans-31"/>
       <use xlink:href="#DejaVuSans-30" x="63.623047"/>
       <use xlink:href="#DejaVuSans-30" x="127.246094"/>
       <use xlink:href="#DejaVuSans-30" x="190.869141"/>
      </g>
     </g>
    </g>
    <g id="xtick_7">
     <g id="line2d_7">
      <g>
       <use xlink:href="#m51fd986563" x="738.211765" y="512.64" style="stroke: #000000; stroke-width: 0.8"/>
      </g>
     </g>
     <g id="text_7">
      <!-- 1500 -->
      <g transform="translate(712.761765 534.836875) scale(0.2 -0.2)">
       <use xlink:href="#DejaVuSans-31"/>
       <use xlink:href="#DejaVuSans-35" x="63.623047"/>
       <use xlink:href="#DejaVuSans-30" x="127.246094"/>
       <use xlink:href="#DejaVuSans-30" x="190.869141"/>
      </g>
     </g>
    </g>
   </g>
   <g id="matplotlib.axis_2">
    <g id="ytick_1">
     <g id="line2d_8">
      <defs>
       <path id="m35d0267f1e" d="M 0 0 
L -3.5 0 
" style="stroke: #000000; stroke-width: 0.8"/>
      </defs>
      <g>
       <use xlink:href="#m35d0267f1e" x="108" y="480.96" style="stroke: #000000; stroke-width: 0.8"/>
      </g>
     </g>
     <g id="text_8">
      <!-- −3 -->
      <g transform="translate(71.515625 488.558437) scale(0.2 -0.2)">
       <defs>
        <path id="DejaVuSans-33" d="M 2597 2516 
Q 3050 2419 3304 2112 
Q 3559 1806 3559 1356 
Q 3559 666 3084 287 
Q 2609 -91 1734 -91 
Q 1441 -91 1130 -33 
Q 819 25 488 141 
L 488 750 
Q 750 597 1062 519 
Q 1375 441 1716 441 
Q 2309 441 2620 675 
Q 2931 909 2931 1356 
Q 2931 1769 2642 2001 
Q 2353 2234 1838 2234 
L 1294 2234 
L 1294 2753 
L 1863 2753 
Q 2328 2753 2575 2939 
Q 2822 3125 2822 3475 
Q 2822 3834 2567 4026 
Q 2313 4219 1838 4219 
Q 1578 4219 1281 4162 
Q 984 4106 628 3988 
L 628 4550 
Q 988 4650 1302 4700 
Q 1616 4750 1894 4750 
Q 2613 4750 3031 4423 
Q 3450 4097 3450 3541 
Q 3450 3153 3228 2886 
Q 3006 2619 2597 2516 
z
" transform="scale(0.015625)"/>
       </defs>
       <use xlink:href="#DejaVuSans-2212"/>
       <use xlink:href="#DejaVuSans-33" x="83.789062"/>
      </g>
     </g>
    </g>
    <g id="ytick_2">
     <g id="line2d_9">
      <g>
       <use xlink:href="#m35d0267f1e" x="108" y="417.6" style="stroke: #000000; stroke-width: 0.8"/>
      </g>
     </g>
     <g id="text_9">
      <!-- −2 -->
      <g transform="translate(71.515625 425.198437) scale(0.2 -0.2)">
       <defs>
        <path id="DejaVuSans-32" d="M 1228 531 
L 3431 531 
L 3431 0 
L 469 0 
L 469 531 
Q 828 903 1448 1529 
Q 2069 2156 2228 2338 
Q 2531 2678 2651 2914 
Q 2772 3150 2772 3378 
Q 2772 3750 2511 3984 
Q 2250 4219 1831 4219 
Q 1534 4219 1204 4116 
Q 875 4013 500 3803 
L 500 4441 
Q 881 4594 1212 4672 
Q 1544 4750 1819 4750 
Q 2544 4750 2975 4387 
Q 3406 4025 3406 3419 
Q 3406 3131 3298 2873 
Q 3191 2616 2906 2266 
Q 2828 2175 2409 1742 
Q 1991 1309 1228 531 
z
" transform="scale(0.015625)"/>
       </defs>
       <use xlink:href="#DejaVuSans-2212"/>
       <use xlink:href="#DejaVuSans-32" x="83.789062"/>
      </g>
     </g>
    </g>
    <g id="ytick_3">
     <g id="line2d_10">
      <g>
       <use xlink:href="#m35d0267f1e" x="108" y="354.24" style="stroke: #000000; stroke-width: 0.8"/>
      </g>
     </g>
     <g id="text_10">
      <!-- −1 -->
      <g transform="translate(71.515625 361.838437) scale(0.2 -0.2)">
       <use xlink:href="#DejaVuSans-2212"/>
       <use xlink:href="#DejaVuSans-31" x="83.789062"/>
      </g>
     </g>
    </g>
    <g id="ytick_4">
     <g id="line2d_11">
      <g>
       <use xlink:href="#m35d0267f1e" x="108" y="290.88" style="stroke: #000000; stroke-width: 0.8"/>
      </g>
     </g>
     <g id="text_11">
      <!-- 0 -->
      <g transform="translate(88.275 298.478437) scale(0.2 -0.2)">
       <use xlink:href="#DejaVuSans-30"/>
      </g>
     </g>
    </g>
    <g id="ytick_5">
     <g id="line2d_12">
      <g>
       <use xlink:href="#m35d0267f1e" x="108" y="227.52" style="stroke: #000000; stroke-width: 0.8"/>
      </g>
     </g>
     <g id="text_12">
      <!-- 1 -->
      <g transform="translate(88.275 235.118437) scale(0.2 -0.2)">
       <use xlink:href="#DejaVuSans-31"/>
      </g>
     </g>
    </g>
    <g id="ytick_6">
     <g id="line2d_13">
      <g>
       <use xlink:href="#m35d0267f1e" x="108" y="164.16" style="stroke: #000000; stroke-width: 0.8"/>
      </g>
     </g>
     <g id="text_13">
      <!-- 2 -->
      <g transform="translate(88.275 171.758438) scale(0.2 -0.2)">
       <use xlink:href="#DejaVuSans-32"/>
      </g>
     </g>
    </g>
    <g id="ytick_7">
     <g id="line2d_14">
      <g>
       <use xlink:href="#m35d0267f1e" x="108" y="100.8" style="stroke: #000000; stroke-width: 0.8"/>
      </g>
     </g>
     <g id="text_14">
      <!-- 3 -->
      <g transform="translate(88.275 108.398438) scale(0.2 -0.2)">
       <use xlink:href="#DejaVuSans-33"/>
      </g>
     </g>
    </g>
   </g>
   <g id="line2d_15">
    <path d="M 120.358059 295.984113 
L 143.248031 299.022469 
L 166.138002 301.837197 
L 189.027974 304.428296 
L 211.917946 306.795766 
L 234.807917 308.939607 
L 257.697889 310.859819 
L 280.587861 312.556402 
L 303.477832 314.029357 
L 326.367804 315.278683 
L 349.257776 316.304379 
L 372.147748 317.106447 
L 395.037719 317.684886 
L 417.927691 318.039697 
L 440.817663 318.170878 
L 442.022398 318.171587 
L 442.022398 318.171587 
" clip-path="url(#p8e2af15f99)" style="fill: none; stroke: #0000ff; stroke-width: 1.5; stroke-linecap: square"/>
   </g>
   <g id="line2d_16">
    <path d="M 443.227133 277.38752 
L 497.440224 277.274611 
L 551.653315 276.939386 
L 605.866406 276.381845 
L 660.079497 275.601989 
L 714.292588 274.599818 
L 721.521 274.449398 
L 721.521 274.449398 
" clip-path="url(#p8e2af15f99)" style="fill: none; stroke: #ff0000; stroke-width: 1.5; stroke-linecap: square"/>
   </g>
   <g id="line2d_17">
    <path d="M 442.8 512.64 
L 442.8 69.12 
" clip-path="url(#p8e2af15f99)" style="fill: none; stroke-dasharray: 10,10; stroke-dashoffset: 0; stroke: #000000; stroke-width: 2"/>
   </g>
   <g id="patch_3">
    <path d="M 108 512.64 
L 108 69.12 
" style="fill: none; stroke: #000000; stroke-width: 0.8; stroke-linejoin: miter; stroke-linecap: square"/>
   </g>
   <g id="patch_4">
    <path d="M 777.6 512.64 
L 777.6 69.12 
" style="fill: none; stroke: #000000; stroke-width: 0.8; stroke-linejoin: miter; stroke-linecap: square"/>
   </g>
   <g id="patch_5">
    <path d="M 108 512.64 
L 777.6 512.64 
" style="fill: none; stroke: #000000; stroke-width: 0.8; stroke-linejoin: miter; stroke-linecap: square"/>
   </g>
   <g id="patch_6">
    <path d="M 108 69.12 
L 777.6 69.12 
" style="fill: none; stroke: #000000; stroke-width: 0.8; stroke-linejoin: miter; stroke-linecap: square"/>
   </g>
  </g>
 </g>
 <defs>
  <clipPath id="p8e2af15f99">
   <rect x="108" y="69.12" width="669.6" height="443.52"/>
  </clipPath>
 </defs>
</svg>
