<?xml version="1.0" encoding="utf-8" standalone="no"?>
<!DOCTYPE svg PUBLIC "-//W3C//DTD SVG 1.1//EN"
  "http://www.w3.org/Graphics/SVG/1.1/DTD/svg11.dtd">
<svg xmlns:xlink="http://www.w3.org/1999/xlink" width="864pt" height="576pt" viewBox="0 0 864 576" xmlns="http://www.w3.org/2000/svg" version="1.1">
 <metadata>
  <rdf:RDF xmlns:dc="http://purl.org/dc/elements/1.1/" xmlns:cc="http://creativecommons.org/ns#" xmlns:rdf="http://www.w3.org/1999/02/22-rdf-syntax-ns#">
   <cc:Work>
    <dc:type rdf:resource="http://purl.org/dc/dcmitype/StillImage"/>
    <dc:date>2025-02-07T22:19:37.841717</dc:date>
    <dc:format>image/svg+xml</dc:format>
    <dc:creator>
     <cc:Agent>
      <dc:title>Matplotlib v3.9.4, https://matplotlib.org/</dc:title>
     </cc:Agent>
    </dc:creator>
   </cc:Work>
  </rdf:RDF>
 </metadata>
 <defs>
  <style type="text/css">*{stroke-linejoin: round; stroke-linecap: butt}</style>
 </defs>
 <g id="figure_1">
  <g id="patch_1">
   <path d="M 0 576 
L 864 576 
L 864 0 
L 0 0 
z
" style="fill: #ffffff"/>
  </g>
  <g id="axes_1">
   <g id="patch_2">
    <path d="M 108 512.64 
L 777.6 512.64 
L 777.6 69.12 
L 108 69.12 
z
" style="fill: #ffffff"/>
   </g>
   <g id="PathCollection_1">
    <path d="M 120.358059 101.284434 
C 120.654565 101.284434 120.938967 101.166631 121.148628 100.956969 
C 121.35829 100.747308 121.476093 100.462906 121.476093 100.1664 
C 121.476093 99.869894 121.35829 99.585492 121.148628 99.375831 
C 120.938967 99.166169 120.654565 99.048366 120.358059 99.048366 
C 120.061553 99.048366 119.777151 99.166169 119.567489 99.375831 
C 119.357828 99.585492 119.240025 99.869894 119.240025 100.1664 
C 119.240025 100.462906 119.357828 100.747308 119.567489 100.956969 
C 119.777151 101.166631 120.061553 101.284434 120.358059 101.284434 
z
" clip-path="url(#p88a33e1263)" style="fill: #add8e6; fill-opacity: 0.5; stroke: #add8e6; stroke-opacity: 0.5"/>
    <path d="M 227.037155 143.674053 
C 231.22409 143.674053 235.240102 142.010567 238.200712 139.049957 
C 241.161322 136.089347 242.824809 132.073335 242.824809 127.8864 
C 242.824809 123.699465 241.161322 119.683453 238.200712 116.722843 
C 235.240102 113.762233 231.22409 112.098747 227.037155 112.098747 
C 222.850221 112.098747 218.834208 113.762233 215.873599 116.722843 
C 212.912989 119.683453 211.249502 123.699465 211.249502 127.8864 
C 211.249502 132.073335 212.912989 136.089347 215.873599 139.049957 
C 218.834208 142.010567 222.850221 143.674053 227.037155 143.674053 
z
" clip-path="url(#p88a33e1263)" style="fill: #add8e6; fill-opacity: 0.5; stroke: #add8e6; stroke-opacity: 0.5"/>
    <path d="M 265.074374 422.479374 
C 267.775673 422.479374 270.366697 421.406137 272.276804 419.49603 
C 274.186911 417.585923 275.260149 414.994899 275.260149 412.2936 
C 275.260149 409.592301 274.186911 407.001277 272.276804 405.09117 
C 270.366697 403.181063 267.775673 402.107826 265.074374 402.107826 
C 262.373075 402.107826 259.782051 403.181063 257.871944 405.09117 
C 255.961837 407.001277 254.8886 409.592301 254.8886 412.2936 
C 254.8886 414.994899 255.961837 417.585923 257.871944 419.49603 
C 259.782051 421.406137 262.373075 422.479374 265.074374 422.479374 
z
" clip-path="url(#p88a33e1263)" style="fill: #add8e6; fill-opacity: 0.5; stroke: #add8e6; stroke-opacity: 0.5"/>
    <path d="M 291.525544 289.430876 
C 291.876374 289.430876 292.212883 289.291489 292.460958 289.043414 
C 292.709033 288.79534 292.848419 288.458831 292.848419 288.108 
C 292.848419 287.757169 292.709033 287.42066 292.460958 287.172586 
C 292.212883 286.924511 291.876374 286.785124 291.525544 286.785124 
C 291.174713 286.785124 290.838204 286.924511 290.590129 287.172586 
C 290.342054 287.42066 290.202668 287.757169 290.202668 288.108 
C 290.202668 288.458831 290.342054 288.79534 290.590129 289.043414 
C 290.838204 289.291489 291.174713 289.430876 291.525544 289.430876 
z
" clip-path="url(#p88a33e1263)" style="fill: #add8e6; fill-opacity: 0.5; stroke: #add8e6; stroke-opacity: 0.5"/>
    <path d="M 291.962753 155.759107 
C 292.15028 155.759107 292.330151 155.684602 292.462753 155.552 
C 292.595354 155.419398 292.66986 155.239527 292.66986 155.052 
C 292.66986 154.864473 292.595354 154.684602 292.462753 154.552 
C 292.330151 154.419398 292.15028 154.344893 291.962753 154.344893 
C 291.775226 154.344893 291.595354 154.419398 291.462753 154.552 
C 291.330151 154.684602 291.255646 154.864473 291.255646 155.052 
C 291.255646 155.239527 291.330151 155.419398 291.462753 155.552 
C 291.595354 155.684602 291.775226 155.759107 291.962753 155.759107 
z
" clip-path="url(#p88a33e1263)" style="fill: #add8e6; fill-opacity: 0.5; stroke: #add8e6; stroke-opacity: 0.5"/>
    <path d="M 303.767407 294.652 
C 304.03261 294.652 304.286987 294.546634 304.474514 294.359107 
C 304.662041 294.17158 304.767407 293.917203 304.767407 293.652 
C 304.767407 293.386797 304.662041 293.13242 304.474514 292.944893 
C 304.286987 292.757366 304.03261 292.652 303.767407 292.652 
C 303.502204 292.652 303.247827 292.757366 303.0603 292.944893 
C 302.872773 293.13242 302.767407 293.386797 302.767407 293.652 
C 302.767407 293.917203 302.872773 294.17158 303.0603 294.359107 
C 303.247827 294.546634 303.502204 294.652 303.767407 294.652 
z
" clip-path="url(#p88a33e1263)" style="fill: #add8e6; fill-opacity: 0.5; stroke: #add8e6; stroke-opacity: 0.5"/>
    <path d="M 309.232525 321.872 
C 309.365126 321.872 309.492315 321.819317 309.586078 321.725553 
C 309.679842 321.63179 309.732525 321.504602 309.732525 321.372 
C 309.732525 321.239398 309.679842 321.11221 309.586078 321.018447 
C 309.492315 320.924683 309.365126 320.872 309.232525 320.872 
C 309.099923 320.872 308.972735 320.924683 308.878971 321.018447 
C 308.785208 321.11221 308.732525 321.239398 308.732525 321.372 
C 308.732525 321.504602 308.785208 321.63179 308.878971 321.725553 
C 308.972735 321.819317 309.099923 321.872 309.232525 321.872 
z
" clip-path="url(#p88a33e1263)" style="fill: #add8e6; fill-opacity: 0.5; stroke: #add8e6; stroke-opacity: 0.5"/>
    <path d="M 338.525555 323.878117 
C 342.939415 323.878117 347.173088 322.124472 350.294158 319.003402 
C 353.415227 315.882332 355.168872 311.648659 355.168872 307.2348 
C 355.168872 302.820941 353.415227 298.587268 350.294158 295.466198 
C 347.173088 292.345128 342.939415 290.591483 338.525555 290.591483 
C 334.111696 290.591483 329.878023 292.345128 326.756953 295.466198 
C 323.635883 298.587268 321.882238 302.820941 321.882238 307.2348 
C 321.882238 311.648659 323.635883 315.882332 326.756953 319.003402 
C 329.878023 322.124472 334.111696 323.878117 338.525555 323.878117 
z
" clip-path="url(#p88a33e1263)" style="fill: #add8e6; fill-opacity: 0.5; stroke: #add8e6; stroke-opacity: 0.5"/>
    <path d="M 362.790678 486.486316 
C 363.426612 486.486316 364.036586 486.233656 364.48626 485.783982 
C 364.935934 485.334309 365.188593 484.724335 365.188593 484.0884 
C 365.188593 483.452465 364.935934 482.842491 364.48626 482.392818 
C 364.036586 481.943144 363.426612 481.690484 362.790678 481.690484 
C 362.154743 481.690484 361.544769 481.943144 361.095095 482.392818 
C 360.645421 482.842491 360.392762 483.452465 360.392762 484.0884 
C 360.392762 484.724335 360.645421 485.334309 361.095095 485.783982 
C 361.544769 486.233656 362.154743 486.486316 362.790678 486.486316 
z
" clip-path="url(#p88a33e1263)" style="fill: #add8e6; fill-opacity: 0.5; stroke: #add8e6; stroke-opacity: 0.5"/>
    <path d="M 369.567424 504.319922 
C 372.065828 504.319922 374.462241 503.327295 376.22888 501.560656 
C 377.995519 499.794017 378.988145 497.397605 378.988145 494.8992 
C 378.988145 492.400795 377.995519 490.004383 376.22888 488.237744 
C 374.462241 486.471105 372.065828 485.478478 369.567424 485.478478 
C 367.069019 485.478478 364.672606 486.471105 362.905967 488.237744 
C 361.139328 490.004383 360.146702 492.400795 360.146702 494.8992 
C 360.146702 497.397605 361.139328 499.794017 362.905967 501.560656 
C 364.672606 503.327295 367.069019 504.319922 369.567424 504.319922 
z
" clip-path="url(#p88a33e1263)" style="fill: #add8e6; fill-opacity: 0.5; stroke: #add8e6; stroke-opacity: 0.5"/>
    <path d="M 389.897661 443.442145 
C 392.938837 443.442145 395.855863 442.233873 398.006299 440.083437 
C 400.156734 437.933002 401.365006 435.015975 401.365006 431.9748 
C 401.365006 428.933625 400.156734 426.016598 398.006299 423.866163 
C 395.855863 421.715727 392.938837 420.507455 389.897661 420.507455 
C 386.856486 420.507455 383.93946 421.715727 381.789024 423.866163 
C 379.638588 426.016598 378.430316 428.933625 378.430316 431.9748 
C 378.430316 435.015975 379.638588 437.933002 381.789024 440.083437 
C 383.93946 442.233873 386.856486 443.442145 389.897661 443.442145 
z
" clip-path="url(#p88a33e1263)" style="fill: #add8e6; fill-opacity: 0.5; stroke: #add8e6; stroke-opacity: 0.5"/>
    <path d="M 404.106967 235.236578 
C 410.22822 235.236578 416.099586 232.804578 420.427966 228.476199 
C 424.756345 224.147819 427.188345 218.276453 427.188345 212.1552 
C 427.188345 206.033947 424.756345 200.162581 420.427966 195.834201 
C 416.099586 191.505822 410.22822 189.073822 404.106967 189.073822 
C 397.985714 189.073822 392.114348 191.505822 387.785968 195.834201 
C 383.457589 200.162581 381.025589 206.033947 381.025589 212.1552 
C 381.025589 218.276453 383.457589 224.147819 387.785968 228.476199 
C 392.114348 232.804578 397.985714 235.236578 404.106967 235.236578 
z
" clip-path="url(#p88a33e1263)" style="fill: #add8e6; fill-opacity: 0.5; stroke: #add8e6; stroke-opacity: 0.5"/>
    <path d="M 416.130226 227.3028 
C 417.721444 227.3028 419.247705 226.670602 420.372867 225.545441 
C 421.498028 224.420279 422.130226 222.894019 422.130226 221.3028 
C 422.130226 219.711581 421.498028 218.185321 420.372867 217.060159 
C 419.247705 215.934998 417.721444 215.3028 416.130226 215.3028 
C 414.539007 215.3028 413.012747 215.934998 411.887585 217.060159 
C 410.762424 218.185321 410.130226 219.711581 410.130226 221.3028 
C 410.130226 222.894019 410.762424 224.420279 411.887585 225.545441 
C 413.012747 226.670602 414.539007 227.3028 416.130226 227.3028 
z
" clip-path="url(#p88a33e1263)" style="fill: #add8e6; fill-opacity: 0.5; stroke: #add8e6; stroke-opacity: 0.5"/>
    <path d="M 442.581395 459.02309 
C 444.682199 459.02309 446.697242 458.188432 448.182734 456.702939 
C 449.668227 455.217447 450.502885 453.202404 450.502885 451.1016 
C 450.502885 449.000796 449.668227 446.985753 448.182734 445.500261 
C 446.697242 444.014768 444.682199 443.18011 442.581395 443.18011 
C 440.480592 443.18011 438.465549 444.014768 436.980056 445.500261 
C 435.494564 446.985753 434.659906 449.000796 434.659906 451.1016 
C 434.659906 453.202404 435.494564 455.217447 436.980056 456.702939 
C 438.465549 458.188432 440.480592 459.02309 442.581395 459.02309 
z
" clip-path="url(#p88a33e1263)" style="fill: #add8e6; fill-opacity: 0.5; stroke: #add8e6; stroke-opacity: 0.5"/>
   </g>
   <g id="PathCollection_2">
    <path d="M 458.976748 304.194834 
C 459.273254 304.194834 459.557656 304.077031 459.767318 303.867369 
C 459.976979 303.657708 460.094782 303.373306 460.094782 303.0768 
C 460.094782 302.780294 459.976979 302.495892 459.767318 302.286231 
C 459.557656 302.076569 459.273254 301.958766 458.976748 301.958766 
C 458.680242 301.958766 458.39584 302.076569 458.186179 302.286231 
C 457.976517 302.495892 457.858714 302.780294 457.858714 303.0768 
C 457.858714 303.373306 457.976517 303.657708 458.186179 303.867369 
C 458.39584 304.077031 458.680242 304.194834 458.976748 304.194834 
z
" clip-path="url(#p88a33e1263)" style="fill: #f08080; fill-opacity: 0.5; stroke: #ff0000; stroke-opacity: 0.5"/>
    <path d="M 470.344193 171.701665 
C 475.788936 171.701665 481.011409 169.538446 484.861424 165.688431 
C 488.711439 161.838416 490.874658 156.615943 490.874658 151.1712 
C 490.874658 145.726457 488.711439 140.503984 484.861424 136.653969 
C 481.011409 132.803954 475.788936 130.640735 470.344193 130.640735 
C 464.89945 130.640735 459.676977 132.803954 455.826962 136.653969 
C 451.976947 140.503984 449.813728 145.726457 449.813728 151.1712 
C 449.813728 156.615943 451.976947 161.838416 455.826962 165.688431 
C 459.676977 169.538446 464.89945 171.701665 470.344193 171.701665 
z
" clip-path="url(#p88a33e1263)" style="fill: #f08080; fill-opacity: 0.5; stroke: #ff0000; stroke-opacity: 0.5"/>
    <path d="M 478.213962 265.405302 
C 479.103481 265.405302 479.956686 265.051893 480.585671 264.422908 
C 481.214655 263.793924 481.568064 262.940718 481.568064 262.0512 
C 481.568064 261.161682 481.214655 260.308476 480.585671 259.679492 
C 479.956686 259.050507 479.103481 258.697098 478.213962 258.697098 
C 477.324444 258.697098 476.471238 259.050507 475.842254 259.679492 
C 475.21327 260.308476 474.85986 261.161682 474.85986 262.0512 
C 474.85986 262.940718 475.21327 263.793924 475.842254 264.422908 
C 476.471238 265.051893 477.324444 265.405302 478.213962 265.405302 
z
" clip-path="url(#p88a33e1263)" style="fill: #f08080; fill-opacity: 0.5; stroke: #ff0000; stroke-opacity: 0.5"/>
    <path d="M 481.055824 176.582979 
C 482.355048 176.582979 483.601235 176.066792 484.519925 175.148102 
C 485.438616 174.229411 485.954803 172.983225 485.954803 171.684 
C 485.954803 170.384775 485.438616 169.138589 484.519925 168.219898 
C 483.601235 167.301208 482.355048 166.785021 481.055824 166.785021 
C 479.756599 166.785021 478.510412 167.301208 477.591722 168.219898 
C 476.673031 169.138589 476.156844 170.384775 476.156844 171.684 
C 476.156844 172.983225 476.673031 174.229411 477.591722 175.148102 
C 478.510412 176.066792 479.756599 176.582979 481.055824 176.582979 
z
" clip-path="url(#p88a33e1263)" style="fill: #f08080; fill-opacity: 0.5; stroke: #ff0000; stroke-opacity: 0.5"/>
    <path d="M 481.930242 429.98 
C 482.062844 429.98 482.190032 429.927317 482.283796 429.833553 
C 482.377559 429.73979 482.430242 429.612602 482.430242 429.48 
C 482.430242 429.347398 482.377559 429.22021 482.283796 429.126447 
C 482.190032 429.032683 482.062844 428.98 481.930242 428.98 
C 481.797641 428.98 481.670452 429.032683 481.576689 429.126447 
C 481.482926 429.22021 481.430242 429.347398 481.430242 429.48 
C 481.430242 429.612602 481.482926 429.73979 481.576689 429.833553 
C 481.670452 429.927317 481.797641 429.98 481.930242 429.98 
z
" clip-path="url(#p88a33e1263)" style="fill: #f08080; fill-opacity: 0.5; stroke: #ff0000; stroke-opacity: 0.5"/>
    <path d="M 491.767454 339.043664 
C 495.718891 339.043664 499.50902 337.473742 502.303108 334.679654 
C 505.097196 331.885566 506.667119 328.095437 506.667119 324.144 
C 506.667119 320.192563 505.097196 316.402434 502.303108 313.608346 
C 499.50902 310.814258 495.718891 309.244336 491.767454 309.244336 
C 487.816017 309.244336 484.025888 310.814258 481.2318 313.608346 
C 478.437712 316.402434 476.86779 320.192563 476.86779 324.144 
C 476.86779 328.095437 478.437712 331.885566 481.2318 334.679654 
C 484.025888 337.473742 487.816017 339.043664 491.767454 339.043664 
z
" clip-path="url(#p88a33e1263)" style="fill: #f08080; fill-opacity: 0.5; stroke: #ff0000; stroke-opacity: 0.5"/>
    <path d="M 506.195365 157.858425 
C 506.425037 157.858425 506.645334 157.767176 506.807737 157.604772 
C 506.97014 157.442369 507.06139 157.222073 507.06139 156.9924 
C 507.06139 156.762727 506.97014 156.542431 506.807737 156.380028 
C 506.645334 156.217624 506.425037 156.126375 506.195365 156.126375 
C 505.965692 156.126375 505.745395 156.217624 505.582992 156.380028 
C 505.420589 156.542431 505.329339 156.762727 505.329339 156.9924 
C 505.329339 157.222073 505.420589 157.442369 505.582992 157.604772 
C 505.745395 157.767176 505.965692 157.858425 506.195365 157.858425 
z
" clip-path="url(#p88a33e1263)" style="fill: #f08080; fill-opacity: 0.5; stroke: #ff0000; stroke-opacity: 0.5"/>
    <path d="M 509.911645 152.78 
C 510.044246 152.78 510.171435 152.727317 510.265198 152.633553 
C 510.358962 152.53979 510.411645 152.412602 510.411645 152.28 
C 510.411645 152.147398 510.358962 152.02021 510.265198 151.926447 
C 510.171435 151.832683 510.044246 151.78 509.911645 151.78 
C 509.779043 151.78 509.651855 151.832683 509.558091 151.926447 
C 509.464328 152.02021 509.411645 152.147398 509.411645 152.28 
C 509.411645 152.412602 509.464328 152.53979 509.558091 152.633553 
C 509.651855 152.727317 509.779043 152.78 509.911645 152.78 
z
" clip-path="url(#p88a33e1263)" style="fill: #f08080; fill-opacity: 0.5; stroke: #ff0000; stroke-opacity: 0.5"/>
    <path d="M 521.934904 257.39351 
C 522.611041 257.39351 523.259577 257.124877 523.737679 256.646776 
C 524.215781 256.168674 524.484413 255.520138 524.484413 254.844 
C 524.484413 254.167862 524.215781 253.519326 523.737679 253.041224 
C 523.259577 252.563123 522.611041 252.29449 521.934904 252.29449 
C 521.258766 252.29449 520.61023 252.563123 520.132128 253.041224 
C 519.654026 253.519326 519.385394 254.167862 519.385394 254.844 
C 519.385394 255.520138 519.654026 256.168674 520.132128 256.646776 
C 520.61023 257.124877 521.258766 257.39351 521.934904 257.39351 
z
" clip-path="url(#p88a33e1263)" style="fill: #f08080; fill-opacity: 0.5; stroke: #ff0000; stroke-opacity: 0.5"/>
    <path d="M 541.390722 205.6164 
C 541.788527 205.6164 542.170092 205.458351 542.451383 205.17706 
C 542.732673 204.89577 542.890722 204.514205 542.890722 204.1164 
C 542.890722 203.718595 542.732673 203.33703 542.451383 203.05574 
C 542.170092 202.774449 541.788527 202.6164 541.390722 202.6164 
C 540.992918 202.6164 540.611353 202.774449 540.330062 203.05574 
C 540.048772 203.33703 539.890722 203.718595 539.890722 204.1164 
C 539.890722 204.514205 540.048772 204.89577 540.330062 205.17706 
C 540.611353 205.458351 540.992918 205.6164 541.390722 205.6164 
z
" clip-path="url(#p88a33e1263)" style="fill: #f08080; fill-opacity: 0.5; stroke: #ff0000; stroke-opacity: 0.5"/>
    <path d="M 541.827932 79.590476 
C 542.178762 79.590476 542.515271 79.451089 542.763346 79.203014 
C 543.011421 78.95494 543.150807 78.618431 543.150807 78.2676 
C 543.150807 77.916769 543.011421 77.58026 542.763346 77.332186 
C 542.515271 77.084111 542.178762 76.944724 541.827932 76.944724 
C 541.477101 76.944724 541.140592 77.084111 540.892517 77.332186 
C 540.644443 77.58026 540.505056 77.916769 540.505056 78.2676 
C 540.505056 78.618431 540.644443 78.95494 540.892517 79.203014 
C 541.140592 79.451089 541.477101 79.590476 541.827932 79.590476 
z
" clip-path="url(#p88a33e1263)" style="fill: #f08080; fill-opacity: 0.5; stroke: #ff0000; stroke-opacity: 0.5"/>
    <path d="M 572.213986 187.88251 
C 577.68611 187.88251 582.934846 185.708412 586.804222 181.839036 
C 590.673598 177.969661 592.847696 172.720924 592.847696 167.2488 
C 592.847696 161.776676 590.673598 156.527939 586.804222 152.658564 
C 582.934846 148.789188 577.68611 146.61509 572.213986 146.61509 
C 566.741862 146.61509 561.493125 148.789188 557.623749 152.658564 
C 553.754373 156.527939 551.580276 161.776676 551.580276 167.2488 
C 551.580276 172.720924 553.754373 177.969661 557.623749 181.839036 
C 561.493125 185.708412 566.741862 187.88251 572.213986 187.88251 
z
" clip-path="url(#p88a33e1263)" style="fill: #f08080; fill-opacity: 0.5; stroke: #ff0000; stroke-opacity: 0.5"/>
    <path d="M 576.58608 124.209256 
C 580.168777 124.209256 583.605218 122.785836 586.138567 120.252487 
C 588.671916 117.719138 590.095336 114.282697 590.095336 110.7 
C 590.095336 107.117303 588.671916 103.680862 586.138567 101.147513 
C 583.605218 98.614164 580.168777 97.190744 576.58608 97.190744 
C 573.003383 97.190744 569.566942 98.614164 567.033593 101.147513 
C 564.500244 103.680862 563.076824 107.117303 563.076824 110.7 
C 563.076824 114.282697 564.500244 117.719138 567.033593 120.252487 
C 569.566942 122.785836 573.003383 124.209256 576.58608 124.209256 
z
" clip-path="url(#p88a33e1263)" style="fill: #f08080; fill-opacity: 0.5; stroke: #ff0000; stroke-opacity: 0.5"/>
    <path d="M 593.637247 190.816951 
C 597.020536 190.816951 600.26571 189.472756 602.658056 187.080409 
C 605.050403 184.688063 606.394598 181.442889 606.394598 178.0596 
C 606.394598 174.676311 605.050403 171.431137 602.658056 169.038791 
C 600.26571 166.646444 597.020536 165.302249 593.637247 165.302249 
C 590.253958 165.302249 587.008784 166.646444 584.616438 169.038791 
C 582.224091 171.431137 580.879896 174.676311 580.879896 178.0596 
C 580.879896 181.442889 582.224091 184.688063 584.616438 187.080409 
C 587.008784 189.472756 590.253958 190.816951 593.637247 190.816951 
z
" clip-path="url(#p88a33e1263)" style="fill: #f08080; fill-opacity: 0.5; stroke: #ff0000; stroke-opacity: 0.5"/>
    <path d="M 610.0326 264.101848 
C 612.340781 264.101848 614.554736 263.184797 616.186867 261.552667 
C 617.818997 259.920536 618.736048 257.706581 618.736048 255.3984 
C 618.736048 253.090219 617.818997 250.876264 616.186867 249.244133 
C 614.554736 247.612003 612.340781 246.694952 610.0326 246.694952 
C 607.724419 246.694952 605.510464 247.612003 603.878333 249.244133 
C 602.246203 250.876264 601.329152 253.090219 601.329152 255.3984 
C 601.329152 257.706581 602.246203 259.920536 603.878333 261.552667 
C 605.510464 263.184797 607.724419 264.101848 610.0326 264.101848 
z
" clip-path="url(#p88a33e1263)" style="fill: #f08080; fill-opacity: 0.5; stroke: #ff0000; stroke-opacity: 0.5"/>
    <path d="M 613.74888 216.936451 
C 614.208225 216.936451 614.648819 216.753951 614.973625 216.429145 
C 615.298431 216.104339 615.480931 215.663745 615.480931 215.2044 
C 615.480931 214.745055 615.298431 214.304461 614.973625 213.979655 
C 614.648819 213.654849 614.208225 213.472349 613.74888 213.472349 
C 613.289535 213.472349 612.848941 213.654849 612.524135 213.979655 
C 612.199329 214.304461 612.016829 214.745055 612.016829 215.2044 
C 612.016829 215.663745 612.199329 216.104339 612.524135 216.429145 
C 612.848941 216.753951 613.289535 216.936451 613.74888 216.936451 
z
" clip-path="url(#p88a33e1263)" style="fill: #f08080; fill-opacity: 0.5; stroke: #ff0000; stroke-opacity: 0.5"/>
    <path d="M 624.023301 244.992408 
C 624.645258 244.992408 625.241824 244.745302 625.681614 244.305512 
C 626.121403 243.865723 626.368509 243.269156 626.368509 242.6472 
C 626.368509 242.025244 626.121403 241.428677 625.681614 240.988888 
C 625.241824 240.549098 624.645258 240.301992 624.023301 240.301992 
C 623.401345 240.301992 622.804778 240.549098 622.364989 240.988888 
C 621.925199 241.428677 621.678093 242.025244 621.678093 242.6472 
C 621.678093 243.269156 621.925199 243.865723 622.364989 244.305512 
C 622.804778 244.745302 623.401345 244.992408 624.023301 244.992408 
z
" clip-path="url(#p88a33e1263)" style="fill: #f08080; fill-opacity: 0.5; stroke: #ff0000; stroke-opacity: 0.5"/>
    <path d="M 660.093078 259.374502 
C 662.323781 259.374502 664.463421 258.488234 666.040766 256.910889 
C 667.618112 255.333543 668.50438 253.193903 668.50438 250.9632 
C 668.50438 248.732497 667.618112 246.592857 666.040766 245.015511 
C 664.463421 243.438166 662.323781 242.551898 660.093078 242.551898 
C 657.862374 242.551898 655.722734 243.438166 654.145389 245.015511 
C 652.568044 246.592857 651.681776 248.732497 651.681776 250.9632 
C 651.681776 253.193903 652.568044 255.333543 654.145389 256.910889 
C 655.722734 258.488234 657.862374 259.374502 660.093078 259.374502 
z
" clip-path="url(#p88a33e1263)" style="fill: #f08080; fill-opacity: 0.5; stroke: #ff0000; stroke-opacity: 0.5"/>
    <path d="M 721.521 190.118129 
C 729.423874 190.118129 737.004131 186.978284 742.592308 181.390108 
C 748.180484 175.801931 751.320329 168.221674 751.320329 160.3188 
C 751.320329 152.415926 748.180484 144.835669 742.592308 139.247492 
C 737.004131 133.659316 729.423874 130.519471 721.521 130.519471 
C 713.618126 130.519471 706.037869 133.659316 700.449692 139.247492 
C 694.861516 144.835669 691.721671 152.415926 691.721671 160.3188 
C 691.721671 168.221674 694.861516 175.801931 700.449692 181.390108 
C 706.037869 186.978284 713.618126 190.118129 721.521 190.118129 
z
" clip-path="url(#p88a33e1263)" style="fill: #f08080; fill-opacity: 0.5; stroke: #ff0000; stroke-opacity: 0.5"/>
   </g>
   <g id="matplotlib.axis_1">
    <g id="xtick_1">
     <g id="line2d_1">
      <defs>
       <path id="mbc60966003" d="M 0 0 
L 0 3.5 
" style="stroke: #000000; stroke-width: 0.8"/>
      </defs>
      <g>
       <use xlink:href="#mbc60966003" x="147.388235" y="512.64" style="stroke: #000000; stroke-width: 0.8"/>
      </g>
     </g>
     <g id="text_1">
      <!-- −1500 -->
      <g transform="translate(113.558548 534.836875) scale(0.2 -0.2)">
       <defs>
        <path id="DejaVuSans-2212" d="M 678 2272 
L 4684 2272 
L 4684 1741 
L 678 1741 
L 678 2272 
z
" transform="scale(0.015625)"/>
        <path id="DejaVuSans-31" d="M 794 531 
L 1825 531 
L 1825 4091 
L 703 3866 
L 703 4441 
L 1819 4666 
L 2450 4666 
L 2450 531 
L 3481 531 
L 3481 0 
L 794 0 
L 794 531 
z
" transform="scale(0.015625)"/>
        <path id="DejaVuSans-35" d="M 691 4666 
L 3169 4666 
L 3169 4134 
L 1269 4134 
L 1269 2991 
Q 1406 3038 1543 3061 
Q 1681 3084 1819 3084 
Q 2600 3084 3056 2656 
Q 3513 2228 3513 1497 
Q 3513 744 3044 326 
Q 2575 -91 1722 -91 
Q 1428 -91 1123 -41 
Q 819 9 494 109 
L 494 744 
Q 775 591 1075 516 
Q 1375 441 1709 441 
Q 2250 441 2565 725 
Q 2881 1009 2881 1497 
Q 2881 1984 2565 2268 
Q 2250 2553 1709 2553 
Q 1456 2553 1204 2497 
Q 953 2441 691 2322 
L 691 4666 
z
" transform="scale(0.015625)"/>
        <path id="DejaVuSans-30" d="M 2034 4250 
Q 1547 4250 1301 3770 
Q 1056 3291 1056 2328 
Q 1056 1369 1301 889 
Q 1547 409 2034 409 
Q 2525 409 2770 889 
Q 3016 1369 3016 2328 
Q 3016 3291 2770 3770 
Q 2525 4250 2034 4250 
z
M 2034 4750 
Q 2819 4750 3233 4129 
Q 3647 3509 3647 2328 
Q 3647 1150 3233 529 
Q 2819 -91 2034 -91 
Q 1250 -91 836 529 
Q 422 1150 422 2328 
Q 422 3509 836 4129 
Q 1250 4750 2034 4750 
z
" transform="scale(0.015625)"/>
       </defs>
       <use xlink:href="#DejaVuSans-2212"/>
       <use xlink:href="#DejaVuSans-31" x="83.789062"/>
       <use xlink:href="#DejaVuSans-35" x="147.412109"/>
       <use xlink:href="#DejaVuSans-30" x="211.035156"/>
       <use xlink:href="#DejaVuSans-30" x="274.658203"/>
      </g>
     </g>
    </g>
    <g id="xtick_2">
     <g id="line2d_2">
      <g>
       <use xlink:href="#mbc60966003" x="245.858824" y="512.64" style="stroke: #000000; stroke-width: 0.8"/>
      </g>
     </g>
     <g id="text_2">
      <!-- −1000 -->
      <g transform="translate(212.029136 534.836875) scale(0.2 -0.2)">
       <use xlink:href="#DejaVuSans-2212"/>
       <use xlink:href="#DejaVuSans-31" x="83.789062"/>
       <use xlink:href="#DejaVuSans-30" x="147.412109"/>
       <use xlink:href="#DejaVuSans-30" x="211.035156"/>
       <use xlink:href="#DejaVuSans-30" x="274.658203"/>
      </g>
     </g>
    </g>
    <g id="xtick_3">
     <g id="line2d_3">
      <g>
       <use xlink:href="#mbc60966003" x="344.329412" y="512.64" style="stroke: #000000; stroke-width: 0.8"/>
      </g>
     </g>
     <g id="text_3">
      <!-- −500 -->
      <g transform="translate(316.862224 534.836875) scale(0.2 -0.2)">
       <use xlink:href="#DejaVuSans-2212"/>
       <use xlink:href="#DejaVuSans-35" x="83.789062"/>
       <use xlink:href="#DejaVuSans-30" x="147.412109"/>
       <use xlink:href="#DejaVuSans-30" x="211.035156"/>
      </g>
     </g>
    </g>
    <g id="xtick_4">
     <g id="line2d_4">
      <g>
       <use xlink:href="#mbc60966003" x="442.8" y="512.64" style="stroke: #000000; stroke-width: 0.8"/>
      </g>
     </g>
     <g id="text_4">
      <!-- 0 -->
      <g transform="translate(436.4375 534.836875) scale(0.2 -0.2)">
       <use xlink:href="#DejaVuSans-30"/>
      </g>
     </g>
    </g>
    <g id="xtick_5">
     <g id="line2d_5">
      <g>
       <use xlink:href="#mbc60966003" x="541.270588" y="512.64" style="stroke: #000000; stroke-width: 0.8"/>
      </g>
     </g>
     <g id="text_5">
      <!-- 500 -->
      <g transform="translate(522.183088 534.836875) scale(0.2 -0.2)">
       <use xlink:href="#DejaVuSans-35"/>
       <use xlink:href="#DejaVuSans-30" x="63.623047"/>
       <use xlink:href="#DejaVuSans-30" x="127.246094"/>
      </g>
     </g>
    </g>
    <g id="xtick_6">
     <g id="line2d_6">
      <g>
       <use xlink:href="#mbc60966003" x="639.741176" y="512.64" style="stroke: #000000; stroke-width: 0.8"/>
      </g>
     </g>
     <g id="text_6">
      <!-- 1000 -->
      <g transform="translate(614.291176 534.836875) scale(0.2 -0.2)">
       <use xlink:href="#DejaVuSans-31"/>
       <use xlink:href="#DejaVuSans-30" x="63.623047"/>
       <use xlink:href="#DejaVuSans-30" x="127.246094"/>
       <use xlink:href="#DejaVuSans-30" x="190.869141"/>
      </g>
     </g>
    </g>
    <g id="xtick_7">
     <g id="line2d_7">
      <g>
       <use xlink:href="#mbc60966003" x="738.211765" y="512.64" style="stroke: #000000; stroke-width: 0.8"/>
      </g>
     </g>
     <g id="text_7">
      <!-- 1500 -->
      <g transform="translate(712.761765 534.836875) scale(0.2 -0.2)">
       <use xlink:href="#DejaVuSans-31"/>
       <use xlink:href="#DejaVuSans-35" x="63.623047"/>
       <use xlink:href="#DejaVuSans-30" x="127.246094"/>
       <use xlink:href="#DejaVuSans-30" x="190.869141"/>
      </g>
     </g>
    </g>
   </g>
   <g id="matplotlib.axis_2">
    <g id="ytick_1">
     <g id="line2d_8">
      <defs>
       <path id="mb3263596ca" d="M 0 0 
L -3.5 0 
" style="stroke: #000000; stroke-width: 0.8"/>
      </defs>
      <g>
       <use xlink:href="#mb3263596ca" x="108" y="457.2" style="stroke: #000000; stroke-width: 0.8"/>
      </g>
     </g>
     <g id="text_8">
      <!-- 12 -->
      <g transform="translate(75.55 464.798438) scale(0.2 -0.2)">
       <defs>
        <path id="DejaVuSans-32" d="M 1228 531 
L 3431 531 
L 3431 0 
L 469 0 
L 469 531 
Q 828 903 1448 1529 
Q 2069 2156 2228 2338 
Q 2531 2678 2651 2914 
Q 2772 3150 2772 3378 
Q 2772 3750 2511 3984 
Q 2250 4219 1831 4219 
Q 1534 4219 1204 4116 
Q 875 4013 500 3803 
L 500 4441 
Q 881 4594 1212 4672 
Q 1544 4750 1819 4750 
Q 2544 4750 2975 4387 
Q 3406 4025 3406 3419 
Q 3406 3131 3298 2873 
Q 3191 2616 2906 2266 
Q 2828 2175 2409 1742 
Q 1991 1309 1228 531 
z
" transform="scale(0.015625)"/>
       </defs>
       <use xlink:href="#DejaVuSans-31"/>
       <use xlink:href="#DejaVuSans-32" x="63.623047"/>
      </g>
     </g>
    </g>
    <g id="ytick_2">
     <g id="line2d_9">
      <g>
       <use xlink:href="#mb3263596ca" x="108" y="346.32" style="stroke: #000000; stroke-width: 0.8"/>
      </g>
     </g>
     <g id="text_9">
      <!-- 16 -->
      <g transform="translate(75.55 353.918437) scale(0.2 -0.2)">
       <defs>
        <path id="DejaVuSans-36" d="M 2113 2584 
Q 1688 2584 1439 2293 
Q 1191 2003 1191 1497 
Q 1191 994 1439 701 
Q 1688 409 2113 409 
Q 2538 409 2786 701 
Q 3034 994 3034 1497 
Q 3034 2003 2786 2293 
Q 2538 2584 2113 2584 
z
M 3366 4563 
L 3366 3988 
Q 3128 4100 2886 4159 
Q 2644 4219 2406 4219 
Q 1781 4219 1451 3797 
Q 1122 3375 1075 2522 
Q 1259 2794 1537 2939 
Q 1816 3084 2150 3084 
Q 2853 3084 3261 2657 
Q 3669 2231 3669 1497 
Q 3669 778 3244 343 
Q 2819 -91 2113 -91 
Q 1303 -91 875 529 
Q 447 1150 447 2328 
Q 447 3434 972 4092 
Q 1497 4750 2381 4750 
Q 2619 4750 2861 4703 
Q 3103 4656 3366 4563 
z
" transform="scale(0.015625)"/>
       </defs>
       <use xlink:href="#DejaVuSans-31"/>
       <use xlink:href="#DejaVuSans-36" x="63.623047"/>
      </g>
     </g>
    </g>
    <g id="ytick_3">
     <g id="line2d_10">
      <g>
       <use xlink:href="#mb3263596ca" x="108" y="235.44" style="stroke: #000000; stroke-width: 0.8"/>
      </g>
     </g>
     <g id="text_10">
      <!-- 20 -->
      <g transform="translate(75.55 243.038438) scale(0.2 -0.2)">
       <use xlink:href="#DejaVuSans-32"/>
       <use xlink:href="#DejaVuSans-30" x="63.623047"/>
      </g>
     </g>
    </g>
    <g id="ytick_4">
     <g id="line2d_11">
      <g>
       <use xlink:href="#mb3263596ca" x="108" y="124.56" style="stroke: #000000; stroke-width: 0.8"/>
      </g>
     </g>
     <g id="text_11">
      <!-- 24 -->
      <g transform="translate(75.55 132.158438) scale(0.2 -0.2)">
       <defs>
        <path id="DejaVuSans-34" d="M 2419 4116 
L 825 1625 
L 2419 1625 
L 2419 4116 
z
M 2253 4666 
L 3047 4666 
L 3047 1625 
L 3713 1625 
L 3713 1100 
L 3047 1100 
L 3047 0 
L 2419 0 
L 2419 1100 
L 313 1100 
L 313 1709 
L 2253 4666 
z
" transform="scale(0.015625)"/>
       </defs>
       <use xlink:href="#DejaVuSans-32"/>
       <use xlink:href="#DejaVuSans-34" x="63.623047"/>
      </g>
     </g>
    </g>
   </g>
   <g id="line2d_12">
    <path d="M 120.358059 45.591365 
L 129.995942 61.225277 
L 139.633824 76.384797 
L 148.066972 89.260227 
L 156.500119 101.772451 
L 164.933267 113.921469 
L 173.366414 125.70728 
L 181.799562 137.129885 
L 190.232709 148.189284 
L 198.665857 158.885476 
L 207.099004 169.218462 
L 215.532152 179.188241 
L 223.965299 188.794814 
L 232.398447 198.03818 
L 240.831594 206.918341 
L 249.264742 215.435295 
L 257.697889 223.589042 
L 264.926301 230.288886 
L 272.154713 236.721884 
L 279.383125 242.888037 
L 286.611538 248.787344 
L 293.83995 254.419806 
L 301.068362 259.785422 
L 308.296774 264.884193 
L 315.525186 269.716118 
L 322.753598 274.281198 
L 329.98201 278.579432 
L 337.210422 282.61082 
L 344.438834 286.375364 
L 351.667247 289.873061 
L 358.895659 293.103914 
L 366.124071 296.06792 
L 373.352483 298.765081 
L 380.580895 301.195397 
L 387.809307 303.358867 
L 395.037719 305.255492 
L 402.266131 306.885271 
L 409.494544 308.248205 
L 416.722956 309.344293 
L 423.951368 310.173535 
L 431.17978 310.735932 
L 438.408192 311.031484 
L 442.022398 311.079193 
L 442.022398 311.079193 
" clip-path="url(#p88a33e1263)" style="fill: none; stroke: #0000ff; stroke-width: 1.5; stroke-linecap: square"/>
   </g>
   <g id="line2d_13">
    <path d="M 443.227133 193.197652 
L 460.093428 193.075734 
L 476.959723 192.721736 
L 493.826018 192.135656 
L 510.692313 191.317495 
L 527.558608 190.267254 
L 544.424903 188.984932 
L 561.291198 187.470528 
L 578.157493 185.724044 
L 595.023788 183.745479 
L 611.890083 181.534833 
L 628.756378 179.092106 
L 645.622673 176.417298 
L 662.488968 173.51041 
L 679.355263 170.37144 
L 696.221558 167.00039 
L 713.087853 163.397258 
L 721.521 161.508662 
L 721.521 161.508662 
" clip-path="url(#p88a33e1263)" style="fill: none; stroke: #ff0000; stroke-width: 1.5; stroke-linecap: square"/>
   </g>
   <g id="line2d_14">
    <path d="M 442.8 512.64 
L 442.8 69.12 
" clip-path="url(#p88a33e1263)" style="fill: none; stroke-dasharray: 10,10; stroke-dashoffset: 0; stroke: #000000; stroke-width: 2"/>
   </g>
   <g id="patch_3">
    <path d="M 108 512.64 
L 108 69.12 
" style="fill: none; stroke: #000000; stroke-width: 0.8; stroke-linejoin: miter; stroke-linecap: square"/>
   </g>
   <g id="patch_4">
    <path d="M 777.6 512.64 
L 777.6 69.12 
" style="fill: none; stroke: #000000; stroke-width: 0.8; stroke-linejoin: miter; stroke-linecap: square"/>
   </g>
   <g id="patch_5">
    <path d="M 108 512.64 
L 777.6 512.64 
" style="fill: none; stroke: #000000; stroke-width: 0.8; stroke-linejoin: miter; stroke-linecap: square"/>
   </g>
   <g id="patch_6">
    <path d="M 108 69.12 
L 777.6 69.12 
" style="fill: none; stroke: #000000; stroke-width: 0.8; stroke-linejoin: miter; stroke-linecap: square"/>
   </g>
  </g>
 </g>
 <defs>
  <clipPath id="p88a33e1263">
   <rect x="108" y="69.12" width="669.6" height="443.52"/>
  </clipPath>
 </defs>
</svg>
