<?xml version="1.0" encoding="utf-8" standalone="no"?>
<!DOCTYPE svg PUBLIC "-//W3C//DTD SVG 1.1//EN"
  "http://www.w3.org/Graphics/SVG/1.1/DTD/svg11.dtd">
<svg xmlns:xlink="http://www.w3.org/1999/xlink" width="864pt" height="576pt" viewBox="0 0 864 576" xmlns="http://www.w3.org/2000/svg" version="1.1">
 <metadata>
  <rdf:RDF xmlns:dc="http://purl.org/dc/elements/1.1/" xmlns:cc="http://creativecommons.org/ns#" xmlns:rdf="http://www.w3.org/1999/02/22-rdf-syntax-ns#">
   <cc:Work>
    <dc:type rdf:resource="http://purl.org/dc/dcmitype/StillImage"/>
    <dc:date>2025-02-07T21:36:22.405452</dc:date>
    <dc:format>image/svg+xml</dc:format>
    <dc:creator>
     <cc:Agent>
      <dc:title>Matplotlib v3.9.4, https://matplotlib.org/</dc:title>
     </cc:Agent>
    </dc:creator>
   </cc:Work>
  </rdf:RDF>
 </metadata>
 <defs>
  <style type="text/css">*{stroke-linejoin: round; stroke-linecap: butt}</style>
 </defs>
 <g id="figure_1">
  <g id="patch_1">
   <path d="M 0 576 
L 864 576 
L 864 0 
L 0 0 
z
" style="fill: #ffffff"/>
  </g>
  <g id="axes_1">
   <g id="patch_2">
    <path d="M 108 512.64 
L 777.6 512.64 
L 777.6 69.12 
L 108 69.12 
z
" style="fill: #ffffff"/>
   </g>
   <g id="PathCollection_1">
    <path d="M 715.167991 248.515681 
C 715.464497 248.515681 715.748899 248.397878 715.958561 248.188216 
C 716.168222 247.978555 716.286025 247.694153 716.286025 247.397647 
C 716.286025 247.101141 716.168222 246.816739 715.958561 246.607078 
C 715.748899 246.397416 715.464497 246.279613 715.167991 246.279613 
C 714.871485 246.279613 714.587083 246.397416 714.377422 246.607078 
C 714.16776 246.816739 714.049957 247.101141 714.049957 247.397647 
C 714.049957 247.694153 714.16776 247.978555 714.377422 248.188216 
C 714.587083 248.397878 714.871485 248.515681 715.167991 248.515681 
z
" clip-path="url(#p38e52ed1b1)" style="fill: #add8e6; fill-opacity: 0.6; stroke: #0000ff; stroke-opacity: 0.6"/>
    <path d="M 674.667175 184.126477 
C 678.854109 184.126477 682.870122 182.46299 685.830732 179.50238 
C 688.791341 176.54177 690.454828 172.525758 690.454828 168.338824 
C 690.454828 164.151889 688.791341 160.135877 685.830732 157.175267 
C 682.870122 154.214657 678.854109 152.55117 674.667175 152.55117 
C 670.48024 152.55117 666.464228 154.214657 663.503618 157.175267 
C 660.543008 160.135877 658.879521 164.151889 658.879521 168.338824 
C 658.879521 172.525758 660.543008 176.54177 663.503618 179.50238 
C 666.464228 182.46299 670.48024 184.126477 674.667175 184.126477 
z
" clip-path="url(#p38e52ed1b1)" style="fill: #add8e6; fill-opacity: 0.6; stroke: #0000ff; stroke-opacity: 0.6"/>
    <path d="M 440.572455 201.285229 
C 440.923286 201.285229 441.259795 201.145842 441.507869 200.897767 
C 441.755944 200.649693 441.895331 200.313184 441.895331 199.962353 
C 441.895331 199.611522 441.755944 199.275013 441.507869 199.026939 
C 441.259795 198.778864 440.923286 198.639477 440.572455 198.639477 
C 440.221624 198.639477 439.885116 198.778864 439.637041 199.026939 
C 439.388966 199.275013 439.249579 199.611522 439.249579 199.962353 
C 439.249579 200.313184 439.388966 200.649693 439.637041 200.897767 
C 439.885116 201.145842 440.221624 201.285229 440.572455 201.285229 
z
" clip-path="url(#p38e52ed1b1)" style="fill: #add8e6; fill-opacity: 0.6; stroke: #0000ff; stroke-opacity: 0.6"/>
    <path d="M 432.472292 90.28 
C 432.737495 90.28 432.991872 90.174634 433.179399 89.987107 
C 433.366925 89.79958 433.472292 89.545203 433.472292 89.28 
C 433.472292 89.014797 433.366925 88.76042 433.179399 88.572893 
C 432.991872 88.385366 432.737495 88.28 432.472292 88.28 
C 432.207089 88.28 431.952712 88.385366 431.765185 88.572893 
C 431.577658 88.76042 431.472292 89.014797 431.472292 89.28 
C 431.472292 89.545203 431.577658 89.79958 431.765185 89.987107 
C 431.952712 90.174634 432.207089 90.28 432.472292 90.28 
z
" clip-path="url(#p38e52ed1b1)" style="fill: #add8e6; fill-opacity: 0.6; stroke: #0000ff; stroke-opacity: 0.6"/>
    <path d="M 634.976375 485.281224 
C 635.163901 485.281224 635.343773 485.206719 635.476375 485.074118 
C 635.608976 484.941516 635.683481 484.761645 635.683481 484.574118 
C 635.683481 484.386591 635.608976 484.206719 635.476375 484.074118 
C 635.343773 483.941516 635.163901 483.867011 634.976375 483.867011 
C 634.788848 483.867011 634.608976 483.941516 634.476375 484.074118 
C 634.343773 484.206719 634.269268 484.386591 634.269268 484.574118 
C 634.269268 484.761645 634.343773 484.941516 634.476375 485.074118 
C 634.608976 485.206719 634.788848 485.281224 634.976375 485.281224 
z
" clip-path="url(#p38e52ed1b1)" style="fill: #add8e6; fill-opacity: 0.6; stroke: #0000ff; stroke-opacity: 0.6"/>
    <path d="M 154.231682 265.607328 
C 154.867617 265.607328 155.477591 265.354668 155.927265 264.904994 
C 156.376938 264.455321 156.629598 263.845346 156.629598 263.209412 
C 156.629598 262.573477 156.376938 261.963503 155.927265 261.513829 
C 155.477591 261.064156 154.867617 260.811496 154.231682 260.811496 
C 153.595747 260.811496 152.985773 261.064156 152.5361 261.513829 
C 152.086426 261.963503 151.833766 262.573477 151.833766 263.209412 
C 151.833766 263.845346 152.086426 264.455321 152.5361 264.904994 
C 152.985773 265.354668 153.595747 265.607328 154.231682 265.607328 
z
" clip-path="url(#p38e52ed1b1)" style="fill: #add8e6; fill-opacity: 0.6; stroke: #0000ff; stroke-opacity: 0.6"/>
    <path d="M 259.128797 368.265774 
C 261.830096 368.265774 264.42112 367.192537 266.331227 365.28243 
C 268.241334 363.372323 269.314571 360.781299 269.314571 358.08 
C 269.314571 355.378701 268.241334 352.787677 266.331227 350.87757 
C 264.42112 348.967463 261.830096 347.894226 259.128797 347.894226 
C 256.427498 347.894226 253.836474 348.967463 251.926367 350.87757 
C 250.01626 352.787677 248.943023 355.378701 248.943023 358.08 
C 248.943023 360.781299 250.01626 363.372323 251.926367 365.28243 
C 253.836474 367.192537 256.427498 368.265774 259.128797 368.265774 
z
" clip-path="url(#p38e52ed1b1)" style="fill: #add8e6; fill-opacity: 0.6; stroke: #0000ff; stroke-opacity: 0.6"/>
    <path d="M 412.626892 192.888023 
C 417.040751 192.888023 421.274424 191.134378 424.395494 188.013308 
C 427.516564 184.892238 429.270209 180.658565 429.270209 176.244706 
C 429.270209 171.830847 427.516564 167.597173 424.395494 164.476104 
C 421.274424 161.355034 417.040751 159.601389 412.626892 159.601389 
C 408.213032 159.601389 403.979359 161.355034 400.858289 164.476104 
C 397.73722 167.597173 395.983575 171.830847 395.983575 176.244706 
C 395.983575 180.658565 397.73722 184.892238 400.858289 188.013308 
C 403.979359 191.134378 408.213032 192.888023 412.626892 192.888023 
z
" clip-path="url(#p38e52ed1b1)" style="fill: #add8e6; fill-opacity: 0.6; stroke: #0000ff; stroke-opacity: 0.6"/>
    <path d="M 551.544692 175.608437 
C 557.665945 175.608437 563.537312 173.176437 567.865691 168.848058 
C 572.194071 164.519678 574.62607 158.648312 574.62607 152.527059 
C 574.62607 146.405806 572.194071 140.53444 567.865691 136.20606 
C 563.537312 131.877681 557.665945 129.445681 551.544692 129.445681 
C 545.423439 129.445681 539.552073 131.877681 535.223694 136.20606 
C 530.895314 140.53444 528.463315 146.405806 528.463315 152.527059 
C 528.463315 158.648312 530.895314 164.519678 535.223694 168.848058 
C 539.552073 173.176437 545.423439 175.608437 551.544692 175.608437 
z
" clip-path="url(#p38e52ed1b1)" style="fill: #add8e6; fill-opacity: 0.6; stroke: #0000ff; stroke-opacity: 0.6"/>
    <path d="M 230.373217 503.947345 
C 233.414393 503.947345 236.331419 502.739073 238.481855 500.588637 
C 240.63229 498.438202 241.840562 495.521175 241.840562 492.48 
C 241.840562 489.438825 240.63229 486.521798 238.481855 484.371363 
C 236.331419 482.220927 233.414393 481.012655 230.373217 481.012655 
C 227.332042 481.012655 224.415016 482.220927 222.26458 484.371363 
C 220.114144 486.521798 218.905872 489.438825 218.905872 492.48 
C 218.905872 495.521175 220.114144 498.438202 222.26458 500.588637 
C 224.415016 502.739073 227.332042 503.947345 230.373217 503.947345 
z
" clip-path="url(#p38e52ed1b1)" style="fill: #add8e6; fill-opacity: 0.6; stroke: #0000ff; stroke-opacity: 0.6"/>
    <path d="M 538.179423 190.150588 
C 539.770642 190.150588 541.296902 189.51839 542.422064 188.393229 
C 543.547225 187.268067 544.179423 185.741807 544.179423 184.150588 
C 544.179423 182.55937 543.547225 181.033109 542.422064 179.907948 
C 541.296902 178.782786 539.770642 178.150588 538.179423 178.150588 
C 536.588204 178.150588 535.061944 178.782786 533.936782 179.907948 
C 532.811621 181.033109 532.179423 182.55937 532.179423 184.150588 
C 532.179423 185.741807 532.811621 187.268067 533.936782 188.393229 
C 535.061944 189.51839 536.588204 190.150588 538.179423 190.150588 
z
" clip-path="url(#p38e52ed1b1)" style="fill: #add8e6; fill-opacity: 0.6; stroke: #0000ff; stroke-opacity: 0.6"/>
    <path d="M 202.427654 326.472078 
C 204.528457 326.472078 206.5435 325.63742 208.028993 324.151927 
C 209.514485 322.666435 210.349144 320.651392 210.349144 318.550588 
C 210.349144 316.449785 209.514485 314.434742 208.028993 312.949249 
C 206.5435 311.463757 204.528457 310.629098 202.427654 310.629098 
C 200.32685 310.629098 198.311807 311.463757 196.826315 312.949249 
C 195.340822 314.434742 194.506164 316.449785 194.506164 318.550588 
C 194.506164 320.651392 195.340822 322.666435 196.826315 324.151927 
C 198.311807 325.63742 200.32685 326.472078 202.427654 326.472078 
z
" clip-path="url(#p38e52ed1b1)" style="fill: #add8e6; fill-opacity: 0.6; stroke: #0000ff; stroke-opacity: 0.6"/>
   </g>
   <g id="PathCollection_2">
    <path d="M 478.643223 147.975278 
C 479.532741 147.975278 480.385947 147.621869 481.014931 146.992885 
C 481.643915 146.3639 481.997325 145.510695 481.997325 144.621176 
C 481.997325 143.731658 481.643915 142.878453 481.014931 142.249468 
C 480.385947 141.620484 479.532741 141.267075 478.643223 141.267075 
C 477.753704 141.267075 476.900499 141.620484 476.271514 142.249468 
C 475.64253 142.878453 475.289121 143.731658 475.289121 144.621176 
C 475.289121 145.510695 475.64253 146.3639 476.271514 146.992885 
C 476.900499 147.621869 477.753704 147.975278 478.643223 147.975278 
z
" clip-path="url(#p38e52ed1b1)" style="fill: #f08080; fill-opacity: 0.6; stroke: #ff0000; stroke-opacity: 0.6"/>
    <path d="M 387.921394 119.991429 
C 391.872831 119.991429 395.662959 118.421506 398.457047 115.627418 
C 401.251135 112.83333 402.821058 109.043202 402.821058 105.091765 
C 402.821058 101.140328 401.251135 97.350199 398.457047 94.556111 
C 395.662959 91.762023 391.872831 90.1921 387.921394 90.1921 
C 383.969956 90.1921 380.179828 91.762023 377.38574 94.556111 
C 374.591652 97.350199 373.021729 101.140328 373.021729 105.091765 
C 373.021729 109.043202 374.591652 112.83333 377.38574 115.627418 
C 380.179828 118.421506 383.969956 119.991429 387.921394 119.991429 
z
" clip-path="url(#p38e52ed1b1)" style="fill: #f08080; fill-opacity: 0.6; stroke: #ff0000; stroke-opacity: 0.6"/>
    <path d="M 610.675885 355.073097 
C 611.975109 355.073097 613.221296 354.55691 614.139986 353.638219 
C 615.058677 352.719529 615.574864 351.473342 615.574864 350.174118 
C 615.574864 348.874893 615.058677 347.628707 614.139986 346.710016 
C 613.221296 345.791326 611.975109 345.275138 610.675885 345.275138 
C 609.37666 345.275138 608.130473 345.791326 607.211783 346.710016 
C 606.293092 347.628707 605.776905 348.874893 605.776905 350.174118 
C 605.776905 351.473342 606.293092 352.719529 607.211783 353.638219 
C 608.130473 354.55691 609.37666 355.073097 610.675885 355.073097 
z
" clip-path="url(#p38e52ed1b1)" style="fill: #f08080; fill-opacity: 0.6; stroke: #ff0000; stroke-opacity: 0.6"/>
    <path d="M 234.018291 89.78 
C 234.150892 89.78 234.278081 89.727317 234.371844 89.633553 
C 234.465608 89.53979 234.518291 89.412602 234.518291 89.28 
C 234.518291 89.147398 234.465608 89.02021 234.371844 88.926447 
C 234.278081 88.832683 234.150892 88.78 234.018291 88.78 
C 233.885689 88.78 233.758501 88.832683 233.664737 88.926447 
C 233.570974 89.02021 233.518291 89.147398 233.518291 89.28 
C 233.518291 89.412602 233.570974 89.53979 233.664737 89.633553 
C 233.758501 89.727317 233.885689 89.78 234.018291 89.78 
z
" clip-path="url(#p38e52ed1b1)" style="fill: #f08080; fill-opacity: 0.6; stroke: #ff0000; stroke-opacity: 0.6"/>
    <path d="M 640.646489 299.551642 
C 646.091232 299.551642 651.313705 297.388422 655.16372 293.538408 
C 659.013735 289.688393 661.176954 284.465919 661.176954 279.021176 
C 661.176954 273.576433 659.013735 268.35396 655.16372 264.503945 
C 651.313705 260.653931 646.091232 258.490711 640.646489 258.490711 
C 635.201746 258.490711 629.979272 260.653931 626.129258 264.503945 
C 622.279243 268.35396 620.116024 273.576433 620.116024 279.021176 
C 620.116024 284.465919 622.279243 289.688393 626.129258 293.538408 
C 629.979272 297.388422 635.201746 299.551642 640.646489 299.551642 
z
" clip-path="url(#p38e52ed1b1)" style="fill: #f08080; fill-opacity: 0.6; stroke: #ff0000; stroke-opacity: 0.6"/>
    <path d="M 418.702014 90.398034 
C 418.99852 90.398034 419.282922 90.280231 419.492584 90.070569 
C 419.702245 89.860908 419.820048 89.576506 419.820048 89.28 
C 419.820048 88.983494 419.702245 88.699092 419.492584 88.489431 
C 419.282922 88.279769 418.99852 88.161966 418.702014 88.161966 
C 418.405508 88.161966 418.121106 88.279769 417.911445 88.489431 
C 417.701783 88.699092 417.58398 88.983494 417.58398 89.28 
C 417.58398 89.576506 417.701783 89.860908 417.911445 90.070569 
C 418.121106 90.280231 418.405508 90.398034 418.702014 90.398034 
z
" clip-path="url(#p38e52ed1b1)" style="fill: #f08080; fill-opacity: 0.6; stroke: #ff0000; stroke-opacity: 0.6"/>
    <path d="M 489.173435 155.076569 
C 489.849573 155.076569 490.498109 154.807936 490.976211 154.329834 
C 491.454312 153.851733 491.722945 153.203197 491.722945 152.527059 
C 491.722945 151.850921 491.454312 151.202385 490.976211 150.724283 
C 490.498109 150.246181 489.849573 149.977549 489.173435 149.977549 
C 488.497297 149.977549 487.848761 150.246181 487.370659 150.724283 
C 486.892558 151.202385 486.623925 151.850921 486.623925 152.527059 
C 486.623925 153.203197 486.892558 153.851733 487.370659 154.329834 
C 487.848761 154.807936 488.497297 155.076569 489.173435 155.076569 
z
" clip-path="url(#p38e52ed1b1)" style="fill: #f08080; fill-opacity: 0.6; stroke: #ff0000; stroke-opacity: 0.6"/>
    <path d="M 747.163636 319.873464 
C 747.514467 319.873464 747.850976 319.734077 748.099051 319.486003 
C 748.347125 319.237928 748.486512 318.901419 748.486512 318.550588 
C 748.486512 318.199758 748.347125 317.863249 748.099051 317.615174 
C 747.850976 317.367099 747.514467 317.227713 747.163636 317.227713 
C 746.812806 317.227713 746.476297 317.367099 746.228222 317.615174 
C 745.980147 317.863249 745.840761 318.199758 745.840761 318.550588 
C 745.840761 318.901419 745.980147 319.237928 746.228222 319.486003 
C 746.476297 319.734077 746.812806 319.873464 747.163636 319.873464 
z
" clip-path="url(#p38e52ed1b1)" style="fill: #f08080; fill-opacity: 0.6; stroke: #ff0000; stroke-opacity: 0.6"/>
    <path d="M 391.971475 89.78 
C 392.104077 89.78 392.231265 89.727317 392.325029 89.633553 
C 392.418792 89.53979 392.471475 89.412602 392.471475 89.28 
C 392.471475 89.147398 392.418792 89.02021 392.325029 88.926447 
C 392.231265 88.832683 392.104077 88.78 391.971475 88.78 
C 391.838874 88.78 391.711685 88.832683 391.617922 88.926447 
C 391.524158 89.02021 391.471475 89.147398 391.471475 89.28 
C 391.471475 89.412602 391.524158 89.53979 391.617922 89.633553 
C 391.711685 89.727317 391.838874 89.78 391.971475 89.78 
z
" clip-path="url(#p38e52ed1b1)" style="fill: #f08080; fill-opacity: 0.6; stroke: #ff0000; stroke-opacity: 0.6"/>
    <path d="M 639.026456 89.78 
C 639.159058 89.78 639.286246 89.727317 639.38001 89.633553 
C 639.473773 89.53979 639.526456 89.412602 639.526456 89.28 
C 639.526456 89.147398 639.473773 89.02021 639.38001 88.926447 
C 639.286246 88.832683 639.159058 88.78 639.026456 88.78 
C 638.893855 88.78 638.766666 88.832683 638.672903 88.926447 
C 638.579139 89.02021 638.526456 89.147398 638.526456 89.28 
C 638.526456 89.412602 638.579139 89.53979 638.672903 89.633553 
C 638.766666 89.727317 638.893855 89.78 639.026456 89.78 
z
" clip-path="url(#p38e52ed1b1)" style="fill: #f08080; fill-opacity: 0.6; stroke: #ff0000; stroke-opacity: 0.6"/>
    <path d="M 699.777681 142.318668 
C 703.360378 142.318668 706.796819 140.895247 709.330168 138.361898 
C 711.863517 135.828549 713.286937 132.392108 713.286937 128.809412 
C 713.286937 125.226715 711.863517 121.790274 709.330168 119.256925 
C 706.796819 116.723576 703.360378 115.300156 699.777681 115.300156 
C 696.194984 115.300156 692.758543 116.723576 690.225194 119.256925 
C 687.691845 121.790274 686.268425 125.226715 686.268425 128.809412 
C 686.268425 132.392108 687.691845 135.828549 690.225194 138.361898 
C 692.758543 140.895247 696.194984 142.318668 699.777681 142.318668 
z
" clip-path="url(#p38e52ed1b1)" style="fill: #f08080; fill-opacity: 0.6; stroke: #ff0000; stroke-opacity: 0.6"/>
    <path d="M 601.360697 212.719704 
C 604.743986 212.719704 607.989159 211.375509 610.381506 208.983162 
C 612.773853 206.590816 614.118048 203.345642 614.118048 199.962353 
C 614.118048 196.579064 612.773853 193.33389 610.381506 190.941544 
C 607.989159 188.549197 604.743986 187.205002 601.360697 187.205002 
C 597.977408 187.205002 594.732234 188.549197 592.339888 190.941544 
C 589.947541 193.33389 588.603346 196.579064 588.603346 199.962353 
C 588.603346 203.345642 589.947541 206.590816 592.339888 208.983162 
C 594.732234 211.375509 597.977408 212.719704 601.360697 212.719704 
z
" clip-path="url(#p38e52ed1b1)" style="fill: #f08080; fill-opacity: 0.6; stroke: #ff0000; stroke-opacity: 0.6"/>
    <path d="M 494.843549 160.938361 
C 497.074253 160.938361 499.213892 160.052093 500.791238 158.474747 
C 502.368583 156.897402 503.254851 154.757762 503.254851 152.527059 
C 503.254851 150.296355 502.368583 148.156716 500.791238 146.57937 
C 499.213892 145.002025 497.074253 144.115757 494.843549 144.115757 
C 492.612846 144.115757 490.473206 145.002025 488.895861 146.57937 
C 487.318515 148.156716 486.432247 150.296355 486.432247 152.527059 
C 486.432247 154.757762 487.318515 156.897402 488.895861 158.474747 
C 490.473206 160.052093 492.612846 160.938361 494.843549 160.938361 
z
" clip-path="url(#p38e52ed1b1)" style="fill: #f08080; fill-opacity: 0.6; stroke: #ff0000; stroke-opacity: 0.6"/>
    <path d="M 617.156015 228.501946 
C 622.628139 228.501946 627.876876 226.327848 631.746252 222.458472 
C 635.615628 218.589096 637.789726 213.340359 637.789726 207.868235 
C 637.789726 202.396111 635.615628 197.147375 631.746252 193.277999 
C 627.876876 189.408623 622.628139 187.234525 617.156015 187.234525 
C 611.683891 187.234525 606.435155 189.408623 602.565779 193.277999 
C 598.696403 197.147375 596.522305 202.396111 596.522305 207.868235 
C 596.522305 213.340359 598.696403 218.589096 602.565779 222.458472 
C 606.435155 226.327848 611.683891 228.501946 617.156015 228.501946 
z
" clip-path="url(#p38e52ed1b1)" style="fill: #f08080; fill-opacity: 0.6; stroke: #ff0000; stroke-opacity: 0.6"/>
    <path d="M 138.436364 383.312487 
C 140.934768 383.312487 143.331181 382.31986 145.09782 380.553221 
C 146.864459 378.786582 147.857085 376.390169 147.857085 373.891765 
C 147.857085 371.39336 146.864459 368.996947 145.09782 367.230308 
C 143.331181 365.46367 140.934768 364.471043 138.436364 364.471043 
C 135.937959 364.471043 133.541546 365.46367 131.774907 367.230308 
C 130.008268 368.996947 129.015642 371.39336 129.015642 373.891765 
C 129.015642 376.390169 130.008268 378.786582 131.774907 380.553221 
C 133.541546 382.31986 135.937959 383.312487 138.436364 383.312487 
z
" clip-path="url(#p38e52ed1b1)" style="fill: #f08080; fill-opacity: 0.6; stroke: #ff0000; stroke-opacity: 0.6"/>
    <path d="M 563.289929 90.78 
C 563.687734 90.78 564.069299 90.621951 564.350589 90.34066 
C 564.63188 90.05937 564.789929 89.677805 564.789929 89.28 
C 564.789929 88.882195 564.63188 88.50063 564.350589 88.21934 
C 564.069299 87.938049 563.687734 87.78 563.289929 87.78 
C 562.892125 87.78 562.510559 87.938049 562.229269 88.21934 
C 561.947979 88.50063 561.789929 88.882195 561.789929 89.28 
C 561.789929 89.677805 561.947979 90.05937 562.229269 90.34066 
C 562.510559 90.621951 562.892125 90.78 563.289929 90.78 
z
" clip-path="url(#p38e52ed1b1)" style="fill: #f08080; fill-opacity: 0.6; stroke: #ff0000; stroke-opacity: 0.6"/>
    <path d="M 627.281219 261.385211 
C 635.184094 261.385211 642.764351 258.245366 648.352527 252.65719 
C 653.940703 247.069014 657.080548 239.488757 657.080548 231.585882 
C 657.080548 223.683008 653.940703 216.102751 648.352527 210.514575 
C 642.764351 204.926399 635.184094 201.786554 627.281219 201.786554 
C 619.378345 201.786554 611.798088 204.926399 606.209912 210.514575 
C 600.621736 216.102751 597.481891 223.683008 597.481891 231.585882 
C 597.481891 239.488757 600.621736 247.069014 606.209912 252.65719 
C 611.798088 258.245366 619.378345 261.385211 627.281219 261.385211 
z
" clip-path="url(#p38e52ed1b1)" style="fill: #f08080; fill-opacity: 0.6; stroke: #ff0000; stroke-opacity: 0.6"/>
    <path d="M 632.141317 90.146025 
C 632.37099 90.146025 632.591287 90.054776 632.75369 89.892372 
C 632.916093 89.729969 633.007343 89.509673 633.007343 89.28 
C 633.007343 89.050327 632.916093 88.830031 632.75369 88.667628 
C 632.591287 88.505224 632.37099 88.413975 632.141317 88.413975 
C 631.911645 88.413975 631.691348 88.505224 631.528945 88.667628 
C 631.366542 88.830031 631.275292 89.050327 631.275292 89.28 
C 631.275292 89.509673 631.366542 89.729969 631.528945 89.892372 
C 631.691348 90.054776 631.911645 90.146025 632.141317 90.146025 
z
" clip-path="url(#p38e52ed1b1)" style="fill: #f08080; fill-opacity: 0.6; stroke: #ff0000; stroke-opacity: 0.6"/>
    <path d="M 547.089603 91.012051 
C 547.548948 91.012051 547.989541 90.829551 548.314347 90.504745 
C 548.639154 90.179939 548.821653 89.739345 548.821653 89.28 
C 548.821653 88.820655 548.639154 88.380061 548.314347 88.055255 
C 547.989541 87.730449 547.548948 87.547949 547.089603 87.547949 
C 546.630257 87.547949 546.189664 87.730449 545.864858 88.055255 
C 545.540052 88.380061 545.357552 88.820655 545.357552 89.28 
C 545.357552 89.739345 545.540052 90.179939 545.864858 90.504745 
C 546.189664 90.829551 546.630257 91.012051 547.089603 91.012051 
z
" clip-path="url(#p38e52ed1b1)" style="fill: #f08080; fill-opacity: 0.6; stroke: #ff0000; stroke-opacity: 0.6"/>
    <path d="M 488.363419 177.042271 
C 490.6716 177.042271 492.885555 176.125221 494.517685 174.49309 
C 496.149816 172.86096 497.066866 170.647005 497.066866 168.338824 
C 497.066866 166.030642 496.149816 163.816687 494.517685 162.184557 
C 492.885555 160.552426 490.6716 159.635376 488.363419 159.635376 
C 486.055237 159.635376 483.841282 160.552426 482.209152 162.184557 
C 480.577021 163.816687 479.659971 166.030642 479.659971 168.338824 
C 479.659971 170.647005 480.577021 172.86096 482.209152 174.49309 
C 483.841282 176.125221 486.055237 177.042271 488.363419 177.042271 
z
" clip-path="url(#p38e52ed1b1)" style="fill: #f08080; fill-opacity: 0.6; stroke: #ff0000; stroke-opacity: 0.6"/>
    <path d="M 506.993794 305.084031 
C 507.615751 305.084031 508.212317 304.836926 508.652107 304.397136 
C 509.091896 303.957346 509.339002 303.36078 509.339002 302.738824 
C 509.339002 302.116867 509.091896 301.520301 508.652107 301.080511 
C 508.212317 300.640722 507.615751 300.393616 506.993794 300.393616 
C 506.371838 300.393616 505.775271 300.640722 505.335482 301.080511 
C 504.895692 301.520301 504.648586 302.116867 504.648586 302.738824 
C 504.648586 303.36078 504.895692 303.957346 505.335482 304.397136 
C 505.775271 304.836926 506.371838 305.084031 506.993794 305.084031 
z
" clip-path="url(#p38e52ed1b1)" style="fill: #f08080; fill-opacity: 0.6; stroke: #ff0000; stroke-opacity: 0.6"/>
   </g>
   <g id="matplotlib.axis_1">
    <g id="xtick_1">
     <g id="line2d_1">
      <defs>
       <path id="mad596bdec0" d="M 0 0 
L 0 3.5 
" style="stroke: #000000; stroke-width: 0.8"/>
      </defs>
      <g>
       <use xlink:href="#mad596bdec0" x="193.517474" y="512.64" style="stroke: #000000; stroke-width: 0.8"/>
      </g>
     </g>
     <g id="text_1">
      <!-- 12 -->
      <g transform="translate(180.792474 534.836875) scale(0.2 -0.2)">
       <defs>
        <path id="DejaVuSans-31" d="M 794 531 
L 1825 531 
L 1825 4091 
L 703 3866 
L 703 4441 
L 1819 4666 
L 2450 4666 
L 2450 531 
L 3481 531 
L 3481 0 
L 794 0 
L 794 531 
z
" transform="scale(0.015625)"/>
        <path id="DejaVuSans-32" d="M 1228 531 
L 3431 531 
L 3431 0 
L 469 0 
L 469 531 
Q 828 903 1448 1529 
Q 2069 2156 2228 2338 
Q 2531 2678 2651 2914 
Q 2772 3150 2772 3378 
Q 2772 3750 2511 3984 
Q 2250 4219 1831 4219 
Q 1534 4219 1204 4116 
Q 875 4013 500 3803 
L 500 4441 
Q 881 4594 1212 4672 
Q 1544 4750 1819 4750 
Q 2544 4750 2975 4387 
Q 3406 4025 3406 3419 
Q 3406 3131 3298 2873 
Q 3191 2616 2906 2266 
Q 2828 2175 2409 1742 
Q 1991 1309 1228 531 
z
" transform="scale(0.015625)"/>
       </defs>
       <use xlink:href="#DejaVuSans-31"/>
       <use xlink:href="#DejaVuSans-32" x="63.623047"/>
      </g>
     </g>
    </g>
    <g id="xtick_2">
     <g id="line2d_2">
      <g>
       <use xlink:href="#mad596bdec0" x="355.52074" y="512.64" style="stroke: #000000; stroke-width: 0.8"/>
      </g>
     </g>
     <g id="text_2">
      <!-- 16 -->
      <g transform="translate(342.79574 534.836875) scale(0.2 -0.2)">
       <defs>
        <path id="DejaVuSans-36" d="M 2113 2584 
Q 1688 2584 1439 2293 
Q 1191 2003 1191 1497 
Q 1191 994 1439 701 
Q 1688 409 2113 409 
Q 2538 409 2786 701 
Q 3034 994 3034 1497 
Q 3034 2003 2786 2293 
Q 2538 2584 2113 2584 
z
M 3366 4563 
L 3366 3988 
Q 3128 4100 2886 4159 
Q 2644 4219 2406 4219 
Q 1781 4219 1451 3797 
Q 1122 3375 1075 2522 
Q 1259 2794 1537 2939 
Q 1816 3084 2150 3084 
Q 2853 3084 3261 2657 
Q 3669 2231 3669 1497 
Q 3669 778 3244 343 
Q 2819 -91 2113 -91 
Q 1303 -91 875 529 
Q 447 1150 447 2328 
Q 447 3434 972 4092 
Q 1497 4750 2381 4750 
Q 2619 4750 2861 4703 
Q 3103 4656 3366 4563 
z
" transform="scale(0.015625)"/>
       </defs>
       <use xlink:href="#DejaVuSans-31"/>
       <use xlink:href="#DejaVuSans-36" x="63.623047"/>
      </g>
     </g>
    </g>
    <g id="xtick_3">
     <g id="line2d_3">
      <g>
       <use xlink:href="#mad596bdec0" x="517.524007" y="512.64" style="stroke: #000000; stroke-width: 0.8"/>
      </g>
     </g>
     <g id="text_3">
      <!-- 20 -->
      <g transform="translate(504.799007 534.836875) scale(0.2 -0.2)">
       <defs>
        <path id="DejaVuSans-30" d="M 2034 4250 
Q 1547 4250 1301 3770 
Q 1056 3291 1056 2328 
Q 1056 1369 1301 889 
Q 1547 409 2034 409 
Q 2525 409 2770 889 
Q 3016 1369 3016 2328 
Q 3016 3291 2770 3770 
Q 2525 4250 2034 4250 
z
M 2034 4750 
Q 2819 4750 3233 4129 
Q 3647 3509 3647 2328 
Q 3647 1150 3233 529 
Q 2819 -91 2034 -91 
Q 1250 -91 836 529 
Q 422 1150 422 2328 
Q 422 3509 836 4129 
Q 1250 4750 2034 4750 
z
" transform="scale(0.015625)"/>
       </defs>
       <use xlink:href="#DejaVuSans-32"/>
       <use xlink:href="#DejaVuSans-30" x="63.623047"/>
      </g>
     </g>
    </g>
    <g id="xtick_4">
     <g id="line2d_4">
      <g>
       <use xlink:href="#mad596bdec0" x="679.527273" y="512.64" style="stroke: #000000; stroke-width: 0.8"/>
      </g>
     </g>
     <g id="text_4">
      <!-- 24 -->
      <g transform="translate(666.802273 534.836875) scale(0.2 -0.2)">
       <defs>
        <path id="DejaVuSans-34" d="M 2419 4116 
L 825 1625 
L 2419 1625 
L 2419 4116 
z
M 2253 4666 
L 3047 4666 
L 3047 1625 
L 3713 1625 
L 3713 1100 
L 3047 1100 
L 3047 0 
L 2419 0 
L 2419 1100 
L 313 1100 
L 313 1709 
L 2253 4666 
z
" transform="scale(0.015625)"/>
       </defs>
       <use xlink:href="#DejaVuSans-32"/>
       <use xlink:href="#DejaVuSans-34" x="63.623047"/>
      </g>
     </g>
    </g>
    <g id="text_5">
     <!-- Indoor Operative Temperature (˚C) -->
     <g transform="translate(233.968125 570.0675) scale(0.24 -0.24)">
      <defs>
       <path id="DejaVuSans-49" d="M 628 4666 
L 1259 4666 
L 1259 0 
L 628 0 
L 628 4666 
z
" transform="scale(0.015625)"/>
       <path id="DejaVuSans-6e" d="M 3513 2113 
L 3513 0 
L 2938 0 
L 2938 2094 
Q 2938 2591 2744 2837 
Q 2550 3084 2163 3084 
Q 1697 3084 1428 2787 
Q 1159 2491 1159 1978 
L 1159 0 
L 581 0 
L 581 3500 
L 1159 3500 
L 1159 2956 
Q 1366 3272 1645 3428 
Q 1925 3584 2291 3584 
Q 2894 3584 3203 3211 
Q 3513 2838 3513 2113 
z
" transform="scale(0.015625)"/>
       <path id="DejaVuSans-64" d="M 2906 2969 
L 2906 4863 
L 3481 4863 
L 3481 0 
L 2906 0 
L 2906 525 
Q 2725 213 2448 61 
Q 2172 -91 1784 -91 
Q 1150 -91 751 415 
Q 353 922 353 1747 
Q 353 2572 751 3078 
Q 1150 3584 1784 3584 
Q 2172 3584 2448 3432 
Q 2725 3281 2906 2969 
z
M 947 1747 
Q 947 1113 1208 752 
Q 1469 391 1925 391 
Q 2381 391 2643 752 
Q 2906 1113 2906 1747 
Q 2906 2381 2643 2742 
Q 2381 3103 1925 3103 
Q 1469 3103 1208 2742 
Q 947 2381 947 1747 
z
" transform="scale(0.015625)"/>
       <path id="DejaVuSans-6f" d="M 1959 3097 
Q 1497 3097 1228 2736 
Q 959 2375 959 1747 
Q 959 1119 1226 758 
Q 1494 397 1959 397 
Q 2419 397 2687 759 
Q 2956 1122 2956 1747 
Q 2956 2369 2687 2733 
Q 2419 3097 1959 3097 
z
M 1959 3584 
Q 2709 3584 3137 3096 
Q 3566 2609 3566 1747 
Q 3566 888 3137 398 
Q 2709 -91 1959 -91 
Q 1206 -91 779 398 
Q 353 888 353 1747 
Q 353 2609 779 3096 
Q 1206 3584 1959 3584 
z
" transform="scale(0.015625)"/>
       <path id="DejaVuSans-72" d="M 2631 2963 
Q 2534 3019 2420 3045 
Q 2306 3072 2169 3072 
Q 1681 3072 1420 2755 
Q 1159 2438 1159 1844 
L 1159 0 
L 581 0 
L 581 3500 
L 1159 3500 
L 1159 2956 
Q 1341 3275 1631 3429 
Q 1922 3584 2338 3584 
Q 2397 3584 2469 3576 
Q 2541 3569 2628 3553 
L 2631 2963 
z
" transform="scale(0.015625)"/>
       <path id="DejaVuSans-20" transform="scale(0.015625)"/>
       <path id="DejaVuSans-4f" d="M 2522 4238 
Q 1834 4238 1429 3725 
Q 1025 3213 1025 2328 
Q 1025 1447 1429 934 
Q 1834 422 2522 422 
Q 3209 422 3611 934 
Q 4013 1447 4013 2328 
Q 4013 3213 3611 3725 
Q 3209 4238 2522 4238 
z
M 2522 4750 
Q 3503 4750 4090 4092 
Q 4678 3434 4678 2328 
Q 4678 1225 4090 567 
Q 3503 -91 2522 -91 
Q 1538 -91 948 565 
Q 359 1222 359 2328 
Q 359 3434 948 4092 
Q 1538 4750 2522 4750 
z
" transform="scale(0.015625)"/>
       <path id="DejaVuSans-70" d="M 1159 525 
L 1159 -1331 
L 581 -1331 
L 581 3500 
L 1159 3500 
L 1159 2969 
Q 1341 3281 1617 3432 
Q 1894 3584 2278 3584 
Q 2916 3584 3314 3078 
Q 3713 2572 3713 1747 
Q 3713 922 3314 415 
Q 2916 -91 2278 -91 
Q 1894 -91 1617 61 
Q 1341 213 1159 525 
z
M 3116 1747 
Q 3116 2381 2855 2742 
Q 2594 3103 2138 3103 
Q 1681 3103 1420 2742 
Q 1159 2381 1159 1747 
Q 1159 1113 1420 752 
Q 1681 391 2138 391 
Q 2594 391 2855 752 
Q 3116 1113 3116 1747 
z
" transform="scale(0.015625)"/>
       <path id="DejaVuSans-65" d="M 3597 1894 
L 3597 1613 
L 953 1613 
Q 991 1019 1311 708 
Q 1631 397 2203 397 
Q 2534 397 2845 478 
Q 3156 559 3463 722 
L 3463 178 
Q 3153 47 2828 -22 
Q 2503 -91 2169 -91 
Q 1331 -91 842 396 
Q 353 884 353 1716 
Q 353 2575 817 3079 
Q 1281 3584 2069 3584 
Q 2775 3584 3186 3129 
Q 3597 2675 3597 1894 
z
M 3022 2063 
Q 3016 2534 2758 2815 
Q 2500 3097 2075 3097 
Q 1594 3097 1305 2825 
Q 1016 2553 972 2059 
L 3022 2063 
z
" transform="scale(0.015625)"/>
       <path id="DejaVuSans-61" d="M 2194 1759 
Q 1497 1759 1228 1600 
Q 959 1441 959 1056 
Q 959 750 1161 570 
Q 1363 391 1709 391 
Q 2188 391 2477 730 
Q 2766 1069 2766 1631 
L 2766 1759 
L 2194 1759 
z
M 3341 1997 
L 3341 0 
L 2766 0 
L 2766 531 
Q 2569 213 2275 61 
Q 1981 -91 1556 -91 
Q 1019 -91 701 211 
Q 384 513 384 1019 
Q 384 1609 779 1909 
Q 1175 2209 1959 2209 
L 2766 2209 
L 2766 2266 
Q 2766 2663 2505 2880 
Q 2244 3097 1772 3097 
Q 1472 3097 1187 3025 
Q 903 2953 641 2809 
L 641 3341 
Q 956 3463 1253 3523 
Q 1550 3584 1831 3584 
Q 2591 3584 2966 3190 
Q 3341 2797 3341 1997 
z
" transform="scale(0.015625)"/>
       <path id="DejaVuSans-74" d="M 1172 4494 
L 1172 3500 
L 2356 3500 
L 2356 3053 
L 1172 3053 
L 1172 1153 
Q 1172 725 1289 603 
Q 1406 481 1766 481 
L 2356 481 
L 2356 0 
L 1766 0 
Q 1100 0 847 248 
Q 594 497 594 1153 
L 594 3053 
L 172 3053 
L 172 3500 
L 594 3500 
L 594 4494 
L 1172 4494 
z
" transform="scale(0.015625)"/>
       <path id="DejaVuSans-69" d="M 603 3500 
L 1178 3500 
L 1178 0 
L 603 0 
L 603 3500 
z
M 603 4863 
L 1178 4863 
L 1178 4134 
L 603 4134 
L 603 4863 
z
" transform="scale(0.015625)"/>
       <path id="DejaVuSans-76" d="M 191 3500 
L 800 3500 
L 1894 563 
L 2988 3500 
L 3597 3500 
L 2284 0 
L 1503 0 
L 191 3500 
z
" transform="scale(0.015625)"/>
       <path id="DejaVuSans-54" d="M -19 4666 
L 3928 4666 
L 3928 4134 
L 2272 4134 
L 2272 0 
L 1638 0 
L 1638 4134 
L -19 4134 
L -19 4666 
z
" transform="scale(0.015625)"/>
       <path id="DejaVuSans-6d" d="M 3328 2828 
Q 3544 3216 3844 3400 
Q 4144 3584 4550 3584 
Q 5097 3584 5394 3201 
Q 5691 2819 5691 2113 
L 5691 0 
L 5113 0 
L 5113 2094 
Q 5113 2597 4934 2840 
Q 4756 3084 4391 3084 
Q 3944 3084 3684 2787 
Q 3425 2491 3425 1978 
L 3425 0 
L 2847 0 
L 2847 2094 
Q 2847 2600 2669 2842 
Q 2491 3084 2119 3084 
Q 1678 3084 1418 2786 
Q 1159 2488 1159 1978 
L 1159 0 
L 581 0 
L 581 3500 
L 1159 3500 
L 1159 2956 
Q 1356 3278 1631 3431 
Q 1906 3584 2284 3584 
Q 2666 3584 2933 3390 
Q 3200 3197 3328 2828 
z
" transform="scale(0.015625)"/>
       <path id="DejaVuSans-75" d="M 544 1381 
L 544 3500 
L 1119 3500 
L 1119 1403 
Q 1119 906 1312 657 
Q 1506 409 1894 409 
Q 2359 409 2629 706 
Q 2900 1003 2900 1516 
L 2900 3500 
L 3475 3500 
L 3475 0 
L 2900 0 
L 2900 538 
Q 2691 219 2414 64 
Q 2138 -91 1772 -91 
Q 1169 -91 856 284 
Q 544 659 544 1381 
z
M 1991 3584 
L 1991 3584 
z
" transform="scale(0.015625)"/>
       <path id="DejaVuSans-28" d="M 1984 4856 
Q 1566 4138 1362 3434 
Q 1159 2731 1159 2009 
Q 1159 1288 1364 580 
Q 1569 -128 1984 -844 
L 1484 -844 
Q 1016 -109 783 600 
Q 550 1309 550 2009 
Q 550 2706 781 3412 
Q 1013 4119 1484 4856 
L 1984 4856 
z
" transform="scale(0.015625)"/>
       <path id="DejaVuSans-2da" d="M 2075 4763 
Q 2075 4959 1937 5096 
Q 1800 5234 1600 5234 
Q 1397 5234 1261 5098 
Q 1125 4963 1125 4763 
Q 1125 4559 1261 4423 
Q 1397 4288 1600 4288 
Q 1800 4288 1937 4425 
Q 2075 4563 2075 4763 
z
M 2456 4763 
Q 2456 4403 2207 4153 
Q 1959 3903 1600 3903 
Q 1241 3903 992 4153 
Q 744 4403 744 4763 
Q 744 5122 992 5370 
Q 1241 5619 1600 5619 
Q 1959 5619 2207 5370 
Q 2456 5122 2456 4763 
z
" transform="scale(0.015625)"/>
       <path id="DejaVuSans-43" d="M 4122 4306 
L 4122 3641 
Q 3803 3938 3442 4084 
Q 3081 4231 2675 4231 
Q 1875 4231 1450 3742 
Q 1025 3253 1025 2328 
Q 1025 1406 1450 917 
Q 1875 428 2675 428 
Q 3081 428 3442 575 
Q 3803 722 4122 1019 
L 4122 359 
Q 3791 134 3420 21 
Q 3050 -91 2638 -91 
Q 1578 -91 968 557 
Q 359 1206 359 2328 
Q 359 3453 968 4101 
Q 1578 4750 2638 4750 
Q 3056 4750 3426 4639 
Q 3797 4528 4122 4306 
z
" transform="scale(0.015625)"/>
       <path id="DejaVuSans-29" d="M 513 4856 
L 1013 4856 
Q 1481 4119 1714 3412 
Q 1947 2706 1947 2009 
Q 1947 1309 1714 600 
Q 1481 -109 1013 -844 
L 513 -844 
Q 928 -128 1133 580 
Q 1338 1288 1338 2009 
Q 1338 2731 1133 3434 
Q 928 4138 513 4856 
z
" transform="scale(0.015625)"/>
      </defs>
      <use xlink:href="#DejaVuSans-49"/>
      <use xlink:href="#DejaVuSans-6e" x="29.492188"/>
      <use xlink:href="#DejaVuSans-64" x="92.871094"/>
      <use xlink:href="#DejaVuSans-6f" x="156.347656"/>
      <use xlink:href="#DejaVuSans-6f" x="217.529297"/>
      <use xlink:href="#DejaVuSans-72" x="278.710938"/>
      <use xlink:href="#DejaVuSans-20" x="319.824219"/>
      <use xlink:href="#DejaVuSans-4f" x="351.611328"/>
      <use xlink:href="#DejaVuSans-70" x="430.322266"/>
      <use xlink:href="#DejaVuSans-65" x="493.798828"/>
      <use xlink:href="#DejaVuSans-72" x="555.322266"/>
      <use xlink:href="#DejaVuSans-61" x="596.435547"/>
      <use xlink:href="#DejaVuSans-74" x="657.714844"/>
      <use xlink:href="#DejaVuSans-69" x="696.923828"/>
      <use xlink:href="#DejaVuSans-76" x="724.707031"/>
      <use xlink:href="#DejaVuSans-65" x="783.886719"/>
      <use xlink:href="#DejaVuSans-20" x="845.410156"/>
      <use xlink:href="#DejaVuSans-54" x="877.197266"/>
      <use xlink:href="#DejaVuSans-65" x="921.28125"/>
      <use xlink:href="#DejaVuSans-6d" x="982.804688"/>
      <use xlink:href="#DejaVuSans-70" x="1080.216797"/>
      <use xlink:href="#DejaVuSans-65" x="1143.693359"/>
      <use xlink:href="#DejaVuSans-72" x="1205.216797"/>
      <use xlink:href="#DejaVuSans-61" x="1246.330078"/>
      <use xlink:href="#DejaVuSans-74" x="1307.609375"/>
      <use xlink:href="#DejaVuSans-75" x="1346.818359"/>
      <use xlink:href="#DejaVuSans-72" x="1410.197266"/>
      <use xlink:href="#DejaVuSans-65" x="1449.060547"/>
      <use xlink:href="#DejaVuSans-20" x="1510.583984"/>
      <use xlink:href="#DejaVuSans-28" x="1542.371094"/>
      <use xlink:href="#DejaVuSans-2da" x="1581.384766"/>
      <use xlink:href="#DejaVuSans-43" x="1631.384766"/>
      <use xlink:href="#DejaVuSans-29" x="1701.208984"/>
     </g>
    </g>
   </g>
   <g id="matplotlib.axis_2">
    <g id="ytick_1">
     <g id="line2d_5">
      <defs>
       <path id="m71acb65aae" d="M 0 0 
L -3.5 0 
" style="stroke: #000000; stroke-width: 0.8"/>
      </defs>
      <g>
       <use xlink:href="#m71acb65aae" x="108" y="484.574118" style="stroke: #000000; stroke-width: 0.8"/>
      </g>
     </g>
     <g id="text_6">
      <!-- 0.5 -->
      <g transform="translate(69.19375 492.172555) scale(0.2 -0.2)">
       <defs>
        <path id="DejaVuSans-2e" d="M 684 794 
L 1344 794 
L 1344 0 
L 684 0 
L 684 794 
z
" transform="scale(0.015625)"/>
        <path id="DejaVuSans-35" d="M 691 4666 
L 3169 4666 
L 3169 4134 
L 1269 4134 
L 1269 2991 
Q 1406 3038 1543 3061 
Q 1681 3084 1819 3084 
Q 2600 3084 3056 2656 
Q 3513 2228 3513 1497 
Q 3513 744 3044 326 
Q 2575 -91 1722 -91 
Q 1428 -91 1123 -41 
Q 819 9 494 109 
L 494 744 
Q 775 591 1075 516 
Q 1375 441 1709 441 
Q 2250 441 2565 725 
Q 2881 1009 2881 1497 
Q 2881 1984 2565 2268 
Q 2250 2553 1709 2553 
Q 1456 2553 1204 2497 
Q 953 2441 691 2322 
L 691 4666 
z
" transform="scale(0.015625)"/>
       </defs>
       <use xlink:href="#DejaVuSans-30"/>
       <use xlink:href="#DejaVuSans-2e" x="63.623047"/>
       <use xlink:href="#DejaVuSans-35" x="95.410156"/>
      </g>
     </g>
    </g>
    <g id="ytick_2">
     <g id="line2d_6">
      <g>
       <use xlink:href="#m71acb65aae" x="108" y="405.515294" style="stroke: #000000; stroke-width: 0.8"/>
      </g>
     </g>
     <g id="text_7">
      <!-- 0.6 -->
      <g transform="translate(69.19375 413.113732) scale(0.2 -0.2)">
       <use xlink:href="#DejaVuSans-30"/>
       <use xlink:href="#DejaVuSans-2e" x="63.623047"/>
       <use xlink:href="#DejaVuSans-36" x="95.410156"/>
      </g>
     </g>
    </g>
    <g id="ytick_3">
     <g id="line2d_7">
      <g>
       <use xlink:href="#m71acb65aae" x="108" y="326.456471" style="stroke: #000000; stroke-width: 0.8"/>
      </g>
     </g>
     <g id="text_8">
      <!-- 0.7 -->
      <g transform="translate(69.19375 334.054908) scale(0.2 -0.2)">
       <defs>
        <path id="DejaVuSans-37" d="M 525 4666 
L 3525 4666 
L 3525 4397 
L 1831 0 
L 1172 0 
L 2766 4134 
L 525 4134 
L 525 4666 
z
" transform="scale(0.015625)"/>
       </defs>
       <use xlink:href="#DejaVuSans-30"/>
       <use xlink:href="#DejaVuSans-2e" x="63.623047"/>
       <use xlink:href="#DejaVuSans-37" x="95.410156"/>
      </g>
     </g>
    </g>
    <g id="ytick_4">
     <g id="line2d_8">
      <g>
       <use xlink:href="#m71acb65aae" x="108" y="247.397647" style="stroke: #000000; stroke-width: 0.8"/>
      </g>
     </g>
     <g id="text_9">
      <!-- 0.8 -->
      <g transform="translate(69.19375 254.996085) scale(0.2 -0.2)">
       <defs>
        <path id="DejaVuSans-38" d="M 2034 2216 
Q 1584 2216 1326 1975 
Q 1069 1734 1069 1313 
Q 1069 891 1326 650 
Q 1584 409 2034 409 
Q 2484 409 2743 651 
Q 3003 894 3003 1313 
Q 3003 1734 2745 1975 
Q 2488 2216 2034 2216 
z
M 1403 2484 
Q 997 2584 770 2862 
Q 544 3141 544 3541 
Q 544 4100 942 4425 
Q 1341 4750 2034 4750 
Q 2731 4750 3128 4425 
Q 3525 4100 3525 3541 
Q 3525 3141 3298 2862 
Q 3072 2584 2669 2484 
Q 3125 2378 3379 2068 
Q 3634 1759 3634 1313 
Q 3634 634 3220 271 
Q 2806 -91 2034 -91 
Q 1263 -91 848 271 
Q 434 634 434 1313 
Q 434 1759 690 2068 
Q 947 2378 1403 2484 
z
M 1172 3481 
Q 1172 3119 1398 2916 
Q 1625 2713 2034 2713 
Q 2441 2713 2670 2916 
Q 2900 3119 2900 3481 
Q 2900 3844 2670 4047 
Q 2441 4250 2034 4250 
Q 1625 4250 1398 4047 
Q 1172 3844 1172 3481 
z
" transform="scale(0.015625)"/>
       </defs>
       <use xlink:href="#DejaVuSans-30"/>
       <use xlink:href="#DejaVuSans-2e" x="63.623047"/>
       <use xlink:href="#DejaVuSans-38" x="95.410156"/>
      </g>
     </g>
    </g>
    <g id="ytick_5">
     <g id="line2d_9">
      <g>
       <use xlink:href="#m71acb65aae" x="108" y="168.338824" style="stroke: #000000; stroke-width: 0.8"/>
      </g>
     </g>
     <g id="text_10">
      <!-- 0.9 -->
      <g transform="translate(69.19375 175.937261) scale(0.2 -0.2)">
       <defs>
        <path id="DejaVuSans-39" d="M 703 97 
L 703 672 
Q 941 559 1184 500 
Q 1428 441 1663 441 
Q 2288 441 2617 861 
Q 2947 1281 2994 2138 
Q 2813 1869 2534 1725 
Q 2256 1581 1919 1581 
Q 1219 1581 811 2004 
Q 403 2428 403 3163 
Q 403 3881 828 4315 
Q 1253 4750 1959 4750 
Q 2769 4750 3195 4129 
Q 3622 3509 3622 2328 
Q 3622 1225 3098 567 
Q 2575 -91 1691 -91 
Q 1453 -91 1209 -44 
Q 966 3 703 97 
z
M 1959 2075 
Q 2384 2075 2632 2365 
Q 2881 2656 2881 3163 
Q 2881 3666 2632 3958 
Q 2384 4250 1959 4250 
Q 1534 4250 1286 3958 
Q 1038 3666 1038 3163 
Q 1038 2656 1286 2365 
Q 1534 2075 1959 2075 
z
" transform="scale(0.015625)"/>
       </defs>
       <use xlink:href="#DejaVuSans-30"/>
       <use xlink:href="#DejaVuSans-2e" x="63.623047"/>
       <use xlink:href="#DejaVuSans-39" x="95.410156"/>
      </g>
     </g>
    </g>
    <g id="ytick_6">
     <g id="line2d_10">
      <g>
       <use xlink:href="#m71acb65aae" x="108" y="89.28" style="stroke: #000000; stroke-width: 0.8"/>
      </g>
     </g>
     <g id="text_11">
      <!-- 1.0 -->
      <g transform="translate(69.19375 96.878438) scale(0.2 -0.2)">
       <use xlink:href="#DejaVuSans-31"/>
       <use xlink:href="#DejaVuSans-2e" x="63.623047"/>
       <use xlink:href="#DejaVuSans-30" x="95.410156"/>
      </g>
     </g>
    </g>
    <g id="text_12">
     <!-- Theraml Satisfaction Rate -->
     <g transform="translate(54.2025 446.068125) rotate(-90) scale(0.24 -0.24)">
      <defs>
       <path id="DejaVuSans-68" d="M 3513 2113 
L 3513 0 
L 2938 0 
L 2938 2094 
Q 2938 2591 2744 2837 
Q 2550 3084 2163 3084 
Q 1697 3084 1428 2787 
Q 1159 2491 1159 1978 
L 1159 0 
L 581 0 
L 581 4863 
L 1159 4863 
L 1159 2956 
Q 1366 3272 1645 3428 
Q 1925 3584 2291 3584 
Q 2894 3584 3203 3211 
Q 3513 2838 3513 2113 
z
" transform="scale(0.015625)"/>
       <path id="DejaVuSans-6c" d="M 603 4863 
L 1178 4863 
L 1178 0 
L 603 0 
L 603 4863 
z
" transform="scale(0.015625)"/>
       <path id="DejaVuSans-53" d="M 3425 4513 
L 3425 3897 
Q 3066 4069 2747 4153 
Q 2428 4238 2131 4238 
Q 1616 4238 1336 4038 
Q 1056 3838 1056 3469 
Q 1056 3159 1242 3001 
Q 1428 2844 1947 2747 
L 2328 2669 
Q 3034 2534 3370 2195 
Q 3706 1856 3706 1288 
Q 3706 609 3251 259 
Q 2797 -91 1919 -91 
Q 1588 -91 1214 -16 
Q 841 59 441 206 
L 441 856 
Q 825 641 1194 531 
Q 1563 422 1919 422 
Q 2459 422 2753 634 
Q 3047 847 3047 1241 
Q 3047 1584 2836 1778 
Q 2625 1972 2144 2069 
L 1759 2144 
Q 1053 2284 737 2584 
Q 422 2884 422 3419 
Q 422 4038 858 4394 
Q 1294 4750 2059 4750 
Q 2388 4750 2728 4690 
Q 3069 4631 3425 4513 
z
" transform="scale(0.015625)"/>
       <path id="DejaVuSans-73" d="M 2834 3397 
L 2834 2853 
Q 2591 2978 2328 3040 
Q 2066 3103 1784 3103 
Q 1356 3103 1142 2972 
Q 928 2841 928 2578 
Q 928 2378 1081 2264 
Q 1234 2150 1697 2047 
L 1894 2003 
Q 2506 1872 2764 1633 
Q 3022 1394 3022 966 
Q 3022 478 2636 193 
Q 2250 -91 1575 -91 
Q 1294 -91 989 -36 
Q 684 19 347 128 
L 347 722 
Q 666 556 975 473 
Q 1284 391 1588 391 
Q 1994 391 2212 530 
Q 2431 669 2431 922 
Q 2431 1156 2273 1281 
Q 2116 1406 1581 1522 
L 1381 1569 
Q 847 1681 609 1914 
Q 372 2147 372 2553 
Q 372 3047 722 3315 
Q 1072 3584 1716 3584 
Q 2034 3584 2315 3537 
Q 2597 3491 2834 3397 
z
" transform="scale(0.015625)"/>
       <path id="DejaVuSans-66" d="M 2375 4863 
L 2375 4384 
L 1825 4384 
Q 1516 4384 1395 4259 
Q 1275 4134 1275 3809 
L 1275 3500 
L 2222 3500 
L 2222 3053 
L 1275 3053 
L 1275 0 
L 697 0 
L 697 3053 
L 147 3053 
L 147 3500 
L 697 3500 
L 697 3744 
Q 697 4328 969 4595 
Q 1241 4863 1831 4863 
L 2375 4863 
z
" transform="scale(0.015625)"/>
       <path id="DejaVuSans-63" d="M 3122 3366 
L 3122 2828 
Q 2878 2963 2633 3030 
Q 2388 3097 2138 3097 
Q 1578 3097 1268 2742 
Q 959 2388 959 1747 
Q 959 1106 1268 751 
Q 1578 397 2138 397 
Q 2388 397 2633 464 
Q 2878 531 3122 666 
L 3122 134 
Q 2881 22 2623 -34 
Q 2366 -91 2075 -91 
Q 1284 -91 818 406 
Q 353 903 353 1747 
Q 353 2603 823 3093 
Q 1294 3584 2113 3584 
Q 2378 3584 2631 3529 
Q 2884 3475 3122 3366 
z
" transform="scale(0.015625)"/>
       <path id="DejaVuSans-52" d="M 2841 2188 
Q 3044 2119 3236 1894 
Q 3428 1669 3622 1275 
L 4263 0 
L 3584 0 
L 2988 1197 
Q 2756 1666 2539 1819 
Q 2322 1972 1947 1972 
L 1259 1972 
L 1259 0 
L 628 0 
L 628 4666 
L 2053 4666 
Q 2853 4666 3247 4331 
Q 3641 3997 3641 3322 
Q 3641 2881 3436 2590 
Q 3231 2300 2841 2188 
z
M 1259 4147 
L 1259 2491 
L 2053 2491 
Q 2509 2491 2742 2702 
Q 2975 2913 2975 3322 
Q 2975 3731 2742 3939 
Q 2509 4147 2053 4147 
L 1259 4147 
z
" transform="scale(0.015625)"/>
      </defs>
      <use xlink:href="#DejaVuSans-54"/>
      <use xlink:href="#DejaVuSans-68" x="61.083984"/>
      <use xlink:href="#DejaVuSans-65" x="124.462891"/>
      <use xlink:href="#DejaVuSans-72" x="185.986328"/>
      <use xlink:href="#DejaVuSans-61" x="227.099609"/>
      <use xlink:href="#DejaVuSans-6d" x="288.378906"/>
      <use xlink:href="#DejaVuSans-6c" x="385.791016"/>
      <use xlink:href="#DejaVuSans-20" x="413.574219"/>
      <use xlink:href="#DejaVuSans-53" x="445.361328"/>
      <use xlink:href="#DejaVuSans-61" x="508.837891"/>
      <use xlink:href="#DejaVuSans-74" x="570.117188"/>
      <use xlink:href="#DejaVuSans-69" x="609.326172"/>
      <use xlink:href="#DejaVuSans-73" x="637.109375"/>
      <use xlink:href="#DejaVuSans-66" x="689.208984"/>
      <use xlink:href="#DejaVuSans-61" x="724.414062"/>
      <use xlink:href="#DejaVuSans-63" x="785.693359"/>
      <use xlink:href="#DejaVuSans-74" x="840.673828"/>
      <use xlink:href="#DejaVuSans-69" x="879.882812"/>
      <use xlink:href="#DejaVuSans-6f" x="907.666016"/>
      <use xlink:href="#DejaVuSans-6e" x="968.847656"/>
      <use xlink:href="#DejaVuSans-20" x="1032.226562"/>
      <use xlink:href="#DejaVuSans-52" x="1064.013672"/>
      <use xlink:href="#DejaVuSans-61" x="1131.246094"/>
      <use xlink:href="#DejaVuSans-74" x="1192.525391"/>
      <use xlink:href="#DejaVuSans-65" x="1231.734375"/>
     </g>
    </g>
   </g>
   <g id="line2d_11">
    <path d="M 138.436364 397.65156 
L 679.527273 104.543968 
L 679.527273 104.543968 
" clip-path="url(#p38e52ed1b1)" style="fill: none; stroke-dasharray: 7.4,3.2; stroke-dashoffset: 0; stroke: #0000ff; stroke-width: 2"/>
   </g>
   <g id="line2d_12">
    <path d="M 355.52074 113.48588 
L 720.028089 258.461483 
L 720.028089 258.461483 
" clip-path="url(#p38e52ed1b1)" style="fill: none; stroke-dasharray: 7.4,3.2; stroke-dashoffset: 0; stroke: #ff0000; stroke-width: 2"/>
   </g>
   <g id="patch_3">
    <path d="M 108 512.64 
L 108 69.12 
" style="fill: none; stroke: #000000; stroke-width: 0.8; stroke-linejoin: miter; stroke-linecap: square"/>
   </g>
   <g id="patch_4">
    <path d="M 777.6 512.64 
L 777.6 69.12 
" style="fill: none; stroke: #000000; stroke-width: 0.8; stroke-linejoin: miter; stroke-linecap: square"/>
   </g>
   <g id="patch_5">
    <path d="M 108 512.64 
L 777.6 512.64 
" style="fill: none; stroke: #000000; stroke-width: 0.8; stroke-linejoin: miter; stroke-linecap: square"/>
   </g>
   <g id="patch_6">
    <path d="M 108 69.12 
L 777.6 69.12 
" style="fill: none; stroke: #000000; stroke-width: 0.8; stroke-linejoin: miter; stroke-linecap: square"/>
   </g>
  </g>
 </g>
 <defs>
  <clipPath id="p38e52ed1b1">
   <rect x="108" y="69.12" width="669.6" height="443.52"/>
  </clipPath>
 </defs>
</svg>
