<?xml version="1.0" encoding="utf-8" standalone="no"?>
<!DOCTYPE svg PUBLIC "-//W3C//DTD SVG 1.1//EN"
  "http://www.w3.org/Graphics/SVG/1.1/DTD/svg11.dtd">
<svg xmlns:xlink="http://www.w3.org/1999/xlink" width="864pt" height="576pt" viewBox="0 0 864 576" xmlns="http://www.w3.org/2000/svg" version="1.1">
 <metadata>
  <rdf:RDF xmlns:dc="http://purl.org/dc/elements/1.1/" xmlns:cc="http://creativecommons.org/ns#" xmlns:rdf="http://www.w3.org/1999/02/22-rdf-syntax-ns#">
   <cc:Work>
    <dc:type rdf:resource="http://purl.org/dc/dcmitype/StillImage"/>
    <dc:date>2025-02-07T21:02:15.140608</dc:date>
    <dc:format>image/svg+xml</dc:format>
    <dc:creator>
     <cc:Agent>
      <dc:title>Matplotlib v3.9.4, https://matplotlib.org/</dc:title>
     </cc:Agent>
    </dc:creator>
   </cc:Work>
  </rdf:RDF>
 </metadata>
 <defs>
  <style type="text/css">*{stroke-linejoin: round; stroke-linecap: butt}</style>
 </defs>
 <g id="figure_1">
  <g id="patch_1">
   <path d="M 0 576 
L 864 576 
L 864 0 
L 0 0 
z
" style="fill: #ffffff"/>
  </g>
  <g id="axes_1">
   <g id="patch_2">
    <path d="M 108 512.64 
L 777.6 512.64 
L 777.6 69.12 
L 108 69.12 
z
" style="fill: #ffffff"/>
   </g>
   <g id="PathCollection_1">
    <path d="M 715.167991 253.982034 
C 715.464497 253.982034 715.748899 253.864231 715.958561 253.654569 
C 716.168222 253.444908 716.286025 253.160506 716.286025 252.864 
C 716.286025 252.567494 716.168222 252.283092 715.958561 252.073431 
C 715.748899 251.863769 715.464497 251.745966 715.167991 251.745966 
C 714.871485 251.745966 714.587083 251.863769 714.377422 252.073431 
C 714.16776 252.283092 714.049957 252.567494 714.049957 252.864 
C 714.049957 253.160506 714.16776 253.444908 714.377422 253.654569 
C 714.587083 253.864231 714.871485 253.982034 715.167991 253.982034 
z
" clip-path="url(#p2064262738)" style="fill: #add8e6; fill-opacity: 0.6; stroke: #0000ff; stroke-opacity: 0.6"/>
    <path d="M 674.667175 307.301253 
C 678.854109 307.301253 682.870122 305.637767 685.830732 302.677157 
C 688.791341 299.716547 690.454828 295.700535 690.454828 291.5136 
C 690.454828 287.326665 688.791341 283.310653 685.830732 280.350043 
C 682.870122 277.389433 678.854109 275.725947 674.667175 275.725947 
C 670.48024 275.725947 666.464228 277.389433 663.503618 280.350043 
C 660.543008 283.310653 658.879521 287.326665 658.879521 291.5136 
C 658.879521 295.700535 660.543008 299.716547 663.503618 302.677157 
C 666.464228 305.637767 670.48024 307.301253 674.667175 307.301253 
z
" clip-path="url(#p2064262738)" style="fill: #add8e6; fill-opacity: 0.6; stroke: #0000ff; stroke-opacity: 0.6"/>
    <path d="M 259.128797 373.929774 
C 261.830096 373.929774 264.42112 372.856537 266.331227 370.94643 
C 268.241334 369.036323 269.314571 366.445299 269.314571 363.744 
C 269.314571 361.042701 268.241334 358.451677 266.331227 356.54157 
C 264.42112 354.631463 261.830096 353.558226 259.128797 353.558226 
C 256.427498 353.558226 253.836474 354.631463 251.926367 356.54157 
C 250.01626 358.451677 248.943023 361.042701 248.943023 363.744 
C 248.943023 366.445299 250.01626 369.036323 251.926367 370.94643 
C 253.836474 372.856537 256.427498 373.929774 259.128797 373.929774 
z
" clip-path="url(#p2064262738)" style="fill: #add8e6; fill-opacity: 0.6; stroke: #0000ff; stroke-opacity: 0.6"/>
    <path d="M 440.572455 337.188476 
C 440.923286 337.188476 441.259795 337.049089 441.507869 336.801014 
C 441.755944 336.55294 441.895331 336.216431 441.895331 335.8656 
C 441.895331 335.514769 441.755944 335.17826 441.507869 334.930186 
C 441.259795 334.682111 440.923286 334.542724 440.572455 334.542724 
C 440.221624 334.542724 439.885116 334.682111 439.637041 334.930186 
C 439.388966 335.17826 439.249579 335.514769 439.249579 335.8656 
C 439.249579 336.216431 439.388966 336.55294 439.637041 336.801014 
C 439.885116 337.049089 440.221624 337.188476 440.572455 337.188476 
z
" clip-path="url(#p2064262738)" style="fill: #add8e6; fill-opacity: 0.6; stroke: #0000ff; stroke-opacity: 0.6"/>
    <path d="M 634.976375 323.267107 
C 635.163901 323.267107 635.343773 323.192602 635.476375 323.06 
C 635.608976 322.927398 635.683481 322.747527 635.683481 322.56 
C 635.683481 322.372473 635.608976 322.192602 635.476375 322.06 
C 635.343773 321.927398 635.163901 321.852893 634.976375 321.852893 
C 634.788848 321.852893 634.608976 321.927398 634.476375 322.06 
C 634.343773 322.192602 634.269268 322.372473 634.269268 322.56 
C 634.269268 322.747527 634.343773 322.927398 634.476375 323.06 
C 634.608976 323.192602 634.788848 323.267107 634.976375 323.267107 
z
" clip-path="url(#p2064262738)" style="fill: #add8e6; fill-opacity: 0.6; stroke: #0000ff; stroke-opacity: 0.6"/>
    <path d="M 432.472292 291.88 
C 432.737495 291.88 432.991872 291.774634 433.179399 291.587107 
C 433.366925 291.39958 433.472292 291.145203 433.472292 290.88 
C 433.472292 290.614797 433.366925 290.36042 433.179399 290.172893 
C 432.991872 289.985366 432.737495 289.88 432.472292 289.88 
C 432.207089 289.88 431.952712 289.985366 431.765185 290.172893 
C 431.577658 290.36042 431.472292 290.614797 431.472292 290.88 
C 431.472292 291.145203 431.577658 291.39958 431.765185 291.587107 
C 431.952712 291.774634 432.207089 291.88 432.472292 291.88 
z
" clip-path="url(#p2064262738)" style="fill: #add8e6; fill-opacity: 0.6; stroke: #0000ff; stroke-opacity: 0.6"/>
    <path d="M 391.971475 354.74 
C 392.104077 354.74 392.231265 354.687317 392.325029 354.593553 
C 392.418792 354.49979 392.471475 354.372602 392.471475 354.24 
C 392.471475 354.107398 392.418792 353.98021 392.325029 353.886447 
C 392.231265 353.792683 392.104077 353.74 391.971475 353.74 
C 391.838874 353.74 391.711685 353.792683 391.617922 353.886447 
C 391.524158 353.98021 391.471475 354.107398 391.471475 354.24 
C 391.471475 354.372602 391.524158 354.49979 391.617922 354.593553 
C 391.711685 354.687317 391.838874 354.74 391.971475 354.74 
z
" clip-path="url(#p2064262738)" style="fill: #add8e6; fill-opacity: 0.6; stroke: #0000ff; stroke-opacity: 0.6"/>
    <path d="M 412.626892 332.867317 
C 417.040751 332.867317 421.274424 331.113672 424.395494 327.992602 
C 427.516564 324.871532 429.270209 320.637859 429.270209 316.224 
C 429.270209 311.810141 427.516564 307.576468 424.395494 304.455398 
C 421.274424 301.334328 417.040751 299.580683 412.626892 299.580683 
C 408.213032 299.580683 403.979359 301.334328 400.858289 304.455398 
C 397.73722 307.576468 395.983575 311.810141 395.983575 316.224 
C 395.983575 320.637859 397.73722 324.871532 400.858289 327.992602 
C 403.979359 331.113672 408.213032 332.867317 412.626892 332.867317 
z
" clip-path="url(#p2064262738)" style="fill: #add8e6; fill-opacity: 0.6; stroke: #0000ff; stroke-opacity: 0.6"/>
    <path d="M 154.231682 307.217116 
C 154.867617 307.217116 155.477591 306.964456 155.927265 306.514782 
C 156.376938 306.065109 156.629598 305.455135 156.629598 304.8192 
C 156.629598 304.183265 156.376938 303.573291 155.927265 303.123618 
C 155.477591 302.673944 154.867617 302.421284 154.231682 302.421284 
C 153.595747 302.421284 152.985773 302.673944 152.5361 303.123618 
C 152.086426 303.573291 151.833766 304.183265 151.833766 304.8192 
C 151.833766 305.455135 152.086426 306.065109 152.5361 306.514782 
C 152.985773 306.964456 153.595747 307.217116 154.231682 307.217116 
z
" clip-path="url(#p2064262738)" style="fill: #add8e6; fill-opacity: 0.6; stroke: #0000ff; stroke-opacity: 0.6"/>
    <path d="M 138.436364 369.996722 
C 140.934768 369.996722 143.331181 369.004095 145.09782 367.237456 
C 146.864459 365.470817 147.857085 363.074405 147.857085 360.576 
C 147.857085 358.077595 146.864459 355.681183 145.09782 353.914544 
C 143.331181 352.147905 140.934768 351.155278 138.436364 351.155278 
C 135.937959 351.155278 133.541546 352.147905 131.774907 353.914544 
C 130.008268 355.681183 129.015642 358.077595 129.015642 360.576 
C 129.015642 363.074405 130.008268 365.470817 131.774907 367.237456 
C 133.541546 369.004095 135.937959 369.996722 138.436364 369.996722 
z
" clip-path="url(#p2064262738)" style="fill: #add8e6; fill-opacity: 0.6; stroke: #0000ff; stroke-opacity: 0.6"/>
    <path d="M 230.373217 400.555345 
C 233.414393 400.555345 236.331419 399.347073 238.481855 397.196637 
C 240.63229 395.046202 241.840562 392.129175 241.840562 389.088 
C 241.840562 386.046825 240.63229 383.129798 238.481855 380.979363 
C 236.331419 378.828927 233.414393 377.620655 230.373217 377.620655 
C 227.332042 377.620655 224.415016 378.828927 222.26458 380.979363 
C 220.114144 383.129798 218.905872 386.046825 218.905872 389.088 
C 218.905872 392.129175 220.114144 395.046202 222.26458 397.196637 
C 224.415016 399.347073 227.332042 400.555345 230.373217 400.555345 
z
" clip-path="url(#p2064262738)" style="fill: #add8e6; fill-opacity: 0.6; stroke: #0000ff; stroke-opacity: 0.6"/>
    <path d="M 551.544692 317.129378 
C 557.665945 317.129378 563.537312 314.697378 567.865691 310.368999 
C 572.194071 306.040619 574.62607 300.169253 574.62607 294.048 
C 574.62607 287.926747 572.194071 282.055381 567.865691 277.727001 
C 563.537312 273.398622 557.665945 270.966622 551.544692 270.966622 
C 545.423439 270.966622 539.552073 273.398622 535.223694 277.727001 
C 530.895314 282.055381 528.463315 287.926747 528.463315 294.048 
C 528.463315 300.169253 530.895314 306.040619 535.223694 310.368999 
C 539.552073 314.697378 545.423439 317.129378 551.544692 317.129378 
z
" clip-path="url(#p2064262738)" style="fill: #add8e6; fill-opacity: 0.6; stroke: #0000ff; stroke-opacity: 0.6"/>
    <path d="M 538.179423 274.704 
C 539.770642 274.704 541.296902 274.071802 542.422064 272.946641 
C 543.547225 271.821479 544.179423 270.295219 544.179423 268.704 
C 544.179423 267.112781 543.547225 265.586521 542.422064 264.461359 
C 541.296902 263.336198 539.770642 262.704 538.179423 262.704 
C 536.588204 262.704 535.061944 263.336198 533.936782 264.461359 
C 532.811621 265.586521 532.179423 267.112781 532.179423 268.704 
C 532.179423 270.295219 532.811621 271.821479 533.936782 272.946641 
C 535.061944 274.071802 536.588204 274.704 538.179423 274.704 
z
" clip-path="url(#p2064262738)" style="fill: #add8e6; fill-opacity: 0.6; stroke: #0000ff; stroke-opacity: 0.6"/>
    <path d="M 202.427654 324.77909 
C 204.528457 324.77909 206.5435 323.944432 208.028993 322.458939 
C 209.514485 320.973447 210.349144 318.958404 210.349144 316.8576 
C 210.349144 314.756796 209.514485 312.741753 208.028993 311.256261 
C 206.5435 309.770768 204.528457 308.93611 202.427654 308.93611 
C 200.32685 308.93611 198.311807 309.770768 196.826315 311.256261 
C 195.340822 312.741753 194.506164 314.756796 194.506164 316.8576 
C 194.506164 318.958404 195.340822 320.973447 196.826315 322.458939 
C 198.311807 323.944432 200.32685 324.77909 202.427654 324.77909 
z
" clip-path="url(#p2064262738)" style="fill: #add8e6; fill-opacity: 0.6; stroke: #0000ff; stroke-opacity: 0.6"/>
   </g>
   <g id="PathCollection_2">
    <path d="M 418.702014 342.686034 
C 418.99852 342.686034 419.282922 342.568231 419.492584 342.358569 
C 419.702245 342.148908 419.820048 341.864506 419.820048 341.568 
C 419.820048 341.271494 419.702245 340.987092 419.492584 340.777431 
C 419.282922 340.567769 418.99852 340.449966 418.702014 340.449966 
C 418.405508 340.449966 418.121106 340.567769 417.911445 340.777431 
C 417.701783 340.987092 417.58398 341.271494 417.58398 341.568 
C 417.58398 341.864506 417.701783 342.148908 417.911445 342.358569 
C 418.121106 342.568231 418.405508 342.686034 418.702014 342.686034 
z
" clip-path="url(#p2064262738)" style="fill: #f08080; fill-opacity: 0.6; stroke: #ff0000; stroke-opacity: 0.6"/>
    <path d="M 640.646489 278.463265 
C 646.091232 278.463265 651.313705 276.300046 655.16372 272.450031 
C 659.013735 268.600016 661.176954 263.377543 661.176954 257.9328 
C 661.176954 252.488057 659.013735 247.265584 655.16372 243.415569 
C 651.313705 239.565554 646.091232 237.402335 640.646489 237.402335 
C 635.201746 237.402335 629.979272 239.565554 626.129258 243.415569 
C 622.279243 247.265584 620.116024 252.488057 620.116024 257.9328 
C 620.116024 263.377543 622.279243 268.600016 626.129258 272.450031 
C 629.979272 276.300046 635.201746 278.463265 640.646489 278.463265 
z
" clip-path="url(#p2064262738)" style="fill: #f08080; fill-opacity: 0.6; stroke: #ff0000; stroke-opacity: 0.6"/>
    <path d="M 478.643223 305.638902 
C 479.532741 305.638902 480.385947 305.285493 481.014931 304.656508 
C 481.643915 304.027524 481.997325 303.174318 481.997325 302.2848 
C 481.997325 301.395282 481.643915 300.542076 481.014931 299.913092 
C 480.385947 299.284107 479.532741 298.930698 478.643223 298.930698 
C 477.753704 298.930698 476.900499 299.284107 476.271514 299.913092 
C 475.64253 300.542076 475.289121 301.395282 475.289121 302.2848 
C 475.289121 303.174318 475.64253 304.027524 476.271514 304.656508 
C 476.900499 305.285493 477.753704 305.638902 478.643223 305.638902 
z
" clip-path="url(#p2064262738)" style="fill: #f08080; fill-opacity: 0.6; stroke: #ff0000; stroke-opacity: 0.6"/>
    <path d="M 610.675885 253.961379 
C 611.975109 253.961379 613.221296 253.445192 614.139986 252.526502 
C 615.058677 251.607811 615.574864 250.361625 615.574864 249.0624 
C 615.574864 247.763175 615.058677 246.516989 614.139986 245.598298 
C 613.221296 244.679608 611.975109 244.163421 610.675885 244.163421 
C 609.37666 244.163421 608.130473 244.679608 607.211783 245.598298 
C 606.293092 246.516989 605.776905 247.763175 605.776905 249.0624 
C 605.776905 250.361625 606.293092 251.607811 607.211783 252.526502 
C 608.130473 253.445192 609.37666 253.961379 610.675885 253.961379 
z
" clip-path="url(#p2064262738)" style="fill: #f08080; fill-opacity: 0.6; stroke: #ff0000; stroke-opacity: 0.6"/>
    <path d="M 234.018291 291.38 
C 234.150892 291.38 234.278081 291.327317 234.371844 291.233553 
C 234.465608 291.13979 234.518291 291.012602 234.518291 290.88 
C 234.518291 290.747398 234.465608 290.62021 234.371844 290.526447 
C 234.278081 290.432683 234.150892 290.38 234.018291 290.38 
C 233.885689 290.38 233.758501 290.432683 233.664737 290.526447 
C 233.570974 290.62021 233.518291 290.747398 233.518291 290.88 
C 233.518291 291.012602 233.570974 291.13979 233.664737 291.233553 
C 233.758501 291.327317 233.885689 291.38 234.018291 291.38 
z
" clip-path="url(#p2064262738)" style="fill: #f08080; fill-opacity: 0.6; stroke: #ff0000; stroke-opacity: 0.6"/>
    <path d="M 387.921394 322.253264 
C 391.872831 322.253264 395.662959 320.683342 398.457047 317.889254 
C 401.251135 315.095166 402.821058 311.305037 402.821058 307.3536 
C 402.821058 303.402163 401.251135 299.612034 398.457047 296.817946 
C 395.662959 294.023858 391.872831 292.453936 387.921394 292.453936 
C 383.969956 292.453936 380.179828 294.023858 377.38574 296.817946 
C 374.591652 299.612034 373.021729 303.402163 373.021729 307.3536 
C 373.021729 311.305037 374.591652 315.095166 377.38574 317.889254 
C 380.179828 320.683342 383.969956 322.253264 387.921394 322.253264 
z
" clip-path="url(#p2064262738)" style="fill: #f08080; fill-opacity: 0.6; stroke: #ff0000; stroke-opacity: 0.6"/>
    <path d="M 632.141317 270.837225 
C 632.37099 270.837225 632.591287 270.745976 632.75369 270.583572 
C 632.916093 270.421169 633.007343 270.200873 633.007343 269.9712 
C 633.007343 269.741527 632.916093 269.521231 632.75369 269.358828 
C 632.591287 269.196424 632.37099 269.105175 632.141317 269.105175 
C 631.911645 269.105175 631.691348 269.196424 631.528945 269.358828 
C 631.366542 269.521231 631.275292 269.741527 631.275292 269.9712 
C 631.275292 270.200873 631.366542 270.421169 631.528945 270.583572 
C 631.691348 270.745976 631.911645 270.837225 632.141317 270.837225 
z
" clip-path="url(#p2064262738)" style="fill: #f08080; fill-opacity: 0.6; stroke: #ff0000; stroke-opacity: 0.6"/>
    <path d="M 639.026456 228.02 
C 639.159058 228.02 639.286246 227.967317 639.38001 227.873553 
C 639.473773 227.77979 639.526456 227.652602 639.526456 227.52 
C 639.526456 227.387398 639.473773 227.26021 639.38001 227.166447 
C 639.286246 227.072683 639.159058 227.02 639.026456 227.02 
C 638.893855 227.02 638.766666 227.072683 638.672903 227.166447 
C 638.579139 227.26021 638.526456 227.387398 638.526456 227.52 
C 638.526456 227.652602 638.579139 227.77979 638.672903 227.873553 
C 638.766666 227.967317 638.893855 228.02 639.026456 228.02 
z
" clip-path="url(#p2064262738)" style="fill: #f08080; fill-opacity: 0.6; stroke: #ff0000; stroke-opacity: 0.6"/>
    <path d="M 489.173435 317.50631 
C 489.849573 317.50631 490.498109 317.237677 490.976211 316.759576 
C 491.454312 316.281474 491.722945 315.632938 491.722945 314.9568 
C 491.722945 314.280662 491.454312 313.632126 490.976211 313.154024 
C 490.498109 312.675923 489.849573 312.40729 489.173435 312.40729 
C 488.497297 312.40729 487.848761 312.675923 487.370659 313.154024 
C 486.892558 313.632126 486.623925 314.280662 486.623925 314.9568 
C 486.623925 315.632938 486.892558 316.281474 487.370659 316.759576 
C 487.848761 317.237677 488.497297 317.50631 489.173435 317.50631 
z
" clip-path="url(#p2064262738)" style="fill: #f08080; fill-opacity: 0.6; stroke: #ff0000; stroke-opacity: 0.6"/>
    <path d="M 563.289929 306.3192 
C 563.687734 306.3192 564.069299 306.161151 564.350589 305.87986 
C 564.63188 305.59857 564.789929 305.217005 564.789929 304.8192 
C 564.789929 304.421395 564.63188 304.03983 564.350589 303.75854 
C 564.069299 303.477249 563.687734 303.3192 563.289929 303.3192 
C 562.892125 303.3192 562.510559 303.477249 562.229269 303.75854 
C 561.947979 304.03983 561.789929 304.421395 561.789929 304.8192 
C 561.789929 305.217005 561.947979 305.59857 562.229269 305.87986 
C 562.510559 306.161151 562.892125 306.3192 563.289929 306.3192 
z
" clip-path="url(#p2064262738)" style="fill: #f08080; fill-opacity: 0.6; stroke: #ff0000; stroke-opacity: 0.6"/>
    <path d="M 747.163636 237.713276 
C 747.514467 237.713276 747.850976 237.573889 748.099051 237.325814 
C 748.347125 237.07774 748.486512 236.741231 748.486512 236.3904 
C 748.486512 236.039569 748.347125 235.70306 748.099051 235.454986 
C 747.850976 235.206911 747.514467 235.067524 747.163636 235.067524 
C 746.812806 235.067524 746.476297 235.206911 746.228222 235.454986 
C 745.980147 235.70306 745.840761 236.039569 745.840761 236.3904 
C 745.840761 236.741231 745.980147 237.07774 746.228222 237.325814 
C 746.476297 237.573889 746.812806 237.713276 747.163636 237.713276 
z
" clip-path="url(#p2064262738)" style="fill: #f08080; fill-opacity: 0.6; stroke: #ff0000; stroke-opacity: 0.6"/>
    <path d="M 617.156015 293.13931 
C 622.628139 293.13931 627.876876 290.965212 631.746252 287.095836 
C 635.615628 283.226461 637.789726 277.977724 637.789726 272.5056 
C 637.789726 267.033476 635.615628 261.784739 631.746252 257.915364 
C 627.876876 254.045988 622.628139 251.87189 617.156015 251.87189 
C 611.683891 251.87189 606.435155 254.045988 602.565779 257.915364 
C 598.696403 261.784739 596.522305 267.033476 596.522305 272.5056 
C 596.522305 277.977724 598.696403 283.226461 602.565779 287.095836 
C 606.435155 290.965212 611.683891 293.13931 617.156015 293.13931 
z
" clip-path="url(#p2064262738)" style="fill: #f08080; fill-opacity: 0.6; stroke: #ff0000; stroke-opacity: 0.6"/>
    <path d="M 699.777681 290.450056 
C 703.360378 290.450056 706.796819 289.026636 709.330168 286.493287 
C 711.863517 283.959938 713.286937 280.523497 713.286937 276.9408 
C 713.286937 273.358103 711.863517 269.921662 709.330168 267.388313 
C 706.796819 264.854964 703.360378 263.431544 699.777681 263.431544 
C 696.194984 263.431544 692.758543 264.854964 690.225194 267.388313 
C 687.691845 269.921662 686.268425 273.358103 686.268425 276.9408 
C 686.268425 280.523497 687.691845 283.959938 690.225194 286.493287 
C 692.758543 289.026636 696.194984 290.450056 699.777681 290.450056 
z
" clip-path="url(#p2064262738)" style="fill: #f08080; fill-opacity: 0.6; stroke: #ff0000; stroke-opacity: 0.6"/>
    <path d="M 601.360697 305.538151 
C 604.743986 305.538151 607.989159 304.193956 610.381506 301.801609 
C 612.773853 299.409263 614.118048 296.164089 614.118048 292.7808 
C 614.118048 289.397511 612.773853 286.152337 610.381506 283.759991 
C 607.989159 281.367644 604.743986 280.023449 601.360697 280.023449 
C 597.977408 280.023449 594.732234 281.367644 592.339888 283.759991 
C 589.947541 286.152337 588.603346 289.397511 588.603346 292.7808 
C 588.603346 296.164089 589.947541 299.409263 592.339888 301.801609 
C 594.732234 304.193956 597.977408 305.538151 601.360697 305.538151 
z
" clip-path="url(#p2064262738)" style="fill: #f08080; fill-opacity: 0.6; stroke: #ff0000; stroke-opacity: 0.6"/>
    <path d="M 488.363419 298.316248 
C 490.6716 298.316248 492.885555 297.399197 494.517685 295.767067 
C 496.149816 294.134936 497.066866 291.920981 497.066866 289.6128 
C 497.066866 287.304619 496.149816 285.090664 494.517685 283.458533 
C 492.885555 281.826403 490.6716 280.909352 488.363419 280.909352 
C 486.055237 280.909352 483.841282 281.826403 482.209152 283.458533 
C 480.577021 285.090664 479.659971 287.304619 479.659971 289.6128 
C 479.659971 291.920981 480.577021 294.134936 482.209152 295.767067 
C 483.841282 297.399197 486.055237 298.316248 488.363419 298.316248 
z
" clip-path="url(#p2064262738)" style="fill: #f08080; fill-opacity: 0.6; stroke: #ff0000; stroke-opacity: 0.6"/>
    <path d="M 547.089603 313.520851 
C 547.548948 313.520851 547.989541 313.338351 548.314347 313.013545 
C 548.639154 312.688739 548.821653 312.248145 548.821653 311.7888 
C 548.821653 311.329455 548.639154 310.888861 548.314347 310.564055 
C 547.989541 310.239249 547.548948 310.056749 547.089603 310.056749 
C 546.630257 310.056749 546.189664 310.239249 545.864858 310.564055 
C 545.540052 310.888861 545.357552 311.329455 545.357552 311.7888 
C 545.357552 312.248145 545.540052 312.688739 545.864858 313.013545 
C 546.189664 313.338351 546.630257 313.520851 547.089603 313.520851 
z
" clip-path="url(#p2064262738)" style="fill: #f08080; fill-opacity: 0.6; stroke: #ff0000; stroke-opacity: 0.6"/>
    <path d="M 506.993794 302.095608 
C 507.615751 302.095608 508.212317 301.848502 508.652107 301.408712 
C 509.091896 300.968923 509.339002 300.372356 509.339002 299.7504 
C 509.339002 299.128444 509.091896 298.531877 508.652107 298.092088 
C 508.212317 297.652298 507.615751 297.405192 506.993794 297.405192 
C 506.371838 297.405192 505.775271 297.652298 505.335482 298.092088 
C 504.895692 298.531877 504.648586 299.128444 504.648586 299.7504 
C 504.648586 300.372356 504.895692 300.968923 505.335482 301.408712 
C 505.775271 301.848502 506.371838 302.095608 506.993794 302.095608 
z
" clip-path="url(#p2064262738)" style="fill: #f08080; fill-opacity: 0.6; stroke: #ff0000; stroke-opacity: 0.6"/>
    <path d="M 494.843549 301.192102 
C 497.074253 301.192102 499.213892 300.305834 500.791238 298.728489 
C 502.368583 297.151143 503.254851 295.011503 503.254851 292.7808 
C 503.254851 290.550097 502.368583 288.410457 500.791238 286.833111 
C 499.213892 285.255766 497.074253 284.369498 494.843549 284.369498 
C 492.612846 284.369498 490.473206 285.255766 488.895861 286.833111 
C 487.318515 288.410457 486.432247 290.550097 486.432247 292.7808 
C 486.432247 295.011503 487.318515 297.151143 488.895861 298.728489 
C 490.473206 300.305834 492.612846 301.192102 494.843549 301.192102 
z
" clip-path="url(#p2064262738)" style="fill: #f08080; fill-opacity: 0.6; stroke: #ff0000; stroke-opacity: 0.6"/>
    <path d="M 627.281219 302.304929 
C 635.184094 302.304929 642.764351 299.165084 648.352527 293.576908 
C 653.940703 287.988731 657.080548 280.408474 657.080548 272.5056 
C 657.080548 264.602726 653.940703 257.022469 648.352527 251.434292 
C 642.764351 245.846116 635.184094 242.706271 627.281219 242.706271 
C 619.378345 242.706271 611.798088 245.846116 606.209912 251.434292 
C 600.621736 257.022469 597.481891 264.602726 597.481891 272.5056 
C 597.481891 280.408474 600.621736 287.988731 606.209912 293.576908 
C 611.798088 299.165084 619.378345 302.304929 627.281219 302.304929 
z
" clip-path="url(#p2064262738)" style="fill: #f08080; fill-opacity: 0.6; stroke: #ff0000; stroke-opacity: 0.6"/>
   </g>
   <g id="matplotlib.axis_1">
    <g id="xtick_1">
     <g id="line2d_1">
      <defs>
       <path id="me283381a5d" d="M 0 0 
L 0 3.5 
" style="stroke: #000000; stroke-width: 0.8"/>
      </defs>
      <g>
       <use xlink:href="#me283381a5d" x="193.517474" y="512.64" style="stroke: #000000; stroke-width: 0.8"/>
      </g>
     </g>
     <g id="text_1">
      <!-- 12 -->
      <g transform="translate(180.792474 534.836875) scale(0.2 -0.2)">
       <defs>
        <path id="DejaVuSans-31" d="M 794 531 
L 1825 531 
L 1825 4091 
L 703 3866 
L 703 4441 
L 1819 4666 
L 2450 4666 
L 2450 531 
L 3481 531 
L 3481 0 
L 794 0 
L 794 531 
z
" transform="scale(0.015625)"/>
        <path id="DejaVuSans-32" d="M 1228 531 
L 3431 531 
L 3431 0 
L 469 0 
L 469 531 
Q 828 903 1448 1529 
Q 2069 2156 2228 2338 
Q 2531 2678 2651 2914 
Q 2772 3150 2772 3378 
Q 2772 3750 2511 3984 
Q 2250 4219 1831 4219 
Q 1534 4219 1204 4116 
Q 875 4013 500 3803 
L 500 4441 
Q 881 4594 1212 4672 
Q 1544 4750 1819 4750 
Q 2544 4750 2975 4387 
Q 3406 4025 3406 3419 
Q 3406 3131 3298 2873 
Q 3191 2616 2906 2266 
Q 2828 2175 2409 1742 
Q 1991 1309 1228 531 
z
" transform="scale(0.015625)"/>
       </defs>
       <use xlink:href="#DejaVuSans-31"/>
       <use xlink:href="#DejaVuSans-32" x="63.623047"/>
      </g>
     </g>
    </g>
    <g id="xtick_2">
     <g id="line2d_2">
      <g>
       <use xlink:href="#me283381a5d" x="355.52074" y="512.64" style="stroke: #000000; stroke-width: 0.8"/>
      </g>
     </g>
     <g id="text_2">
      <!-- 16 -->
      <g transform="translate(342.79574 534.836875) scale(0.2 -0.2)">
       <defs>
        <path id="DejaVuSans-36" d="M 2113 2584 
Q 1688 2584 1439 2293 
Q 1191 2003 1191 1497 
Q 1191 994 1439 701 
Q 1688 409 2113 409 
Q 2538 409 2786 701 
Q 3034 994 3034 1497 
Q 3034 2003 2786 2293 
Q 2538 2584 2113 2584 
z
M 3366 4563 
L 3366 3988 
Q 3128 4100 2886 4159 
Q 2644 4219 2406 4219 
Q 1781 4219 1451 3797 
Q 1122 3375 1075 2522 
Q 1259 2794 1537 2939 
Q 1816 3084 2150 3084 
Q 2853 3084 3261 2657 
Q 3669 2231 3669 1497 
Q 3669 778 3244 343 
Q 2819 -91 2113 -91 
Q 1303 -91 875 529 
Q 447 1150 447 2328 
Q 447 3434 972 4092 
Q 1497 4750 2381 4750 
Q 2619 4750 2861 4703 
Q 3103 4656 3366 4563 
z
" transform="scale(0.015625)"/>
       </defs>
       <use xlink:href="#DejaVuSans-31"/>
       <use xlink:href="#DejaVuSans-36" x="63.623047"/>
      </g>
     </g>
    </g>
    <g id="xtick_3">
     <g id="line2d_3">
      <g>
       <use xlink:href="#me283381a5d" x="517.524007" y="512.64" style="stroke: #000000; stroke-width: 0.8"/>
      </g>
     </g>
     <g id="text_3">
      <!-- 20 -->
      <g transform="translate(504.799007 534.836875) scale(0.2 -0.2)">
       <defs>
        <path id="DejaVuSans-30" d="M 2034 4250 
Q 1547 4250 1301 3770 
Q 1056 3291 1056 2328 
Q 1056 1369 1301 889 
Q 1547 409 2034 409 
Q 2525 409 2770 889 
Q 3016 1369 3016 2328 
Q 3016 3291 2770 3770 
Q 2525 4250 2034 4250 
z
M 2034 4750 
Q 2819 4750 3233 4129 
Q 3647 3509 3647 2328 
Q 3647 1150 3233 529 
Q 2819 -91 2034 -91 
Q 1250 -91 836 529 
Q 422 1150 422 2328 
Q 422 3509 836 4129 
Q 1250 4750 2034 4750 
z
" transform="scale(0.015625)"/>
       </defs>
       <use xlink:href="#DejaVuSans-32"/>
       <use xlink:href="#DejaVuSans-30" x="63.623047"/>
      </g>
     </g>
    </g>
    <g id="xtick_4">
     <g id="line2d_4">
      <g>
       <use xlink:href="#me283381a5d" x="679.527273" y="512.64" style="stroke: #000000; stroke-width: 0.8"/>
      </g>
     </g>
     <g id="text_4">
      <!-- 24 -->
      <g transform="translate(666.802273 534.836875) scale(0.2 -0.2)">
       <defs>
        <path id="DejaVuSans-34" d="M 2419 4116 
L 825 1625 
L 2419 1625 
L 2419 4116 
z
M 2253 4666 
L 3047 4666 
L 3047 1625 
L 3713 1625 
L 3713 1100 
L 3047 1100 
L 3047 0 
L 2419 0 
L 2419 1100 
L 313 1100 
L 313 1709 
L 2253 4666 
z
" transform="scale(0.015625)"/>
       </defs>
       <use xlink:href="#DejaVuSans-32"/>
       <use xlink:href="#DejaVuSans-34" x="63.623047"/>
      </g>
     </g>
    </g>
   </g>
   <g id="matplotlib.axis_2">
    <g id="ytick_1">
     <g id="line2d_5">
      <defs>
       <path id="mf0281c8317" d="M 0 0 
L -3.5 0 
" style="stroke: #000000; stroke-width: 0.8"/>
      </defs>
      <g>
       <use xlink:href="#mf0281c8317" x="108" y="480.96" style="stroke: #000000; stroke-width: 0.8"/>
      </g>
     </g>
     <g id="text_5">
      <!-- −3 -->
      <g transform="translate(71.515625 488.558437) scale(0.2 -0.2)">
       <defs>
        <path id="DejaVuSans-2212" d="M 678 2272 
L 4684 2272 
L 4684 1741 
L 678 1741 
L 678 2272 
z
" transform="scale(0.015625)"/>
        <path id="DejaVuSans-33" d="M 2597 2516 
Q 3050 2419 3304 2112 
Q 3559 1806 3559 1356 
Q 3559 666 3084 287 
Q 2609 -91 1734 -91 
Q 1441 -91 1130 -33 
Q 819 25 488 141 
L 488 750 
Q 750 597 1062 519 
Q 1375 441 1716 441 
Q 2309 441 2620 675 
Q 2931 909 2931 1356 
Q 2931 1769 2642 2001 
Q 2353 2234 1838 2234 
L 1294 2234 
L 1294 2753 
L 1863 2753 
Q 2328 2753 2575 2939 
Q 2822 3125 2822 3475 
Q 2822 3834 2567 4026 
Q 2313 4219 1838 4219 
Q 1578 4219 1281 4162 
Q 984 4106 628 3988 
L 628 4550 
Q 988 4650 1302 4700 
Q 1616 4750 1894 4750 
Q 2613 4750 3031 4423 
Q 3450 4097 3450 3541 
Q 3450 3153 3228 2886 
Q 3006 2619 2597 2516 
z
" transform="scale(0.015625)"/>
       </defs>
       <use xlink:href="#DejaVuSans-2212"/>
       <use xlink:href="#DejaVuSans-33" x="83.789062"/>
      </g>
     </g>
    </g>
    <g id="ytick_2">
     <g id="line2d_6">
      <g>
       <use xlink:href="#mf0281c8317" x="108" y="417.6" style="stroke: #000000; stroke-width: 0.8"/>
      </g>
     </g>
     <g id="text_6">
      <!-- −2 -->
      <g transform="translate(71.515625 425.198437) scale(0.2 -0.2)">
       <use xlink:href="#DejaVuSans-2212"/>
       <use xlink:href="#DejaVuSans-32" x="83.789062"/>
      </g>
     </g>
    </g>
    <g id="ytick_3">
     <g id="line2d_7">
      <g>
       <use xlink:href="#mf0281c8317" x="108" y="354.24" style="stroke: #000000; stroke-width: 0.8"/>
      </g>
     </g>
     <g id="text_7">
      <!-- −1 -->
      <g transform="translate(71.515625 361.838437) scale(0.2 -0.2)">
       <use xlink:href="#DejaVuSans-2212"/>
       <use xlink:href="#DejaVuSans-31" x="83.789062"/>
      </g>
     </g>
    </g>
    <g id="ytick_4">
     <g id="line2d_8">
      <g>
       <use xlink:href="#mf0281c8317" x="108" y="290.88" style="stroke: #000000; stroke-width: 0.8"/>
      </g>
     </g>
     <g id="text_8">
      <!-- 0 -->
      <g transform="translate(88.275 298.478437) scale(0.2 -0.2)">
       <use xlink:href="#DejaVuSans-30"/>
      </g>
     </g>
    </g>
    <g id="ytick_5">
     <g id="line2d_9">
      <g>
       <use xlink:href="#mf0281c8317" x="108" y="227.52" style="stroke: #000000; stroke-width: 0.8"/>
      </g>
     </g>
     <g id="text_9">
      <!-- 1 -->
      <g transform="translate(88.275 235.118437) scale(0.2 -0.2)">
       <use xlink:href="#DejaVuSans-31"/>
      </g>
     </g>
    </g>
    <g id="ytick_6">
     <g id="line2d_10">
      <g>
       <use xlink:href="#mf0281c8317" x="108" y="164.16" style="stroke: #000000; stroke-width: 0.8"/>
      </g>
     </g>
     <g id="text_10">
      <!-- 2 -->
      <g transform="translate(88.275 171.758438) scale(0.2 -0.2)">
       <use xlink:href="#DejaVuSans-32"/>
      </g>
     </g>
    </g>
    <g id="ytick_7">
     <g id="line2d_11">
      <g>
       <use xlink:href="#mf0281c8317" x="108" y="100.8" style="stroke: #000000; stroke-width: 0.8"/>
      </g>
     </g>
     <g id="text_11">
      <!-- 3 -->
      <g transform="translate(88.275 108.398438) scale(0.2 -0.2)">
       <use xlink:href="#DejaVuSans-33"/>
      </g>
     </g>
    </g>
   </g>
   <g id="line2d_12">
    <path d="M 138.436364 368.582818 
L 679.527273 278.010202 
L 679.527273 278.010202 
" clip-path="url(#p2064262738)" style="fill: none; stroke-dasharray: 7.4,3.2; stroke-dashoffset: 0; stroke: #0000ff; stroke-width: 2"/>
   </g>
   <g id="line2d_13">
    <path d="M 355.52074 311.499526 
L 720.028089 258.749028 
L 720.028089 258.749028 
" clip-path="url(#p2064262738)" style="fill: none; stroke-dasharray: 7.4,3.2; stroke-dashoffset: 0; stroke: #ff0000; stroke-width: 2"/>
   </g>
   <g id="patch_3">
    <path d="M 108 512.64 
L 108 69.12 
" style="fill: none; stroke: #000000; stroke-width: 0.8; stroke-linejoin: miter; stroke-linecap: square"/>
   </g>
   <g id="patch_4">
    <path d="M 777.6 512.64 
L 777.6 69.12 
" style="fill: none; stroke: #000000; stroke-width: 0.8; stroke-linejoin: miter; stroke-linecap: square"/>
   </g>
   <g id="patch_5">
    <path d="M 108 512.64 
L 777.6 512.64 
" style="fill: none; stroke: #000000; stroke-width: 0.8; stroke-linejoin: miter; stroke-linecap: square"/>
   </g>
   <g id="patch_6">
    <path d="M 108 69.12 
L 777.6 69.12 
" style="fill: none; stroke: #000000; stroke-width: 0.8; stroke-linejoin: miter; stroke-linecap: square"/>
   </g>
  </g>
 </g>
 <defs>
  <clipPath id="p2064262738">
   <rect x="108" y="69.12" width="669.6" height="443.52"/>
  </clipPath>
 </defs>
</svg>
