<?xml version="1.0" encoding="utf-8" standalone="no"?>
<!DOCTYPE svg PUBLIC "-//W3C//DTD SVG 1.1//EN"
  "http://www.w3.org/Graphics/SVG/1.1/DTD/svg11.dtd">
<svg xmlns:xlink="http://www.w3.org/1999/xlink" width="864pt" height="576pt" viewBox="0 0 864 576" xmlns="http://www.w3.org/2000/svg" version="1.1">
 <metadata>
  <rdf:RDF xmlns:dc="http://purl.org/dc/elements/1.1/" xmlns:cc="http://creativecommons.org/ns#" xmlns:rdf="http://www.w3.org/1999/02/22-rdf-syntax-ns#">
   <cc:Work>
    <dc:type rdf:resource="http://purl.org/dc/dcmitype/StillImage"/>
    <dc:date>2025-02-07T21:40:29.845195</dc:date>
    <dc:format>image/svg+xml</dc:format>
    <dc:creator>
     <cc:Agent>
      <dc:title>Matplotlib v3.9.4, https://matplotlib.org/</dc:title>
     </cc:Agent>
    </dc:creator>
   </cc:Work>
  </rdf:RDF>
 </metadata>
 <defs>
  <style type="text/css">*{stroke-linejoin: round; stroke-linecap: butt}</style>
 </defs>
 <g id="figure_1">
  <g id="patch_1">
   <path d="M 0 576 
L 864 576 
L 864 0 
L 0 0 
z
" style="fill: #ffffff"/>
  </g>
  <g id="axes_1">
   <g id="patch_2">
    <path d="M 108 512.64 
L 777.6 512.64 
L 777.6 69.12 
L 108 69.12 
z
" style="fill: #ffffff"/>
   </g>
   <g id="PathCollection_1">
    <path d="M 158.4804 101.284434 
C 158.776906 101.284434 159.061308 101.166631 159.270969 100.956969 
C 159.480631 100.747308 159.598434 100.462906 159.598434 100.1664 
C 159.598434 99.869894 159.480631 99.585492 159.270969 99.375831 
C 159.061308 99.166169 158.776906 99.048366 158.4804 99.048366 
C 158.183894 99.048366 157.899492 99.166169 157.689831 99.375831 
C 157.480169 99.585492 157.362366 99.869894 157.362366 100.1664 
C 157.362366 100.462906 157.480169 100.747308 157.689831 100.956969 
C 157.899492 101.166631 158.183894 101.284434 158.4804 101.284434 
z
" clip-path="url(#p1190afbb0f)" style="fill: #add8e6; fill-opacity: 0.5; stroke: #add8e6; stroke-opacity: 0.5"/>
    <path d="M 197.9124 143.674053 
C 202.099335 143.674053 206.115347 142.010567 209.075957 139.049957 
C 212.036567 136.089347 213.700053 132.073335 213.700053 127.8864 
C 213.700053 123.699465 212.036567 119.683453 209.075957 116.722843 
C 206.115347 113.762233 202.099335 112.098747 197.9124 112.098747 
C 193.725465 112.098747 189.709453 113.762233 186.748843 116.722843 
C 183.788233 119.683453 182.124747 123.699465 182.124747 127.8864 
C 182.124747 132.073335 183.788233 136.089347 186.748843 139.049957 
C 189.709453 142.010567 193.725465 143.674053 197.9124 143.674053 
z
" clip-path="url(#p1190afbb0f)" style="fill: #add8e6; fill-opacity: 0.5; stroke: #add8e6; stroke-opacity: 0.5"/>
    <path d="M 238.882 289.430876 
C 239.232831 289.430876 239.56934 289.291489 239.817414 289.043414 
C 240.065489 288.79534 240.204876 288.458831 240.204876 288.108 
C 240.204876 287.757169 240.065489 287.42066 239.817414 287.172586 
C 239.56934 286.924511 239.232831 286.785124 238.882 286.785124 
C 238.531169 286.785124 238.19466 286.924511 237.946586 287.172586 
C 237.698511 287.42066 237.559124 287.757169 237.559124 288.108 
C 237.559124 288.458831 237.698511 288.79534 237.946586 289.043414 
C 238.19466 289.291489 238.531169 289.430876 238.882 289.430876 
z
" clip-path="url(#p1190afbb0f)" style="fill: #add8e6; fill-opacity: 0.5; stroke: #add8e6; stroke-opacity: 0.5"/>
    <path d="M 251.5672 294.652 
C 251.832403 294.652 252.08678 294.546634 252.274307 294.359107 
C 252.461834 294.17158 252.5672 293.917203 252.5672 293.652 
C 252.5672 293.386797 252.461834 293.13242 252.274307 292.944893 
C 252.08678 292.757366 251.832403 292.652 251.5672 292.652 
C 251.301997 292.652 251.04762 292.757366 250.860093 292.944893 
C 250.672566 293.13242 250.5672 293.386797 250.5672 293.652 
C 250.5672 293.917203 250.672566 294.17158 250.860093 294.359107 
C 251.04762 294.546634 251.301997 294.652 251.5672 294.652 
z
" clip-path="url(#p1190afbb0f)" style="fill: #add8e6; fill-opacity: 0.5; stroke: #add8e6; stroke-opacity: 0.5"/>
    <path d="M 261.202 155.759107 
C 261.389527 155.759107 261.569398 155.684602 261.702 155.552 
C 261.834602 155.419398 261.909107 155.239527 261.909107 155.052 
C 261.909107 154.864473 261.834602 154.684602 261.702 154.552 
C 261.569398 154.419398 261.389527 154.344893 261.202 154.344893 
C 261.014473 154.344893 260.834602 154.419398 260.702 154.552 
C 260.569398 154.684602 260.494893 154.864473 260.494893 155.052 
C 260.494893 155.239527 260.569398 155.419398 260.702 155.552 
C 260.834602 155.684602 261.014473 155.759107 261.202 155.759107 
z
" clip-path="url(#p1190afbb0f)" style="fill: #add8e6; fill-opacity: 0.5; stroke: #add8e6; stroke-opacity: 0.5"/>
    <path d="M 292.4996 486.486316 
C 293.135535 486.486316 293.745509 486.233656 294.195182 485.783982 
C 294.644856 485.334309 294.897516 484.724335 294.897516 484.0884 
C 294.897516 483.452465 294.644856 482.842491 294.195182 482.392818 
C 293.745509 481.943144 293.135535 481.690484 292.4996 481.690484 
C 291.863665 481.690484 291.253691 481.943144 290.804018 482.392818 
C 290.354344 482.842491 290.101684 483.452465 290.101684 484.0884 
C 290.101684 484.724335 290.354344 485.334309 290.804018 485.783982 
C 291.253691 486.233656 291.863665 486.486316 292.4996 486.486316 
z
" clip-path="url(#p1190afbb0f)" style="fill: #add8e6; fill-opacity: 0.5; stroke: #add8e6; stroke-opacity: 0.5"/>
    <path d="M 311.6452 422.479374 
C 314.346499 422.479374 316.937523 421.406137 318.84763 419.49603 
C 320.757737 417.585923 321.830974 414.994899 321.830974 412.2936 
C 321.830974 409.592301 320.757737 407.001277 318.84763 405.09117 
C 316.937523 403.181063 314.346499 402.107826 311.6452 402.107826 
C 308.943901 402.107826 306.352877 403.181063 304.44277 405.09117 
C 302.532663 407.001277 301.459426 409.592301 301.459426 412.2936 
C 301.459426 414.994899 302.532663 417.585923 304.44277 419.49603 
C 306.352877 421.406137 308.943901 422.479374 311.6452 422.479374 
z
" clip-path="url(#p1190afbb0f)" style="fill: #add8e6; fill-opacity: 0.5; stroke: #add8e6; stroke-opacity: 0.5"/>
    <path d="M 321.156 323.878117 
C 325.569859 323.878117 329.803532 322.124472 332.924602 319.003402 
C 336.045672 315.882332 337.799317 311.648659 337.799317 307.2348 
C 337.799317 302.820941 336.045672 298.587268 332.924602 295.466198 
C 329.803532 292.345128 325.569859 290.591483 321.156 290.591483 
C 316.742141 290.591483 312.508468 292.345128 309.387398 295.466198 
C 306.266328 298.587268 304.512683 302.820941 304.512683 307.2348 
C 304.512683 311.648659 306.266328 315.882332 309.387398 319.003402 
C 312.508468 322.124472 316.742141 323.878117 321.156 323.878117 
z
" clip-path="url(#p1190afbb0f)" style="fill: #add8e6; fill-opacity: 0.5; stroke: #add8e6; stroke-opacity: 0.5"/>
    <path d="M 323.9088 235.236578 
C 330.030053 235.236578 335.901419 232.804578 340.229799 228.476199 
C 344.558178 224.147819 346.990178 218.276453 346.990178 212.1552 
C 346.990178 206.033947 344.558178 200.162581 340.229799 195.834201 
C 335.901419 191.505822 330.030053 189.073822 323.9088 189.073822 
C 317.787547 189.073822 311.916181 191.505822 307.587801 195.834201 
C 303.259422 200.162581 300.827422 206.033947 300.827422 212.1552 
C 300.827422 218.276453 303.259422 224.147819 307.587801 228.476199 
C 311.916181 232.804578 317.787547 235.236578 323.9088 235.236578 
z
" clip-path="url(#p1190afbb0f)" style="fill: #add8e6; fill-opacity: 0.5; stroke: #add8e6; stroke-opacity: 0.5"/>
    <path d="M 332.7748 443.442145 
C 335.815975 443.442145 338.733002 442.233873 340.883437 440.083437 
C 343.033873 437.933002 344.242145 435.015975 344.242145 431.9748 
C 344.242145 428.933625 343.033873 426.016598 340.883437 423.866163 
C 338.733002 421.715727 335.815975 420.507455 332.7748 420.507455 
C 329.733625 420.507455 326.816598 421.715727 324.666163 423.866163 
C 322.515727 426.016598 321.307455 428.933625 321.307455 431.9748 
C 321.307455 435.015975 322.515727 437.933002 324.666163 440.083437 
C 326.816598 442.233873 329.733625 443.442145 332.7748 443.442145 
z
" clip-path="url(#p1190afbb0f)" style="fill: #add8e6; fill-opacity: 0.5; stroke: #add8e6; stroke-opacity: 0.5"/>
    <path d="M 351.8088 227.3028 
C 353.400019 227.3028 354.926279 226.670602 356.051441 225.545441 
C 357.176602 224.420279 357.8088 222.894019 357.8088 221.3028 
C 357.8088 219.711581 357.176602 218.185321 356.051441 217.060159 
C 354.926279 215.934998 353.400019 215.3028 351.8088 215.3028 
C 350.217581 215.3028 348.691321 215.934998 347.566159 217.060159 
C 346.440998 218.185321 345.8088 219.711581 345.8088 221.3028 
C 345.8088 222.894019 346.440998 224.420279 347.566159 225.545441 
C 348.691321 226.670602 350.217581 227.3028 351.8088 227.3028 
z
" clip-path="url(#p1190afbb0f)" style="fill: #add8e6; fill-opacity: 0.5; stroke: #add8e6; stroke-opacity: 0.5"/>
    <path d="M 376.9684 459.02309 
C 379.069204 459.02309 381.084247 458.188432 382.569739 456.702939 
C 384.055232 455.217447 384.88989 453.202404 384.88989 451.1016 
C 384.88989 449.000796 384.055232 446.985753 382.569739 445.500261 
C 381.084247 444.014768 379.069204 443.18011 376.9684 443.18011 
C 374.867596 443.18011 372.852553 444.014768 371.367061 445.500261 
C 369.881568 446.985753 369.04691 449.000796 369.04691 451.1016 
C 369.04691 453.202404 369.881568 455.217447 371.367061 456.702939 
C 372.852553 458.188432 374.867596 459.02309 376.9684 459.02309 
z
" clip-path="url(#p1190afbb0f)" style="fill: #add8e6; fill-opacity: 0.5; stroke: #add8e6; stroke-opacity: 0.5"/>
   </g>
   <g id="PathCollection_2">
    <path d="M 390.4596 265.405302 
C 391.349118 265.405302 392.202324 265.051893 392.831308 264.422908 
C 393.460293 263.793924 393.813702 262.940718 393.813702 262.0512 
C 393.813702 261.161682 393.460293 260.308476 392.831308 259.679492 
C 392.202324 259.050507 391.349118 258.697098 390.4596 258.697098 
C 389.570082 258.697098 388.716876 259.050507 388.087892 259.679492 
C 387.458907 260.308476 387.105498 261.161682 387.105498 262.0512 
C 387.105498 262.940718 387.458907 263.793924 388.087892 264.422908 
C 388.716876 265.051893 389.570082 265.405302 390.4596 265.405302 
z
" clip-path="url(#p1190afbb0f)" style="fill: #f08080; fill-opacity: 0.5; stroke: #ff0000; stroke-opacity: 0.5"/>
    <path d="M 391.5384 339.043664 
C 395.489837 339.043664 399.279966 337.473742 402.074054 334.679654 
C 404.868142 331.885566 406.438064 328.095437 406.438064 324.144 
C 406.438064 320.192563 404.868142 316.402434 402.074054 313.608346 
C 399.279966 310.814258 395.489837 309.244336 391.5384 309.244336 
C 387.586963 309.244336 383.796834 310.814258 381.002746 313.608346 
C 378.208658 316.402434 376.638736 320.192563 376.638736 324.144 
C 376.638736 328.095437 378.208658 331.885566 381.002746 334.679654 
C 383.796834 337.473742 387.586963 339.043664 391.5384 339.043664 
z
" clip-path="url(#p1190afbb0f)" style="fill: #f08080; fill-opacity: 0.5; stroke: #ff0000; stroke-opacity: 0.5"/>
    <path d="M 391.5384 176.582979 
C 392.837625 176.582979 394.083811 176.066792 395.002502 175.148102 
C 395.921192 174.229411 396.437379 172.983225 396.437379 171.684 
C 396.437379 170.384775 395.921192 169.138589 395.002502 168.219898 
C 394.083811 167.301208 392.837625 166.785021 391.5384 166.785021 
C 390.239175 166.785021 388.992989 167.301208 388.074298 168.219898 
C 387.155608 169.138589 386.639421 170.384775 386.639421 171.684 
C 386.639421 172.983225 387.155608 174.229411 388.074298 175.148102 
C 388.992989 176.066792 390.239175 176.582979 391.5384 176.582979 
z
" clip-path="url(#p1190afbb0f)" style="fill: #f08080; fill-opacity: 0.5; stroke: #ff0000; stroke-opacity: 0.5"/>
    <path d="M 391.5384 429.98 
C 391.671002 429.98 391.79819 429.927317 391.891953 429.833553 
C 391.985717 429.73979 392.0384 429.612602 392.0384 429.48 
C 392.0384 429.347398 391.985717 429.22021 391.891953 429.126447 
C 391.79819 429.032683 391.671002 428.98 391.5384 428.98 
C 391.405798 428.98 391.27861 429.032683 391.184847 429.126447 
C 391.091083 429.22021 391.0384 429.347398 391.0384 429.48 
C 391.0384 429.612602 391.091083 429.73979 391.184847 429.833553 
C 391.27861 429.927317 391.405798 429.98 391.5384 429.98 
z
" clip-path="url(#p1190afbb0f)" style="fill: #f08080; fill-opacity: 0.5; stroke: #ff0000; stroke-opacity: 0.5"/>
    <path d="M 393.4356 171.701665 
C 398.880343 171.701665 404.102816 169.538446 407.952831 165.688431 
C 411.802846 161.838416 413.966065 156.615943 413.966065 151.1712 
C 413.966065 145.726457 411.802846 140.503984 407.952831 136.653969 
C 404.102816 132.803954 398.880343 130.640735 393.4356 130.640735 
C 387.990857 130.640735 382.768384 132.803954 378.918369 136.653969 
C 375.068354 140.503984 372.905135 145.726457 372.905135 151.1712 
C 372.905135 156.615943 375.068354 161.838416 378.918369 165.688431 
C 382.768384 169.538446 387.990857 171.701665 393.4356 171.701665 
z
" clip-path="url(#p1190afbb0f)" style="fill: #f08080; fill-opacity: 0.5; stroke: #ff0000; stroke-opacity: 0.5"/>
    <path d="M 394.4772 304.194834 
C 394.773706 304.194834 395.058108 304.077031 395.267769 303.867369 
C 395.477431 303.657708 395.595234 303.373306 395.595234 303.0768 
C 395.595234 302.780294 395.477431 302.495892 395.267769 302.286231 
C 395.058108 302.076569 394.773706 301.958766 394.4772 301.958766 
C 394.180694 301.958766 393.896292 302.076569 393.686631 302.286231 
C 393.476969 302.495892 393.359166 302.780294 393.359166 303.0768 
C 393.359166 303.373306 393.476969 303.657708 393.686631 303.867369 
C 393.896292 304.077031 394.180694 304.194834 394.4772 304.194834 
z
" clip-path="url(#p1190afbb0f)" style="fill: #f08080; fill-opacity: 0.5; stroke: #ff0000; stroke-opacity: 0.5"/>
    <path d="M 417.6032 257.39351 
C 418.279338 257.39351 418.927874 257.124877 419.405976 256.646776 
C 419.884077 256.168674 420.15271 255.520138 420.15271 254.844 
C 420.15271 254.167862 419.884077 253.519326 419.405976 253.041224 
C 418.927874 252.563123 418.279338 252.29449 417.6032 252.29449 
C 416.927062 252.29449 416.278526 252.563123 415.800424 253.041224 
C 415.322323 253.519326 415.05369 254.167862 415.05369 254.844 
C 415.05369 255.520138 415.322323 256.168674 415.800424 256.646776 
C 416.278526 257.124877 416.927062 257.39351 417.6032 257.39351 
z
" clip-path="url(#p1190afbb0f)" style="fill: #f08080; fill-opacity: 0.5; stroke: #ff0000; stroke-opacity: 0.5"/>
    <path d="M 441.25 79.590476 
C 441.600831 79.590476 441.93734 79.451089 442.185414 79.203014 
C 442.433489 78.95494 442.572876 78.618431 442.572876 78.2676 
C 442.572876 77.916769 442.433489 77.58026 442.185414 77.332186 
C 441.93734 77.084111 441.600831 76.944724 441.25 76.944724 
C 440.899169 76.944724 440.56266 77.084111 440.314586 77.332186 
C 440.066511 77.58026 439.927124 77.916769 439.927124 78.2676 
C 439.927124 78.618431 440.066511 78.95494 440.314586 79.203014 
C 440.56266 79.451089 440.899169 79.590476 441.25 79.590476 
z
" clip-path="url(#p1190afbb0f)" style="fill: #f08080; fill-opacity: 0.5; stroke: #ff0000; stroke-opacity: 0.5"/>
    <path d="M 444.8832 321.872 
C 445.015802 321.872 445.14299 321.819317 445.236753 321.725553 
C 445.330517 321.63179 445.3832 321.504602 445.3832 321.372 
C 445.3832 321.239398 445.330517 321.11221 445.236753 321.018447 
C 445.14299 320.924683 445.015802 320.872 444.8832 320.872 
C 444.750598 320.872 444.62341 320.924683 444.529647 321.018447 
C 444.435883 321.11221 444.3832 321.239398 444.3832 321.372 
C 444.3832 321.504602 444.435883 321.63179 444.529647 321.725553 
C 444.62341 321.819317 444.750598 321.872 444.8832 321.872 
z
" clip-path="url(#p1190afbb0f)" style="fill: #f08080; fill-opacity: 0.5; stroke: #ff0000; stroke-opacity: 0.5"/>
    <path d="M 456.3284 152.78 
C 456.461002 152.78 456.58819 152.727317 456.681953 152.633553 
C 456.775717 152.53979 456.8284 152.412602 456.8284 152.28 
C 456.8284 152.147398 456.775717 152.02021 456.681953 151.926447 
C 456.58819 151.832683 456.461002 151.78 456.3284 151.78 
C 456.195798 151.78 456.06861 151.832683 455.974847 151.926447 
C 455.881083 152.02021 455.8284 152.147398 455.8284 152.28 
C 455.8284 152.412602 455.881083 152.53979 455.974847 152.633553 
C 456.06861 152.727317 456.195798 152.78 456.3284 152.78 
z
" clip-path="url(#p1190afbb0f)" style="fill: #f08080; fill-opacity: 0.5; stroke: #ff0000; stroke-opacity: 0.5"/>
    <path d="M 462.0944 124.209256 
C 465.677097 124.209256 469.113538 122.785836 471.646887 120.252487 
C 474.180236 117.719138 475.603656 114.282697 475.603656 110.7 
C 475.603656 107.117303 474.180236 103.680862 471.646887 101.147513 
C 469.113538 98.614164 465.677097 97.190744 462.0944 97.190744 
C 458.511703 97.190744 455.075262 98.614164 452.541913 101.147513 
C 450.008564 103.680862 448.585144 107.117303 448.585144 110.7 
C 448.585144 114.282697 450.008564 117.719138 452.541913 120.252487 
C 455.075262 122.785836 458.511703 124.209256 462.0944 124.209256 
z
" clip-path="url(#p1190afbb0f)" style="fill: #f08080; fill-opacity: 0.5; stroke: #ff0000; stroke-opacity: 0.5"/>
    <path d="M 463.384 190.816951 
C 466.767289 190.816951 470.012463 189.472756 472.404809 187.080409 
C 474.797156 184.688063 476.141351 181.442889 476.141351 178.0596 
C 476.141351 174.676311 474.797156 171.431137 472.404809 169.038791 
C 470.012463 166.646444 466.767289 165.302249 463.384 165.302249 
C 460.000711 165.302249 456.755537 166.646444 454.363191 169.038791 
C 451.970844 171.431137 450.626649 174.676311 450.626649 178.0596 
C 450.626649 181.442889 451.970844 184.688063 454.363191 187.080409 
C 456.755537 189.472756 460.000711 190.816951 463.384 190.816951 
z
" clip-path="url(#p1190afbb0f)" style="fill: #f08080; fill-opacity: 0.5; stroke: #ff0000; stroke-opacity: 0.5"/>
    <path d="M 465.4672 259.374502 
C 467.697903 259.374502 469.837543 258.488234 471.414889 256.910889 
C 472.992234 255.333543 473.878502 253.193903 473.878502 250.9632 
C 473.878502 248.732497 472.992234 246.592857 471.414889 245.015511 
C 469.837543 243.438166 467.697903 242.551898 465.4672 242.551898 
C 463.236497 242.551898 461.096857 243.438166 459.519511 245.015511 
C 457.942166 246.592857 457.055898 248.732497 457.055898 250.9632 
C 457.055898 253.193903 457.942166 255.333543 459.519511 256.910889 
C 461.096857 258.488234 463.236497 259.374502 465.4672 259.374502 
z
" clip-path="url(#p1190afbb0f)" style="fill: #f08080; fill-opacity: 0.5; stroke: #ff0000; stroke-opacity: 0.5"/>
    <path d="M 498.5008 187.88251 
C 503.972924 187.88251 509.221661 185.708412 513.091036 181.839036 
C 516.960412 177.969661 519.13451 172.720924 519.13451 167.2488 
C 519.13451 161.776676 516.960412 156.527939 513.091036 152.658564 
C 509.221661 148.789188 503.972924 146.61509 498.5008 146.61509 
C 493.028676 146.61509 487.779939 148.789188 483.910564 152.658564 
C 480.041188 156.527939 477.86709 161.776676 477.86709 167.2488 
C 477.86709 172.720924 480.041188 177.969661 483.910564 181.839036 
C 487.779939 185.708412 493.028676 187.88251 498.5008 187.88251 
z
" clip-path="url(#p1190afbb0f)" style="fill: #f08080; fill-opacity: 0.5; stroke: #ff0000; stroke-opacity: 0.5"/>
    <path d="M 512.426 504.319922 
C 514.924405 504.319922 517.320817 503.327295 519.087456 501.560656 
C 520.854095 499.794017 521.846722 497.397605 521.846722 494.8992 
C 521.846722 492.400795 520.854095 490.004383 519.087456 488.237744 
C 517.320817 486.471105 514.924405 485.478478 512.426 485.478478 
C 509.927595 485.478478 507.531183 486.471105 505.764544 488.237744 
C 503.997905 490.004383 503.005278 492.400795 503.005278 494.8992 
C 503.005278 497.397605 503.997905 499.794017 505.764544 501.560656 
C 507.531183 503.327295 509.927595 504.319922 512.426 504.319922 
z
" clip-path="url(#p1190afbb0f)" style="fill: #f08080; fill-opacity: 0.5; stroke: #ff0000; stroke-opacity: 0.5"/>
    <path d="M 533.2456 205.6164 
C 533.643405 205.6164 534.02497 205.458351 534.30626 205.17706 
C 534.587551 204.89577 534.7456 204.514205 534.7456 204.1164 
C 534.7456 203.718595 534.587551 203.33703 534.30626 203.05574 
C 534.02497 202.774449 533.643405 202.6164 533.2456 202.6164 
C 532.847795 202.6164 532.46623 202.774449 532.18494 203.05574 
C 531.903649 203.33703 531.7456 203.718595 531.7456 204.1164 
C 531.7456 204.514205 531.903649 204.89577 532.18494 205.17706 
C 532.46623 205.458351 532.847795 205.6164 533.2456 205.6164 
z
" clip-path="url(#p1190afbb0f)" style="fill: #f08080; fill-opacity: 0.5; stroke: #ff0000; stroke-opacity: 0.5"/>
    <path d="M 602.1276 190.118129 
C 610.030474 190.118129 617.610731 186.978284 623.198908 181.390108 
C 628.787084 175.801931 631.926929 168.221674 631.926929 160.3188 
C 631.926929 152.415926 628.787084 144.835669 623.198908 139.247492 
C 617.610731 133.659316 610.030474 130.519471 602.1276 130.519471 
C 594.224726 130.519471 586.644469 133.659316 581.056292 139.247492 
C 575.468116 144.835669 572.328271 152.415926 572.328271 160.3188 
C 572.328271 168.221674 575.468116 175.801931 581.056292 181.390108 
C 586.644469 186.978284 594.224726 190.118129 602.1276 190.118129 
z
" clip-path="url(#p1190afbb0f)" style="fill: #f08080; fill-opacity: 0.5; stroke: #ff0000; stroke-opacity: 0.5"/>
    <path d="M 645.0812 157.858425 
C 645.310873 157.858425 645.531169 157.767176 645.693572 157.604772 
C 645.855976 157.442369 645.947225 157.222073 645.947225 156.9924 
C 645.947225 156.762727 645.855976 156.542431 645.693572 156.380028 
C 645.531169 156.217624 645.310873 156.126375 645.0812 156.126375 
C 644.851527 156.126375 644.631231 156.217624 644.468828 156.380028 
C 644.306424 156.542431 644.215175 156.762727 644.215175 156.9924 
C 644.215175 157.222073 644.306424 157.442369 644.468828 157.604772 
C 644.631231 157.767176 644.851527 157.858425 645.0812 157.858425 
z
" clip-path="url(#p1190afbb0f)" style="fill: #f08080; fill-opacity: 0.5; stroke: #ff0000; stroke-opacity: 0.5"/>
    <path d="M 667.0292 216.936451 
C 667.488545 216.936451 667.929139 216.753951 668.253945 216.429145 
C 668.578751 216.104339 668.761251 215.663745 668.761251 215.2044 
C 668.761251 214.745055 668.578751 214.304461 668.253945 213.979655 
C 667.929139 213.654849 667.488545 213.472349 667.0292 213.472349 
C 666.569855 213.472349 666.129261 213.654849 665.804455 213.979655 
C 665.479649 214.304461 665.297149 214.745055 665.297149 215.2044 
C 665.297149 215.663745 665.479649 216.104339 665.804455 216.429145 
C 666.129261 216.753951 666.569855 216.936451 667.0292 216.936451 
z
" clip-path="url(#p1190afbb0f)" style="fill: #f08080; fill-opacity: 0.5; stroke: #ff0000; stroke-opacity: 0.5"/>
    <path d="M 667.0292 264.101848 
C 669.337381 264.101848 671.551336 263.184797 673.183467 261.552667 
C 674.815597 259.920536 675.732648 257.706581 675.732648 255.3984 
C 675.732648 253.090219 674.815597 250.876264 673.183467 249.244133 
C 671.551336 247.612003 669.337381 246.694952 667.0292 246.694952 
C 664.721019 246.694952 662.507064 247.612003 660.874933 249.244133 
C 659.242803 250.876264 658.325752 253.090219 658.325752 255.3984 
C 658.325752 257.706581 659.242803 259.920536 660.874933 261.552667 
C 662.507064 263.184797 664.721019 264.101848 667.0292 264.101848 
z
" clip-path="url(#p1190afbb0f)" style="fill: #f08080; fill-opacity: 0.5; stroke: #ff0000; stroke-opacity: 0.5"/>
    <path d="M 767.7296 244.992408 
C 768.351556 244.992408 768.948123 244.745302 769.387912 244.305512 
C 769.827702 243.865723 770.074808 243.269156 770.074808 242.6472 
C 770.074808 242.025244 769.827702 241.428677 769.387912 240.988888 
C 768.948123 240.549098 768.351556 240.301992 767.7296 240.301992 
C 767.107644 240.301992 766.511077 240.549098 766.071288 240.988888 
C 765.631498 241.428677 765.384392 242.025244 765.384392 242.6472 
C 765.384392 243.269156 765.631498 243.865723 766.071288 244.305512 
C 766.511077 244.745302 767.107644 244.992408 767.7296 244.992408 
z
" clip-path="url(#p1190afbb0f)" style="fill: #f08080; fill-opacity: 0.5; stroke: #ff0000; stroke-opacity: 0.5"/>
   </g>
   <g id="matplotlib.axis_1">
    <g id="xtick_1">
     <g id="line2d_1">
      <defs>
       <path id="m6e6b80a81e" d="M 0 0 
L 0 3.5 
" style="stroke: #000000; stroke-width: 0.8"/>
      </defs>
      <g>
       <use xlink:href="#m6e6b80a81e" x="132.8" y="512.64" style="stroke: #000000; stroke-width: 0.8"/>
      </g>
     </g>
     <g id="text_1">
      <!-- −2000 -->
      <g transform="translate(98.970313 534.836875) scale(0.2 -0.2)">
       <defs>
        <path id="DejaVuSans-2212" d="M 678 2272 
L 4684 2272 
L 4684 1741 
L 678 1741 
L 678 2272 
z
" transform="scale(0.015625)"/>
        <path id="DejaVuSans-32" d="M 1228 531 
L 3431 531 
L 3431 0 
L 469 0 
L 469 531 
Q 828 903 1448 1529 
Q 2069 2156 2228 2338 
Q 2531 2678 2651 2914 
Q 2772 3150 2772 3378 
Q 2772 3750 2511 3984 
Q 2250 4219 1831 4219 
Q 1534 4219 1204 4116 
Q 875 4013 500 3803 
L 500 4441 
Q 881 4594 1212 4672 
Q 1544 4750 1819 4750 
Q 2544 4750 2975 4387 
Q 3406 4025 3406 3419 
Q 3406 3131 3298 2873 
Q 3191 2616 2906 2266 
Q 2828 2175 2409 1742 
Q 1991 1309 1228 531 
z
" transform="scale(0.015625)"/>
        <path id="DejaVuSans-30" d="M 2034 4250 
Q 1547 4250 1301 3770 
Q 1056 3291 1056 2328 
Q 1056 1369 1301 889 
Q 1547 409 2034 409 
Q 2525 409 2770 889 
Q 3016 1369 3016 2328 
Q 3016 3291 2770 3770 
Q 2525 4250 2034 4250 
z
M 2034 4750 
Q 2819 4750 3233 4129 
Q 3647 3509 3647 2328 
Q 3647 1150 3233 529 
Q 2819 -91 2034 -91 
Q 1250 -91 836 529 
Q 422 1150 422 2328 
Q 422 3509 836 4129 
Q 1250 4750 2034 4750 
z
" transform="scale(0.015625)"/>
       </defs>
       <use xlink:href="#DejaVuSans-2212"/>
       <use xlink:href="#DejaVuSans-32" x="83.789062"/>
       <use xlink:href="#DejaVuSans-30" x="147.412109"/>
       <use xlink:href="#DejaVuSans-30" x="211.035156"/>
       <use xlink:href="#DejaVuSans-30" x="274.658203"/>
      </g>
     </g>
    </g>
    <g id="xtick_2">
     <g id="line2d_2">
      <g>
       <use xlink:href="#m6e6b80a81e" x="256.8" y="512.64" style="stroke: #000000; stroke-width: 0.8"/>
      </g>
     </g>
     <g id="text_2">
      <!-- −1000 -->
      <g transform="translate(222.970313 534.836875) scale(0.2 -0.2)">
       <defs>
        <path id="DejaVuSans-31" d="M 794 531 
L 1825 531 
L 1825 4091 
L 703 3866 
L 703 4441 
L 1819 4666 
L 2450 4666 
L 2450 531 
L 3481 531 
L 3481 0 
L 794 0 
L 794 531 
z
" transform="scale(0.015625)"/>
       </defs>
       <use xlink:href="#DejaVuSans-2212"/>
       <use xlink:href="#DejaVuSans-31" x="83.789062"/>
       <use xlink:href="#DejaVuSans-30" x="147.412109"/>
       <use xlink:href="#DejaVuSans-30" x="211.035156"/>
       <use xlink:href="#DejaVuSans-30" x="274.658203"/>
      </g>
     </g>
    </g>
    <g id="xtick_3">
     <g id="line2d_3">
      <g>
       <use xlink:href="#m6e6b80a81e" x="380.8" y="512.64" style="stroke: #000000; stroke-width: 0.8"/>
      </g>
     </g>
     <g id="text_3">
      <!-- 0 -->
      <g transform="translate(374.4375 534.836875) scale(0.2 -0.2)">
       <use xlink:href="#DejaVuSans-30"/>
      </g>
     </g>
    </g>
    <g id="xtick_4">
     <g id="line2d_4">
      <g>
       <use xlink:href="#m6e6b80a81e" x="504.8" y="512.64" style="stroke: #000000; stroke-width: 0.8"/>
      </g>
     </g>
     <g id="text_4">
      <!-- 1000 -->
      <g transform="translate(479.35 534.836875) scale(0.2 -0.2)">
       <use xlink:href="#DejaVuSans-31"/>
       <use xlink:href="#DejaVuSans-30" x="63.623047"/>
       <use xlink:href="#DejaVuSans-30" x="127.246094"/>
       <use xlink:href="#DejaVuSans-30" x="190.869141"/>
      </g>
     </g>
    </g>
    <g id="xtick_5">
     <g id="line2d_5">
      <g>
       <use xlink:href="#m6e6b80a81e" x="628.8" y="512.64" style="stroke: #000000; stroke-width: 0.8"/>
      </g>
     </g>
     <g id="text_5">
      <!-- 2000 -->
      <g transform="translate(603.35 534.836875) scale(0.2 -0.2)">
       <use xlink:href="#DejaVuSans-32"/>
       <use xlink:href="#DejaVuSans-30" x="63.623047"/>
       <use xlink:href="#DejaVuSans-30" x="127.246094"/>
       <use xlink:href="#DejaVuSans-30" x="190.869141"/>
      </g>
     </g>
    </g>
    <g id="xtick_6">
     <g id="line2d_6">
      <g>
       <use xlink:href="#m6e6b80a81e" x="752.8" y="512.64" style="stroke: #000000; stroke-width: 0.8"/>
      </g>
     </g>
     <g id="text_6">
      <!-- 3000 -->
      <g transform="translate(727.35 534.836875) scale(0.2 -0.2)">
       <defs>
        <path id="DejaVuSans-33" d="M 2597 2516 
Q 3050 2419 3304 2112 
Q 3559 1806 3559 1356 
Q 3559 666 3084 287 
Q 2609 -91 1734 -91 
Q 1441 -91 1130 -33 
Q 819 25 488 141 
L 488 750 
Q 750 597 1062 519 
Q 1375 441 1716 441 
Q 2309 441 2620 675 
Q 2931 909 2931 1356 
Q 2931 1769 2642 2001 
Q 2353 2234 1838 2234 
L 1294 2234 
L 1294 2753 
L 1863 2753 
Q 2328 2753 2575 2939 
Q 2822 3125 2822 3475 
Q 2822 3834 2567 4026 
Q 2313 4219 1838 4219 
Q 1578 4219 1281 4162 
Q 984 4106 628 3988 
L 628 4550 
Q 988 4650 1302 4700 
Q 1616 4750 1894 4750 
Q 2613 4750 3031 4423 
Q 3450 4097 3450 3541 
Q 3450 3153 3228 2886 
Q 3006 2619 2597 2516 
z
" transform="scale(0.015625)"/>
       </defs>
       <use xlink:href="#DejaVuSans-33"/>
       <use xlink:href="#DejaVuSans-30" x="63.623047"/>
       <use xlink:href="#DejaVuSans-30" x="127.246094"/>
       <use xlink:href="#DejaVuSans-30" x="190.869141"/>
      </g>
     </g>
    </g>
   </g>
   <g id="matplotlib.axis_2">
    <g id="ytick_1">
     <g id="line2d_7">
      <defs>
       <path id="me6510083e6" d="M 0 0 
L -3.5 0 
" style="stroke: #000000; stroke-width: 0.8"/>
      </defs>
      <g>
       <use xlink:href="#me6510083e6" x="108" y="457.2" style="stroke: #000000; stroke-width: 0.8"/>
      </g>
     </g>
     <g id="text_7">
      <!-- 12 -->
      <g transform="translate(75.55 464.798438) scale(0.2 -0.2)">
       <use xlink:href="#DejaVuSans-31"/>
       <use xlink:href="#DejaVuSans-32" x="63.623047"/>
      </g>
     </g>
    </g>
    <g id="ytick_2">
     <g id="line2d_8">
      <g>
       <use xlink:href="#me6510083e6" x="108" y="346.32" style="stroke: #000000; stroke-width: 0.8"/>
      </g>
     </g>
     <g id="text_8">
      <!-- 16 -->
      <g transform="translate(75.55 353.918437) scale(0.2 -0.2)">
       <defs>
        <path id="DejaVuSans-36" d="M 2113 2584 
Q 1688 2584 1439 2293 
Q 1191 2003 1191 1497 
Q 1191 994 1439 701 
Q 1688 409 2113 409 
Q 2538 409 2786 701 
Q 3034 994 3034 1497 
Q 3034 2003 2786 2293 
Q 2538 2584 2113 2584 
z
M 3366 4563 
L 3366 3988 
Q 3128 4100 2886 4159 
Q 2644 4219 2406 4219 
Q 1781 4219 1451 3797 
Q 1122 3375 1075 2522 
Q 1259 2794 1537 2939 
Q 1816 3084 2150 3084 
Q 2853 3084 3261 2657 
Q 3669 2231 3669 1497 
Q 3669 778 3244 343 
Q 2819 -91 2113 -91 
Q 1303 -91 875 529 
Q 447 1150 447 2328 
Q 447 3434 972 4092 
Q 1497 4750 2381 4750 
Q 2619 4750 2861 4703 
Q 3103 4656 3366 4563 
z
" transform="scale(0.015625)"/>
       </defs>
       <use xlink:href="#DejaVuSans-31"/>
       <use xlink:href="#DejaVuSans-36" x="63.623047"/>
      </g>
     </g>
    </g>
    <g id="ytick_3">
     <g id="line2d_9">
      <g>
       <use xlink:href="#me6510083e6" x="108" y="235.44" style="stroke: #000000; stroke-width: 0.8"/>
      </g>
     </g>
     <g id="text_9">
      <!-- 20 -->
      <g transform="translate(75.55 243.038438) scale(0.2 -0.2)">
       <use xlink:href="#DejaVuSans-32"/>
       <use xlink:href="#DejaVuSans-30" x="63.623047"/>
      </g>
     </g>
    </g>
    <g id="ytick_4">
     <g id="line2d_10">
      <g>
       <use xlink:href="#me6510083e6" x="108" y="124.56" style="stroke: #000000; stroke-width: 0.8"/>
      </g>
     </g>
     <g id="text_10">
      <!-- 24 -->
      <g transform="translate(75.55 132.158438) scale(0.2 -0.2)">
       <defs>
        <path id="DejaVuSans-34" d="M 2419 4116 
L 825 1625 
L 2419 1625 
L 2419 4116 
z
M 2253 4666 
L 3047 4666 
L 3047 1625 
L 3713 1625 
L 3713 1100 
L 3047 1100 
L 3047 0 
L 2419 0 
L 2419 1100 
L 313 1100 
L 313 1709 
L 2253 4666 
z
" transform="scale(0.015625)"/>
       </defs>
       <use xlink:href="#DejaVuSans-32"/>
       <use xlink:href="#DejaVuSans-34" x="63.623047"/>
      </g>
     </g>
    </g>
   </g>
   <g id="line2d_11">
    <path d="M 158.4804 40.077962 
L 165.806042 57.595836 
L 173.131683 74.52681 
L 180.457325 90.870884 
L 187.782967 106.628058 
L 195.108608 121.798331 
L 202.43425 136.381705 
L 208.538952 148.08619 
L 214.643653 159.383106 
L 220.748354 170.272452 
L 226.853056 180.754229 
L 232.957757 190.828436 
L 239.062459 200.495074 
L 245.16716 209.754142 
L 251.271861 218.605641 
L 257.376563 227.049571 
L 263.481264 235.085931 
L 269.585966 242.714721 
L 275.690667 249.935942 
L 281.795368 256.749594 
L 287.90007 263.155676 
L 292.783831 267.987092 
L 297.667592 272.557663 
L 302.551353 276.86739 
L 307.435114 280.916273 
L 312.318875 284.70431 
L 317.202636 288.231504 
L 322.086398 291.497853 
L 326.970159 294.503358 
L 331.85392 297.248018 
L 336.737681 299.731833 
L 341.621442 301.954805 
L 346.505203 303.916931 
L 351.388964 305.618214 
L 356.272725 307.058652 
L 361.156487 308.238245 
L 366.040248 309.156994 
L 370.924009 309.814898 
L 375.80777 310.211959 
L 380.691531 310.348174 
L 380.691531 310.348174 
" clip-path="url(#p1190afbb0f)" style="fill: none; stroke: #0000ff; stroke-width: 1.5; stroke-linecap: square"/>
   </g>
   <g id="line2d_12">
    <path d="M 381.912471 198.140523 
L 399.005635 198.018429 
L 416.098799 197.68027 
L 433.191963 197.126046 
L 450.285127 196.355757 
L 467.378291 195.369404 
L 484.471455 194.166986 
L 501.564619 192.748503 
L 518.657783 191.113956 
L 535.750947 189.263344 
L 552.844111 187.196667 
L 569.937275 184.913925 
L 587.030438 182.415119 
L 604.123602 179.700248 
L 621.216766 176.769312 
L 638.30993 173.622312 
L 655.403094 170.259247 
L 672.496258 166.680117 
L 689.589422 162.884922 
L 706.682586 158.873663 
L 723.77575 154.646339 
L 740.868914 150.20295 
L 757.962078 145.543497 
L 767.7296 142.783943 
L 767.7296 142.783943 
" clip-path="url(#p1190afbb0f)" style="fill: none; stroke: #ff0000; stroke-width: 1.5; stroke-linecap: square"/>
   </g>
   <g id="line2d_13">
    <path d="M 380.8 512.64 
L 380.8 69.12 
" clip-path="url(#p1190afbb0f)" style="fill: none; stroke-dasharray: 10,10; stroke-dashoffset: 0; stroke: #000000; stroke-width: 2"/>
   </g>
   <g id="patch_3">
    <path d="M 108 512.64 
L 108 69.12 
" style="fill: none; stroke: #000000; stroke-width: 0.8; stroke-linejoin: miter; stroke-linecap: square"/>
   </g>
   <g id="patch_4">
    <path d="M 777.6 512.64 
L 777.6 69.12 
" style="fill: none; stroke: #000000; stroke-width: 0.8; stroke-linejoin: miter; stroke-linecap: square"/>
   </g>
   <g id="patch_5">
    <path d="M 108 512.64 
L 777.6 512.64 
" style="fill: none; stroke: #000000; stroke-width: 0.8; stroke-linejoin: miter; stroke-linecap: square"/>
   </g>
   <g id="patch_6">
    <path d="M 108 69.12 
L 777.6 69.12 
" style="fill: none; stroke: #000000; stroke-width: 0.8; stroke-linejoin: miter; stroke-linecap: square"/>
   </g>
  </g>
 </g>
 <defs>
  <clipPath id="p1190afbb0f">
   <rect x="108" y="69.12" width="669.6" height="443.52"/>
  </clipPath>
 </defs>
</svg>
