<?xml version="1.0" encoding="utf-8" standalone="no"?>
<!DOCTYPE svg PUBLIC "-//W3C//DTD SVG 1.1//EN"
  "http://www.w3.org/Graphics/SVG/1.1/DTD/svg11.dtd">
<svg xmlns:xlink="http://www.w3.org/1999/xlink" width="864pt" height="576pt" viewBox="0 0 864 576" xmlns="http://www.w3.org/2000/svg" version="1.1">
 <metadata>
  <rdf:RDF xmlns:dc="http://purl.org/dc/elements/1.1/" xmlns:cc="http://creativecommons.org/ns#" xmlns:rdf="http://www.w3.org/1999/02/22-rdf-syntax-ns#">
   <cc:Work>
    <dc:type rdf:resource="http://purl.org/dc/dcmitype/StillImage"/>
    <dc:date>2025-02-07T21:39:00.369625</dc:date>
    <dc:format>image/svg+xml</dc:format>
    <dc:creator>
     <cc:Agent>
      <dc:title>Matplotlib v3.9.4, https://matplotlib.org/</dc:title>
     </cc:Agent>
    </dc:creator>
   </cc:Work>
  </rdf:RDF>
 </metadata>
 <defs>
  <style type="text/css">*{stroke-linejoin: round; stroke-linecap: butt}</style>
 </defs>
 <g id="figure_1">
  <g id="patch_1">
   <path d="M 0 576 
L 864 576 
L 864 0 
L 0 0 
z
" style="fill: #ffffff"/>
  </g>
  <g id="axes_1">
   <g id="patch_2">
    <path d="M 108 512.64 
L 777.6 512.64 
L 777.6 69.12 
L 108 69.12 
z
" style="fill: #ffffff"/>
   </g>
   <g id="PathCollection_1">
    <path d="M 158.4804 253.982034 
C 158.776906 253.982034 159.061308 253.864231 159.270969 253.654569 
C 159.480631 253.444908 159.598434 253.160506 159.598434 252.864 
C 159.598434 252.567494 159.480631 252.283092 159.270969 252.073431 
C 159.061308 251.863769 158.776906 251.745966 158.4804 251.745966 
C 158.183894 251.745966 157.899492 251.863769 157.689831 252.073431 
C 157.480169 252.283092 157.362366 252.567494 157.362366 252.864 
C 157.362366 253.160506 157.480169 253.444908 157.689831 253.654569 
C 157.899492 253.864231 158.183894 253.982034 158.4804 253.982034 
z
" clip-path="url(#pd05e6ba383)" style="fill: #add8e6; fill-opacity: 0.5; stroke: #add8e6; stroke-opacity: 0.5"/>
    <path d="M 197.9124 307.301253 
C 202.099335 307.301253 206.115347 305.637767 209.075957 302.677157 
C 212.036567 299.716547 213.700053 295.700535 213.700053 291.5136 
C 213.700053 287.326665 212.036567 283.310653 209.075957 280.350043 
C 206.115347 277.389433 202.099335 275.725947 197.9124 275.725947 
C 193.725465 275.725947 189.709453 277.389433 186.748843 280.350043 
C 183.788233 283.310653 182.124747 287.326665 182.124747 291.5136 
C 182.124747 295.700535 183.788233 299.716547 186.748843 302.677157 
C 189.709453 305.637767 193.725465 307.301253 197.9124 307.301253 
z
" clip-path="url(#pd05e6ba383)" style="fill: #add8e6; fill-opacity: 0.5; stroke: #add8e6; stroke-opacity: 0.5"/>
    <path d="M 238.882 337.188476 
C 239.232831 337.188476 239.56934 337.049089 239.817414 336.801014 
C 240.065489 336.55294 240.204876 336.216431 240.204876 335.8656 
C 240.204876 335.514769 240.065489 335.17826 239.817414 334.930186 
C 239.56934 334.682111 239.232831 334.542724 238.882 334.542724 
C 238.531169 334.542724 238.19466 334.682111 237.946586 334.930186 
C 237.698511 335.17826 237.559124 335.514769 237.559124 335.8656 
C 237.559124 336.216431 237.698511 336.55294 237.946586 336.801014 
C 238.19466 337.049089 238.531169 337.188476 238.882 337.188476 
z
" clip-path="url(#pd05e6ba383)" style="fill: #add8e6; fill-opacity: 0.5; stroke: #add8e6; stroke-opacity: 0.5"/>
    <path d="M 251.5672 291.88 
C 251.832403 291.88 252.08678 291.774634 252.274307 291.587107 
C 252.461834 291.39958 252.5672 291.145203 252.5672 290.88 
C 252.5672 290.614797 252.461834 290.36042 252.274307 290.172893 
C 252.08678 289.985366 251.832403 289.88 251.5672 289.88 
C 251.301997 289.88 251.04762 289.985366 250.860093 290.172893 
C 250.672566 290.36042 250.5672 290.614797 250.5672 290.88 
C 250.5672 291.145203 250.672566 291.39958 250.860093 291.587107 
C 251.04762 291.774634 251.301997 291.88 251.5672 291.88 
z
" clip-path="url(#pd05e6ba383)" style="fill: #add8e6; fill-opacity: 0.5; stroke: #add8e6; stroke-opacity: 0.5"/>
    <path d="M 261.202 323.267107 
C 261.389527 323.267107 261.569398 323.192602 261.702 323.06 
C 261.834602 322.927398 261.909107 322.747527 261.909107 322.56 
C 261.909107 322.372473 261.834602 322.192602 261.702 322.06 
C 261.569398 321.927398 261.389527 321.852893 261.202 321.852893 
C 261.014473 321.852893 260.834602 321.927398 260.702 322.06 
C 260.569398 322.192602 260.494893 322.372473 260.494893 322.56 
C 260.494893 322.747527 260.569398 322.927398 260.702 323.06 
C 260.834602 323.192602 261.014473 323.267107 261.202 323.267107 
z
" clip-path="url(#pd05e6ba383)" style="fill: #add8e6; fill-opacity: 0.5; stroke: #add8e6; stroke-opacity: 0.5"/>
    <path d="M 292.4996 307.217116 
C 293.135535 307.217116 293.745509 306.964456 294.195182 306.514782 
C 294.644856 306.065109 294.897516 305.455135 294.897516 304.8192 
C 294.897516 304.183265 294.644856 303.573291 294.195182 303.123618 
C 293.745509 302.673944 293.135535 302.421284 292.4996 302.421284 
C 291.863665 302.421284 291.253691 302.673944 290.804018 303.123618 
C 290.354344 303.573291 290.101684 304.183265 290.101684 304.8192 
C 290.101684 305.455135 290.354344 306.065109 290.804018 306.514782 
C 291.253691 306.964456 291.863665 307.217116 292.4996 307.217116 
z
" clip-path="url(#pd05e6ba383)" style="fill: #add8e6; fill-opacity: 0.5; stroke: #add8e6; stroke-opacity: 0.5"/>
    <path d="M 311.6452 373.929774 
C 314.346499 373.929774 316.937523 372.856537 318.84763 370.94643 
C 320.757737 369.036323 321.830974 366.445299 321.830974 363.744 
C 321.830974 361.042701 320.757737 358.451677 318.84763 356.54157 
C 316.937523 354.631463 314.346499 353.558226 311.6452 353.558226 
C 308.943901 353.558226 306.352877 354.631463 304.44277 356.54157 
C 302.532663 358.451677 301.459426 361.042701 301.459426 363.744 
C 301.459426 366.445299 302.532663 369.036323 304.44277 370.94643 
C 306.352877 372.856537 308.943901 373.929774 311.6452 373.929774 
z
" clip-path="url(#pd05e6ba383)" style="fill: #add8e6; fill-opacity: 0.5; stroke: #add8e6; stroke-opacity: 0.5"/>
    <path d="M 321.156 332.867317 
C 325.569859 332.867317 329.803532 331.113672 332.924602 327.992602 
C 336.045672 324.871532 337.799317 320.637859 337.799317 316.224 
C 337.799317 311.810141 336.045672 307.576468 332.924602 304.455398 
C 329.803532 301.334328 325.569859 299.580683 321.156 299.580683 
C 316.742141 299.580683 312.508468 301.334328 309.387398 304.455398 
C 306.266328 307.576468 304.512683 311.810141 304.512683 316.224 
C 304.512683 320.637859 306.266328 324.871532 309.387398 327.992602 
C 312.508468 331.113672 316.742141 332.867317 321.156 332.867317 
z
" clip-path="url(#pd05e6ba383)" style="fill: #add8e6; fill-opacity: 0.5; stroke: #add8e6; stroke-opacity: 0.5"/>
    <path d="M 323.9088 317.129378 
C 330.030053 317.129378 335.901419 314.697378 340.229799 310.368999 
C 344.558178 306.040619 346.990178 300.169253 346.990178 294.048 
C 346.990178 287.926747 344.558178 282.055381 340.229799 277.727001 
C 335.901419 273.398622 330.030053 270.966622 323.9088 270.966622 
C 317.787547 270.966622 311.916181 273.398622 307.587801 277.727001 
C 303.259422 282.055381 300.827422 287.926747 300.827422 294.048 
C 300.827422 300.169253 303.259422 306.040619 307.587801 310.368999 
C 311.916181 314.697378 317.787547 317.129378 323.9088 317.129378 
z
" clip-path="url(#pd05e6ba383)" style="fill: #add8e6; fill-opacity: 0.5; stroke: #add8e6; stroke-opacity: 0.5"/>
    <path d="M 332.7748 400.555345 
C 335.815975 400.555345 338.733002 399.347073 340.883437 397.196637 
C 343.033873 395.046202 344.242145 392.129175 344.242145 389.088 
C 344.242145 386.046825 343.033873 383.129798 340.883437 380.979363 
C 338.733002 378.828927 335.815975 377.620655 332.7748 377.620655 
C 329.733625 377.620655 326.816598 378.828927 324.666163 380.979363 
C 322.515727 383.129798 321.307455 386.046825 321.307455 389.088 
C 321.307455 392.129175 322.515727 395.046202 324.666163 397.196637 
C 326.816598 399.347073 329.733625 400.555345 332.7748 400.555345 
z
" clip-path="url(#pd05e6ba383)" style="fill: #add8e6; fill-opacity: 0.5; stroke: #add8e6; stroke-opacity: 0.5"/>
    <path d="M 351.8088 274.704 
C 353.400019 274.704 354.926279 274.071802 356.051441 272.946641 
C 357.176602 271.821479 357.8088 270.295219 357.8088 268.704 
C 357.8088 267.112781 357.176602 265.586521 356.051441 264.461359 
C 354.926279 263.336198 353.400019 262.704 351.8088 262.704 
C 350.217581 262.704 348.691321 263.336198 347.566159 264.461359 
C 346.440998 265.586521 345.8088 267.112781 345.8088 268.704 
C 345.8088 270.295219 346.440998 271.821479 347.566159 272.946641 
C 348.691321 274.071802 350.217581 274.704 351.8088 274.704 
z
" clip-path="url(#pd05e6ba383)" style="fill: #add8e6; fill-opacity: 0.5; stroke: #add8e6; stroke-opacity: 0.5"/>
    <path d="M 376.9684 324.77909 
C 379.069204 324.77909 381.084247 323.944432 382.569739 322.458939 
C 384.055232 320.973447 384.88989 318.958404 384.88989 316.8576 
C 384.88989 314.756796 384.055232 312.741753 382.569739 311.256261 
C 381.084247 309.770768 379.069204 308.93611 376.9684 308.93611 
C 374.867596 308.93611 372.852553 309.770768 371.367061 311.256261 
C 369.881568 312.741753 369.04691 314.756796 369.04691 316.8576 
C 369.04691 318.958404 369.881568 320.973447 371.367061 322.458939 
C 372.852553 323.944432 374.867596 324.77909 376.9684 324.77909 
z
" clip-path="url(#pd05e6ba383)" style="fill: #add8e6; fill-opacity: 0.5; stroke: #add8e6; stroke-opacity: 0.5"/>
   </g>
   <g id="PathCollection_2">
    <path d="M 390.4596 305.638902 
C 391.349118 305.638902 392.202324 305.285493 392.831308 304.656508 
C 393.460293 304.027524 393.813702 303.174318 393.813702 302.2848 
C 393.813702 301.395282 393.460293 300.542076 392.831308 299.913092 
C 392.202324 299.284107 391.349118 298.930698 390.4596 298.930698 
C 389.570082 298.930698 388.716876 299.284107 388.087892 299.913092 
C 387.458907 300.542076 387.105498 301.395282 387.105498 302.2848 
C 387.105498 303.174318 387.458907 304.027524 388.087892 304.656508 
C 388.716876 305.285493 389.570082 305.638902 390.4596 305.638902 
z
" clip-path="url(#pd05e6ba383)" style="fill: #f08080; fill-opacity: 0.5; stroke: #ff0000; stroke-opacity: 0.5"/>
    <path d="M 391.5384 322.253264 
C 395.489837 322.253264 399.279966 320.683342 402.074054 317.889254 
C 404.868142 315.095166 406.438064 311.305037 406.438064 307.3536 
C 406.438064 303.402163 404.868142 299.612034 402.074054 296.817946 
C 399.279966 294.023858 395.489837 292.453936 391.5384 292.453936 
C 387.586963 292.453936 383.796834 294.023858 381.002746 296.817946 
C 378.208658 299.612034 376.638736 303.402163 376.638736 307.3536 
C 376.638736 311.305037 378.208658 315.095166 381.002746 317.889254 
C 383.796834 320.683342 387.586963 322.253264 391.5384 322.253264 
z
" clip-path="url(#pd05e6ba383)" style="fill: #f08080; fill-opacity: 0.5; stroke: #ff0000; stroke-opacity: 0.5"/>
    <path d="M 391.5384 253.961379 
C 392.837625 253.961379 394.083811 253.445192 395.002502 252.526502 
C 395.921192 251.607811 396.437379 250.361625 396.437379 249.0624 
C 396.437379 247.763175 395.921192 246.516989 395.002502 245.598298 
C 394.083811 244.679608 392.837625 244.163421 391.5384 244.163421 
C 390.239175 244.163421 388.992989 244.679608 388.074298 245.598298 
C 387.155608 246.516989 386.639421 247.763175 386.639421 249.0624 
C 386.639421 250.361625 387.155608 251.607811 388.074298 252.526502 
C 388.992989 253.445192 390.239175 253.961379 391.5384 253.961379 
z
" clip-path="url(#pd05e6ba383)" style="fill: #f08080; fill-opacity: 0.5; stroke: #ff0000; stroke-opacity: 0.5"/>
    <path d="M 391.5384 291.38 
C 391.671002 291.38 391.79819 291.327317 391.891953 291.233553 
C 391.985717 291.13979 392.0384 291.012602 392.0384 290.88 
C 392.0384 290.747398 391.985717 290.62021 391.891953 290.526447 
C 391.79819 290.432683 391.671002 290.38 391.5384 290.38 
C 391.405798 290.38 391.27861 290.432683 391.184847 290.526447 
C 391.091083 290.62021 391.0384 290.747398 391.0384 290.88 
C 391.0384 291.012602 391.091083 291.13979 391.184847 291.233553 
C 391.27861 291.327317 391.405798 291.38 391.5384 291.38 
z
" clip-path="url(#pd05e6ba383)" style="fill: #f08080; fill-opacity: 0.5; stroke: #ff0000; stroke-opacity: 0.5"/>
    <path d="M 393.4356 278.463265 
C 398.880343 278.463265 404.102816 276.300046 407.952831 272.450031 
C 411.802846 268.600016 413.966065 263.377543 413.966065 257.9328 
C 413.966065 252.488057 411.802846 247.265584 407.952831 243.415569 
C 404.102816 239.565554 398.880343 237.402335 393.4356 237.402335 
C 387.990857 237.402335 382.768384 239.565554 378.918369 243.415569 
C 375.068354 247.265584 372.905135 252.488057 372.905135 257.9328 
C 372.905135 263.377543 375.068354 268.600016 378.918369 272.450031 
C 382.768384 276.300046 387.990857 278.463265 393.4356 278.463265 
z
" clip-path="url(#pd05e6ba383)" style="fill: #f08080; fill-opacity: 0.5; stroke: #ff0000; stroke-opacity: 0.5"/>
    <path d="M 394.4772 342.686034 
C 394.773706 342.686034 395.058108 342.568231 395.267769 342.358569 
C 395.477431 342.148908 395.595234 341.864506 395.595234 341.568 
C 395.595234 341.271494 395.477431 340.987092 395.267769 340.777431 
C 395.058108 340.567769 394.773706 340.449966 394.4772 340.449966 
C 394.180694 340.449966 393.896292 340.567769 393.686631 340.777431 
C 393.476969 340.987092 393.359166 341.271494 393.359166 341.568 
C 393.359166 341.864506 393.476969 342.148908 393.686631 342.358569 
C 393.896292 342.568231 394.180694 342.686034 394.4772 342.686034 
z
" clip-path="url(#pd05e6ba383)" style="fill: #f08080; fill-opacity: 0.5; stroke: #ff0000; stroke-opacity: 0.5"/>
    <path d="M 417.6032 317.50631 
C 418.279338 317.50631 418.927874 317.237677 419.405976 316.759576 
C 419.884077 316.281474 420.15271 315.632938 420.15271 314.9568 
C 420.15271 314.280662 419.884077 313.632126 419.405976 313.154024 
C 418.927874 312.675923 418.279338 312.40729 417.6032 312.40729 
C 416.927062 312.40729 416.278526 312.675923 415.800424 313.154024 
C 415.322323 313.632126 415.05369 314.280662 415.05369 314.9568 
C 415.05369 315.632938 415.322323 316.281474 415.800424 316.759576 
C 416.278526 317.237677 416.927062 317.50631 417.6032 317.50631 
z
" clip-path="url(#pd05e6ba383)" style="fill: #f08080; fill-opacity: 0.5; stroke: #ff0000; stroke-opacity: 0.5"/>
    <path d="M 441.25 237.713276 
C 441.600831 237.713276 441.93734 237.573889 442.185414 237.325814 
C 442.433489 237.07774 442.572876 236.741231 442.572876 236.3904 
C 442.572876 236.039569 442.433489 235.70306 442.185414 235.454986 
C 441.93734 235.206911 441.600831 235.067524 441.25 235.067524 
C 440.899169 235.067524 440.56266 235.206911 440.314586 235.454986 
C 440.066511 235.70306 439.927124 236.039569 439.927124 236.3904 
C 439.927124 236.741231 440.066511 237.07774 440.314586 237.325814 
C 440.56266 237.573889 440.899169 237.713276 441.25 237.713276 
z
" clip-path="url(#pd05e6ba383)" style="fill: #f08080; fill-opacity: 0.5; stroke: #ff0000; stroke-opacity: 0.5"/>
    <path d="M 444.8832 354.74 
C 445.015802 354.74 445.14299 354.687317 445.236753 354.593553 
C 445.330517 354.49979 445.3832 354.372602 445.3832 354.24 
C 445.3832 354.107398 445.330517 353.98021 445.236753 353.886447 
C 445.14299 353.792683 445.015802 353.74 444.8832 353.74 
C 444.750598 353.74 444.62341 353.792683 444.529647 353.886447 
C 444.435883 353.98021 444.3832 354.107398 444.3832 354.24 
C 444.3832 354.372602 444.435883 354.49979 444.529647 354.593553 
C 444.62341 354.687317 444.750598 354.74 444.8832 354.74 
z
" clip-path="url(#pd05e6ba383)" style="fill: #f08080; fill-opacity: 0.5; stroke: #ff0000; stroke-opacity: 0.5"/>
    <path d="M 456.3284 228.02 
C 456.461002 228.02 456.58819 227.967317 456.681953 227.873553 
C 456.775717 227.77979 456.8284 227.652602 456.8284 227.52 
C 456.8284 227.387398 456.775717 227.26021 456.681953 227.166447 
C 456.58819 227.072683 456.461002 227.02 456.3284 227.02 
C 456.195798 227.02 456.06861 227.072683 455.974847 227.166447 
C 455.881083 227.26021 455.8284 227.387398 455.8284 227.52 
C 455.8284 227.652602 455.881083 227.77979 455.974847 227.873553 
C 456.06861 227.967317 456.195798 228.02 456.3284 228.02 
z
" clip-path="url(#pd05e6ba383)" style="fill: #f08080; fill-opacity: 0.5; stroke: #ff0000; stroke-opacity: 0.5"/>
    <path d="M 462.0944 290.450056 
C 465.677097 290.450056 469.113538 289.026636 471.646887 286.493287 
C 474.180236 283.959938 475.603656 280.523497 475.603656 276.9408 
C 475.603656 273.358103 474.180236 269.921662 471.646887 267.388313 
C 469.113538 264.854964 465.677097 263.431544 462.0944 263.431544 
C 458.511703 263.431544 455.075262 264.854964 452.541913 267.388313 
C 450.008564 269.921662 448.585144 273.358103 448.585144 276.9408 
C 448.585144 280.523497 450.008564 283.959938 452.541913 286.493287 
C 455.075262 289.026636 458.511703 290.450056 462.0944 290.450056 
z
" clip-path="url(#pd05e6ba383)" style="fill: #f08080; fill-opacity: 0.5; stroke: #ff0000; stroke-opacity: 0.5"/>
    <path d="M 463.384 305.538151 
C 466.767289 305.538151 470.012463 304.193956 472.404809 301.801609 
C 474.797156 299.409263 476.141351 296.164089 476.141351 292.7808 
C 476.141351 289.397511 474.797156 286.152337 472.404809 283.759991 
C 470.012463 281.367644 466.767289 280.023449 463.384 280.023449 
C 460.000711 280.023449 456.755537 281.367644 454.363191 283.759991 
C 451.970844 286.152337 450.626649 289.397511 450.626649 292.7808 
C 450.626649 296.164089 451.970844 299.409263 454.363191 301.801609 
C 456.755537 304.193956 460.000711 305.538151 463.384 305.538151 
z
" clip-path="url(#pd05e6ba383)" style="fill: #f08080; fill-opacity: 0.5; stroke: #ff0000; stroke-opacity: 0.5"/>
    <path d="M 465.4672 301.192102 
C 467.697903 301.192102 469.837543 300.305834 471.414889 298.728489 
C 472.992234 297.151143 473.878502 295.011503 473.878502 292.7808 
C 473.878502 290.550097 472.992234 288.410457 471.414889 286.833111 
C 469.837543 285.255766 467.697903 284.369498 465.4672 284.369498 
C 463.236497 284.369498 461.096857 285.255766 459.519511 286.833111 
C 457.942166 288.410457 457.055898 290.550097 457.055898 292.7808 
C 457.055898 295.011503 457.942166 297.151143 459.519511 298.728489 
C 461.096857 300.305834 463.236497 301.192102 465.4672 301.192102 
z
" clip-path="url(#pd05e6ba383)" style="fill: #f08080; fill-opacity: 0.5; stroke: #ff0000; stroke-opacity: 0.5"/>
    <path d="M 498.5008 293.13931 
C 503.972924 293.13931 509.221661 290.965212 513.091036 287.095836 
C 516.960412 283.226461 519.13451 277.977724 519.13451 272.5056 
C 519.13451 267.033476 516.960412 261.784739 513.091036 257.915364 
C 509.221661 254.045988 503.972924 251.87189 498.5008 251.87189 
C 493.028676 251.87189 487.779939 254.045988 483.910564 257.915364 
C 480.041188 261.784739 477.86709 267.033476 477.86709 272.5056 
C 477.86709 277.977724 480.041188 283.226461 483.910564 287.095836 
C 487.779939 290.965212 493.028676 293.13931 498.5008 293.13931 
z
" clip-path="url(#pd05e6ba383)" style="fill: #f08080; fill-opacity: 0.5; stroke: #ff0000; stroke-opacity: 0.5"/>
    <path d="M 512.426 369.996722 
C 514.924405 369.996722 517.320817 369.004095 519.087456 367.237456 
C 520.854095 365.470817 521.846722 363.074405 521.846722 360.576 
C 521.846722 358.077595 520.854095 355.681183 519.087456 353.914544 
C 517.320817 352.147905 514.924405 351.155278 512.426 351.155278 
C 509.927595 351.155278 507.531183 352.147905 505.764544 353.914544 
C 503.997905 355.681183 503.005278 358.077595 503.005278 360.576 
C 503.005278 363.074405 503.997905 365.470817 505.764544 367.237456 
C 507.531183 369.004095 509.927595 369.996722 512.426 369.996722 
z
" clip-path="url(#pd05e6ba383)" style="fill: #f08080; fill-opacity: 0.5; stroke: #ff0000; stroke-opacity: 0.5"/>
    <path d="M 533.2456 306.3192 
C 533.643405 306.3192 534.02497 306.161151 534.30626 305.87986 
C 534.587551 305.59857 534.7456 305.217005 534.7456 304.8192 
C 534.7456 304.421395 534.587551 304.03983 534.30626 303.75854 
C 534.02497 303.477249 533.643405 303.3192 533.2456 303.3192 
C 532.847795 303.3192 532.46623 303.477249 532.18494 303.75854 
C 531.903649 304.03983 531.7456 304.421395 531.7456 304.8192 
C 531.7456 305.217005 531.903649 305.59857 532.18494 305.87986 
C 532.46623 306.161151 532.847795 306.3192 533.2456 306.3192 
z
" clip-path="url(#pd05e6ba383)" style="fill: #f08080; fill-opacity: 0.5; stroke: #ff0000; stroke-opacity: 0.5"/>
    <path d="M 602.1276 302.304929 
C 610.030474 302.304929 617.610731 299.165084 623.198908 293.576908 
C 628.787084 287.988731 631.926929 280.408474 631.926929 272.5056 
C 631.926929 264.602726 628.787084 257.022469 623.198908 251.434292 
C 617.610731 245.846116 610.030474 242.706271 602.1276 242.706271 
C 594.224726 242.706271 586.644469 245.846116 581.056292 251.434292 
C 575.468116 257.022469 572.328271 264.602726 572.328271 272.5056 
C 572.328271 280.408474 575.468116 287.988731 581.056292 293.576908 
C 586.644469 299.165084 594.224726 302.304929 602.1276 302.304929 
z
" clip-path="url(#pd05e6ba383)" style="fill: #f08080; fill-opacity: 0.5; stroke: #ff0000; stroke-opacity: 0.5"/>
    <path d="M 645.0812 270.837225 
C 645.310873 270.837225 645.531169 270.745976 645.693572 270.583572 
C 645.855976 270.421169 645.947225 270.200873 645.947225 269.9712 
C 645.947225 269.741527 645.855976 269.521231 645.693572 269.358828 
C 645.531169 269.196424 645.310873 269.105175 645.0812 269.105175 
C 644.851527 269.105175 644.631231 269.196424 644.468828 269.358828 
C 644.306424 269.521231 644.215175 269.741527 644.215175 269.9712 
C 644.215175 270.200873 644.306424 270.421169 644.468828 270.583572 
C 644.631231 270.745976 644.851527 270.837225 645.0812 270.837225 
z
" clip-path="url(#pd05e6ba383)" style="fill: #f08080; fill-opacity: 0.5; stroke: #ff0000; stroke-opacity: 0.5"/>
    <path d="M 667.0292 313.520851 
C 667.488545 313.520851 667.929139 313.338351 668.253945 313.013545 
C 668.578751 312.688739 668.761251 312.248145 668.761251 311.7888 
C 668.761251 311.329455 668.578751 310.888861 668.253945 310.564055 
C 667.929139 310.239249 667.488545 310.056749 667.0292 310.056749 
C 666.569855 310.056749 666.129261 310.239249 665.804455 310.564055 
C 665.479649 310.888861 665.297149 311.329455 665.297149 311.7888 
C 665.297149 312.248145 665.479649 312.688739 665.804455 313.013545 
C 666.129261 313.338351 666.569855 313.520851 667.0292 313.520851 
z
" clip-path="url(#pd05e6ba383)" style="fill: #f08080; fill-opacity: 0.5; stroke: #ff0000; stroke-opacity: 0.5"/>
    <path d="M 667.0292 298.316248 
C 669.337381 298.316248 671.551336 297.399197 673.183467 295.767067 
C 674.815597 294.134936 675.732648 291.920981 675.732648 289.6128 
C 675.732648 287.304619 674.815597 285.090664 673.183467 283.458533 
C 671.551336 281.826403 669.337381 280.909352 667.0292 280.909352 
C 664.721019 280.909352 662.507064 281.826403 660.874933 283.458533 
C 659.242803 285.090664 658.325752 287.304619 658.325752 289.6128 
C 658.325752 291.920981 659.242803 294.134936 660.874933 295.767067 
C 662.507064 297.399197 664.721019 298.316248 667.0292 298.316248 
z
" clip-path="url(#pd05e6ba383)" style="fill: #f08080; fill-opacity: 0.5; stroke: #ff0000; stroke-opacity: 0.5"/>
    <path d="M 767.7296 302.095608 
C 768.351556 302.095608 768.948123 301.848502 769.387912 301.408712 
C 769.827702 300.968923 770.074808 300.372356 770.074808 299.7504 
C 770.074808 299.128444 769.827702 298.531877 769.387912 298.092088 
C 768.948123 297.652298 768.351556 297.405192 767.7296 297.405192 
C 767.107644 297.405192 766.511077 297.652298 766.071288 298.092088 
C 765.631498 298.531877 765.384392 299.128444 765.384392 299.7504 
C 765.384392 300.372356 765.631498 300.968923 766.071288 301.408712 
C 766.511077 301.848502 767.107644 302.095608 767.7296 302.095608 
z
" clip-path="url(#pd05e6ba383)" style="fill: #f08080; fill-opacity: 0.5; stroke: #ff0000; stroke-opacity: 0.5"/>
   </g>
   <g id="matplotlib.axis_1">
    <g id="xtick_1">
     <g id="line2d_1">
      <defs>
       <path id="m0eba760212" d="M 0 0 
L 0 3.5 
" style="stroke: #000000; stroke-width: 0.8"/>
      </defs>
      <g>
       <use xlink:href="#m0eba760212" x="132.8" y="512.64" style="stroke: #000000; stroke-width: 0.8"/>
      </g>
     </g>
     <g id="text_1">
      <!-- −2000 -->
      <g transform="translate(98.970313 534.836875) scale(0.2 -0.2)">
       <defs>
        <path id="DejaVuSans-2212" d="M 678 2272 
L 4684 2272 
L 4684 1741 
L 678 1741 
L 678 2272 
z
" transform="scale(0.015625)"/>
        <path id="DejaVuSans-32" d="M 1228 531 
L 3431 531 
L 3431 0 
L 469 0 
L 469 531 
Q 828 903 1448 1529 
Q 2069 2156 2228 2338 
Q 2531 2678 2651 2914 
Q 2772 3150 2772 3378 
Q 2772 3750 2511 3984 
Q 2250 4219 1831 4219 
Q 1534 4219 1204 4116 
Q 875 4013 500 3803 
L 500 4441 
Q 881 4594 1212 4672 
Q 1544 4750 1819 4750 
Q 2544 4750 2975 4387 
Q 3406 4025 3406 3419 
Q 3406 3131 3298 2873 
Q 3191 2616 2906 2266 
Q 2828 2175 2409 1742 
Q 1991 1309 1228 531 
z
" transform="scale(0.015625)"/>
        <path id="DejaVuSans-30" d="M 2034 4250 
Q 1547 4250 1301 3770 
Q 1056 3291 1056 2328 
Q 1056 1369 1301 889 
Q 1547 409 2034 409 
Q 2525 409 2770 889 
Q 3016 1369 3016 2328 
Q 3016 3291 2770 3770 
Q 2525 4250 2034 4250 
z
M 2034 4750 
Q 2819 4750 3233 4129 
Q 3647 3509 3647 2328 
Q 3647 1150 3233 529 
Q 2819 -91 2034 -91 
Q 1250 -91 836 529 
Q 422 1150 422 2328 
Q 422 3509 836 4129 
Q 1250 4750 2034 4750 
z
" transform="scale(0.015625)"/>
       </defs>
       <use xlink:href="#DejaVuSans-2212"/>
       <use xlink:href="#DejaVuSans-32" x="83.789062"/>
       <use xlink:href="#DejaVuSans-30" x="147.412109"/>
       <use xlink:href="#DejaVuSans-30" x="211.035156"/>
       <use xlink:href="#DejaVuSans-30" x="274.658203"/>
      </g>
     </g>
    </g>
    <g id="xtick_2">
     <g id="line2d_2">
      <g>
       <use xlink:href="#m0eba760212" x="256.8" y="512.64" style="stroke: #000000; stroke-width: 0.8"/>
      </g>
     </g>
     <g id="text_2">
      <!-- −1000 -->
      <g transform="translate(222.970313 534.836875) scale(0.2 -0.2)">
       <defs>
        <path id="DejaVuSans-31" d="M 794 531 
L 1825 531 
L 1825 4091 
L 703 3866 
L 703 4441 
L 1819 4666 
L 2450 4666 
L 2450 531 
L 3481 531 
L 3481 0 
L 794 0 
L 794 531 
z
" transform="scale(0.015625)"/>
       </defs>
       <use xlink:href="#DejaVuSans-2212"/>
       <use xlink:href="#DejaVuSans-31" x="83.789062"/>
       <use xlink:href="#DejaVuSans-30" x="147.412109"/>
       <use xlink:href="#DejaVuSans-30" x="211.035156"/>
       <use xlink:href="#DejaVuSans-30" x="274.658203"/>
      </g>
     </g>
    </g>
    <g id="xtick_3">
     <g id="line2d_3">
      <g>
       <use xlink:href="#m0eba760212" x="380.8" y="512.64" style="stroke: #000000; stroke-width: 0.8"/>
      </g>
     </g>
     <g id="text_3">
      <!-- 0 -->
      <g transform="translate(374.4375 534.836875) scale(0.2 -0.2)">
       <use xlink:href="#DejaVuSans-30"/>
      </g>
     </g>
    </g>
    <g id="xtick_4">
     <g id="line2d_4">
      <g>
       <use xlink:href="#m0eba760212" x="504.8" y="512.64" style="stroke: #000000; stroke-width: 0.8"/>
      </g>
     </g>
     <g id="text_4">
      <!-- 1000 -->
      <g transform="translate(479.35 534.836875) scale(0.2 -0.2)">
       <use xlink:href="#DejaVuSans-31"/>
       <use xlink:href="#DejaVuSans-30" x="63.623047"/>
       <use xlink:href="#DejaVuSans-30" x="127.246094"/>
       <use xlink:href="#DejaVuSans-30" x="190.869141"/>
      </g>
     </g>
    </g>
    <g id="xtick_5">
     <g id="line2d_5">
      <g>
       <use xlink:href="#m0eba760212" x="628.8" y="512.64" style="stroke: #000000; stroke-width: 0.8"/>
      </g>
     </g>
     <g id="text_5">
      <!-- 2000 -->
      <g transform="translate(603.35 534.836875) scale(0.2 -0.2)">
       <use xlink:href="#DejaVuSans-32"/>
       <use xlink:href="#DejaVuSans-30" x="63.623047"/>
       <use xlink:href="#DejaVuSans-30" x="127.246094"/>
       <use xlink:href="#DejaVuSans-30" x="190.869141"/>
      </g>
     </g>
    </g>
    <g id="xtick_6">
     <g id="line2d_6">
      <g>
       <use xlink:href="#m0eba760212" x="752.8" y="512.64" style="stroke: #000000; stroke-width: 0.8"/>
      </g>
     </g>
     <g id="text_6">
      <!-- 3000 -->
      <g transform="translate(727.35 534.836875) scale(0.2 -0.2)">
       <defs>
        <path id="DejaVuSans-33" d="M 2597 2516 
Q 3050 2419 3304 2112 
Q 3559 1806 3559 1356 
Q 3559 666 3084 287 
Q 2609 -91 1734 -91 
Q 1441 -91 1130 -33 
Q 819 25 488 141 
L 488 750 
Q 750 597 1062 519 
Q 1375 441 1716 441 
Q 2309 441 2620 675 
Q 2931 909 2931 1356 
Q 2931 1769 2642 2001 
Q 2353 2234 1838 2234 
L 1294 2234 
L 1294 2753 
L 1863 2753 
Q 2328 2753 2575 2939 
Q 2822 3125 2822 3475 
Q 2822 3834 2567 4026 
Q 2313 4219 1838 4219 
Q 1578 4219 1281 4162 
Q 984 4106 628 3988 
L 628 4550 
Q 988 4650 1302 4700 
Q 1616 4750 1894 4750 
Q 2613 4750 3031 4423 
Q 3450 4097 3450 3541 
Q 3450 3153 3228 2886 
Q 3006 2619 2597 2516 
z
" transform="scale(0.015625)"/>
       </defs>
       <use xlink:href="#DejaVuSans-33"/>
       <use xlink:href="#DejaVuSans-30" x="63.623047"/>
       <use xlink:href="#DejaVuSans-30" x="127.246094"/>
       <use xlink:href="#DejaVuSans-30" x="190.869141"/>
      </g>
     </g>
    </g>
   </g>
   <g id="matplotlib.axis_2">
    <g id="ytick_1">
     <g id="line2d_7">
      <defs>
       <path id="m5e6d4697a3" d="M 0 0 
L -3.5 0 
" style="stroke: #000000; stroke-width: 0.8"/>
      </defs>
      <g>
       <use xlink:href="#m5e6d4697a3" x="108" y="480.96" style="stroke: #000000; stroke-width: 0.8"/>
      </g>
     </g>
     <g id="text_7">
      <!-- −3 -->
      <g transform="translate(71.515625 488.558437) scale(0.2 -0.2)">
       <use xlink:href="#DejaVuSans-2212"/>
       <use xlink:href="#DejaVuSans-33" x="83.789062"/>
      </g>
     </g>
    </g>
    <g id="ytick_2">
     <g id="line2d_8">
      <g>
       <use xlink:href="#m5e6d4697a3" x="108" y="417.6" style="stroke: #000000; stroke-width: 0.8"/>
      </g>
     </g>
     <g id="text_8">
      <!-- −2 -->
      <g transform="translate(71.515625 425.198437) scale(0.2 -0.2)">
       <use xlink:href="#DejaVuSans-2212"/>
       <use xlink:href="#DejaVuSans-32" x="83.789062"/>
      </g>
     </g>
    </g>
    <g id="ytick_3">
     <g id="line2d_9">
      <g>
       <use xlink:href="#m5e6d4697a3" x="108" y="354.24" style="stroke: #000000; stroke-width: 0.8"/>
      </g>
     </g>
     <g id="text_9">
      <!-- −1 -->
      <g transform="translate(71.515625 361.838437) scale(0.2 -0.2)">
       <use xlink:href="#DejaVuSans-2212"/>
       <use xlink:href="#DejaVuSans-31" x="83.789062"/>
      </g>
     </g>
    </g>
    <g id="ytick_4">
     <g id="line2d_10">
      <g>
       <use xlink:href="#m5e6d4697a3" x="108" y="290.88" style="stroke: #000000; stroke-width: 0.8"/>
      </g>
     </g>
     <g id="text_10">
      <!-- 0 -->
      <g transform="translate(88.275 298.478437) scale(0.2 -0.2)">
       <use xlink:href="#DejaVuSans-30"/>
      </g>
     </g>
    </g>
    <g id="ytick_5">
     <g id="line2d_11">
      <g>
       <use xlink:href="#m5e6d4697a3" x="108" y="227.52" style="stroke: #000000; stroke-width: 0.8"/>
      </g>
     </g>
     <g id="text_11">
      <!-- 1 -->
      <g transform="translate(88.275 235.118437) scale(0.2 -0.2)">
       <use xlink:href="#DejaVuSans-31"/>
      </g>
     </g>
    </g>
    <g id="ytick_6">
     <g id="line2d_12">
      <g>
       <use xlink:href="#m5e6d4697a3" x="108" y="164.16" style="stroke: #000000; stroke-width: 0.8"/>
      </g>
     </g>
     <g id="text_12">
      <!-- 2 -->
      <g transform="translate(88.275 171.758438) scale(0.2 -0.2)">
       <use xlink:href="#DejaVuSans-32"/>
      </g>
     </g>
    </g>
    <g id="ytick_7">
     <g id="line2d_13">
      <g>
       <use xlink:href="#m5e6d4697a3" x="108" y="100.8" style="stroke: #000000; stroke-width: 0.8"/>
      </g>
     </g>
     <g id="text_13">
      <!-- 3 -->
      <g transform="translate(88.275 108.398438) scale(0.2 -0.2)">
       <use xlink:href="#DejaVuSans-33"/>
      </g>
     </g>
    </g>
   </g>
   <g id="line2d_14">
    <path d="M 158.4804 278.693468 
L 170.689803 283.059871 
L 182.899206 287.179709 
L 195.108608 291.052981 
L 207.318011 294.679687 
L 219.527414 298.059827 
L 231.736817 301.193402 
L 243.94622 304.080411 
L 256.155622 306.720855 
L 268.365025 309.114733 
L 280.574428 311.262045 
L 292.783831 313.162791 
L 304.993234 314.816972 
L 317.202636 316.224587 
L 329.412039 317.385636 
L 341.621442 318.30012 
L 353.830845 318.968037 
L 366.040248 319.38939 
L 378.249651 319.564176 
L 380.691531 319.569546 
L 380.691531 319.569546 
" clip-path="url(#pd05e6ba383)" style="fill: none; stroke: #0000ff; stroke-width: 1.5; stroke-linecap: square"/>
   </g>
   <g id="line2d_15">
    <path d="M 381.912471 280.219498 
L 427.087262 280.102653 
L 472.262052 279.763085 
L 517.436842 279.200796 
L 562.611633 278.415785 
L 607.786423 277.408053 
L 652.961214 276.177598 
L 698.136004 274.724422 
L 743.310794 273.048524 
L 767.7296 272.0499 
L 767.7296 272.0499 
" clip-path="url(#pd05e6ba383)" style="fill: none; stroke: #ff0000; stroke-width: 1.5; stroke-linecap: square"/>
   </g>
   <g id="line2d_16">
    <path d="M 380.8 512.64 
L 380.8 69.12 
" clip-path="url(#pd05e6ba383)" style="fill: none; stroke-dasharray: 10,10; stroke-dashoffset: 0; stroke: #000000; stroke-width: 2"/>
   </g>
   <g id="patch_3">
    <path d="M 108 512.64 
L 108 69.12 
" style="fill: none; stroke: #000000; stroke-width: 0.8; stroke-linejoin: miter; stroke-linecap: square"/>
   </g>
   <g id="patch_4">
    <path d="M 777.6 512.64 
L 777.6 69.12 
" style="fill: none; stroke: #000000; stroke-width: 0.8; stroke-linejoin: miter; stroke-linecap: square"/>
   </g>
   <g id="patch_5">
    <path d="M 108 512.64 
L 777.6 512.64 
" style="fill: none; stroke: #000000; stroke-width: 0.8; stroke-linejoin: miter; stroke-linecap: square"/>
   </g>
   <g id="patch_6">
    <path d="M 108 69.12 
L 777.6 69.12 
" style="fill: none; stroke: #000000; stroke-width: 0.8; stroke-linejoin: miter; stroke-linecap: square"/>
   </g>
  </g>
 </g>
 <defs>
  <clipPath id="pd05e6ba383">
   <rect x="108" y="69.12" width="669.6" height="443.52"/>
  </clipPath>
 </defs>
</svg>
